Dakkhinee.ufo3
<glyph name="exclam" format="2">
  <advance width="482"/>
  <unicode hex="0021"/>
  <outline>
    <contour>
      <point x="205" y="200" type="line"/>
      <point x="201" y="198" type="line" smooth="yes"/>
      <point x="201" y="184" type="line" smooth="yes"/>
      <point x="201" y="161.842"/>
      <point x="204.157" y="164.408"/>
      <point x="225" y="160" type="curve" smooth="yes"/>
      <point x="245.707" y="155.621"/>
      <point x="262.849" y="170.148"/>
      <point x="281" y="178" type="curve" smooth="yes"/>
      <point x="354.443" y="204.143"/>
      <point x="319.091" y="309.836"/>
      <point x="327" y="382" type="curve" smooth="yes"/>
      <point x="324.394" y="395.197"/>
      <point x="319.164" y="414.544"/>
      <point x="319" y="432" type="curve" smooth="yes"/>
      <point x="319" y="438.624"/>
      <point x="315" y="443.834"/>
      <point x="315" y="452" type="curve" smooth="yes"/>
      <point x="315" y="459.471"/>
      <point x="308.191" y="470.808"/>
      <point x="307" y="480" type="curve" smooth="yes"/>
      <point x="303.33" y="508.323"/>
      <point x="290.743" y="534.249"/>
      <point x="281" y="560" type="curve" smooth="yes"/>
      <point x="270.558" y="586.18"/>
      <point x="255.712" y="614.549"/>
      <point x="227" y="622" type="curve" smooth="yes"/>
      <point x="214.925" y="626.886"/>
      <point x="182.429" y="641.627"/>
      <point x="189" y="616" type="curve" smooth="yes"/>
      <point x="189" y="600.059"/>
      <point x="192.327" y="589.59"/>
      <point x="197" y="574" type="curve" smooth="yes"/>
      <point x="218.793" y="501.299"/>
      <point x="268.875" y="429.464"/>
      <point x="265" y="342" type="curve" smooth="yes"/>
      <point x="268.531" y="313.872"/>
      <point x="258.834" y="288.843"/>
      <point x="253" y="266" type="curve" smooth="yes"/>
      <point x="245.806" y="237.831"/>
      <point x="229.147" y="234.301"/>
      <point x="212" y="210" type="curve" smooth="yes"/>
    </contour>
    <contour>
      <point x="237" y="125" type="curve" smooth="yes"/>
      <point x="283" y="132" type="line" smooth="yes"/>
      <point x="286.642" y="121.529"/>
      <point x="291" y="119.681"/>
      <point x="291" y="108" type="curve" smooth="yes"/>
      <point x="291" y="84.2873"/>
      <point x="268.895" y="36.8584"/>
      <point x="251" y="37" type="curve" smooth="yes"/>
      <point x="231.323" y="37.1553"/>
      <point x="215" y="89.4739"/>
      <point x="215" y="116" type="curve" smooth="yes"/>
      <point x="215" y="134.41"/>
      <point x="215.236" y="125"/>
      <point x="237" y="125" type="curve" smooth="yes"/>
      <point x="237.333" y="125"/>
      <point x="238.167" y="125"/>
    </contour>
  </outline>
</glyph>
<glyph name="asterisk" format="2">
  <advance width="420"/>
  <unicode hex="002A"/>
  <outline>
    <contour>
      <point x="169.005" y="530" type="line" smooth="yes"/>
      <point x="169.005" y="536.399"/>
      <point x="171.444" y="542.8"/>
      <point x="176.322" y="547.678" type="curve" smooth="yes"/>
      <point x="181.2" y="552.556"/>
      <point x="187.601" y="554.995"/>
      <point x="194" y="554.995" type="curve" smooth="yes"/>
      <point x="200.399" y="554.995"/>
      <point x="206.8" y="552.556"/>
      <point x="211.678" y="547.678" type="curve" smooth="yes"/>
      <point x="216.556" y="542.8"/>
      <point x="218.995" y="536.399"/>
      <point x="218.995" y="530" type="curve" smooth="yes"/>
      <point x="218.995" y="522" type="line" smooth="yes"/>
      <point x="218.995" y="494.815"/>
      <point x="220.898" y="466.27"/>
      <point x="223.729" y="437.06" type="curve"/>
      <point x="254.772" y="458.138"/>
      <point x="278.272" y="484.281"/>
      <point x="295.378" y="520.651" type="curve" smooth="yes"/>
      <point x="299.162" y="528.698"/>
      <point x="308.249" y="534.995"/>
      <point x="318" y="534.995" type="curve" smooth="yes"/>
      <point x="323.696" y="534.995"/>
      <point x="328.874" y="532.52"/>
      <point x="333.188" y="530.362" type="curve" smooth="yes"/>
      <point x="340.963" y="526.475"/>
      <point x="346.995" y="517.514"/>
      <point x="346.995" y="508" type="curve" smooth="yes"/>
      <point x="346.995" y="498.806"/>
      <point x="341.313" y="490.016"/>
      <point x="333.889" y="486.002" type="curve"/>
      <point x="319.219" y="458.846"/>
      <point x="301.162" y="436.459"/>
      <point x="279.556" y="417.243" type="curve"/>
      <point x="312.631" y="416.991"/>
      <point x="344.51" y="415.991"/>
      <point x="376.787" y="414.982" type="curve" smooth="yes"/>
      <point x="382.922" y="414.791"/>
      <point x="388.999" y="412.356"/>
      <point x="393.678" y="407.678" type="curve" smooth="yes"/>
      <point x="398.556" y="402.8"/>
      <point x="400.995" y="396.399"/>
      <point x="400.995" y="390" type="curve" smooth="yes"/>
      <point x="400.995" y="383.601"/>
      <point x="398.556" y="377.2"/>
      <point x="393.678" y="372.322" type="curve" smooth="yes"/>
      <point x="388.8" y="367.444"/>
      <point x="382.399" y="365.005"/>
      <point x="376" y="365.005" type="curve" smooth="yes"/>
      <point x="375.737" y="365.005"/>
      <point x="375.476" y="365.009"/>
      <point x="375.213" y="365.018" type="curve" smooth="yes"/>
      <point x="339.954" y="366.157"/>
      <point x="304.83" y="367.432"/>
      <point x="268.338" y="367.338" type="curve"/>
      <point x="288.5" y="346.881"/>
      <point x="309.205" y="326.15"/>
      <point x="329.678" y="305.678" type="curve" smooth="yes"/>
      <point x="334.556" y="300.8"/>
      <point x="336.995" y="294.399"/>
      <point x="336.995" y="288" type="curve" smooth="yes"/>
      <point x="336.995" y="281.601"/>
      <point x="334.556" y="275.2"/>
      <point x="329.678" y="270.322" type="curve" smooth="yes"/>
      <point x="324.8" y="265.444"/>
      <point x="318.399" y="263.005"/>
      <point x="312" y="263.005" type="curve" smooth="yes"/>
      <point x="305.601" y="263.005"/>
      <point x="299.2" y="265.444"/>
      <point x="294.322" y="270.322" type="curve" smooth="yes"/>
      <point x="274.978" y="289.667"/>
      <point x="255.596" y="309.11"/>
      <point x="236.452" y="328.465" type="curve"/>
      <point x="238.82" y="308.99"/>
      <point x="241.062" y="289.574"/>
      <point x="242.883" y="270.378" type="curve" smooth="yes"/>
      <point x="242.958" y="269.587"/>
      <point x="242.995" y="268.794"/>
      <point x="242.995" y="268" type="curve" smooth="yes"/>
      <point x="242.995" y="261.601"/>
      <point x="240.556" y="255.2"/>
      <point x="235.678" y="250.322" type="curve" smooth="yes"/>
      <point x="230.8" y="245.444"/>
      <point x="224.399" y="243.005"/>
      <point x="218" y="243.005" type="curve" smooth="yes"/>
      <point x="205.219" y="243.005"/>
      <point x="194.279" y="253.371"/>
      <point x="193.117" y="265.622" type="curve" smooth="yes"/>
      <point x="190.495" y="293.262"/>
      <point x="186.877" y="322.196"/>
      <point x="183.27" y="351.199" type="curve"/>
      <point x="178.39" y="346.757"/>
      <point x="173.366" y="342.018"/>
      <point x="168.918" y="337.569" type="curve" smooth="yes"/>
      <point x="160.214" y="328.865"/>
      <point x="154.059" y="321.39"/>
      <point x="152.903" y="319.967" type="curve" smooth="yes"/>
      <point x="151.456" y="316.658"/>
      <point x="149.127" y="313.484"/>
      <point x="146.324" y="311.063" type="curve" smooth="yes"/>
      <point x="102.324" y="273.063" type="line" smooth="yes"/>
      <point x="97.6465" y="269.024"/>
      <point x="91.8232" y="267.005"/>
      <point x="86" y="267.005" type="curve" smooth="yes"/>
      <point x="79.6006" y="267.005"/>
      <point x="73.2002" y="269.444"/>
      <point x="68.3223" y="274.322" type="curve" smooth="yes"/>
      <point x="63.4443" y="279.2"/>
      <point x="61.0049" y="285.601"/>
      <point x="61.0049" y="292" type="curve" smooth="yes"/>
      <point x="61.0049" y="299.063"/>
      <point x="64.2393" y="306.24"/>
      <point x="69.6758" y="310.937" type="curve" smooth="yes"/>
      <point x="110.024" y="345.782" type="line"/>
      <point x="115.623" y="354.438"/>
      <point x="121.553" y="360.637"/>
      <point x="129.099" y="368.4" type="curve"/>
      <point x="49.8076" y="369.006" type="line" smooth="yes"/>
      <point x="43.4727" y="369.054"/>
      <point x="37.1514" y="371.493"/>
      <point x="32.3223" y="376.322" type="curve" smooth="yes"/>
      <point x="27.4443" y="381.2"/>
      <point x="25.0049" y="387.601"/>
      <point x="25.0049" y="394" type="curve" smooth="yes"/>
      <point x="25.0049" y="400.399"/>
      <point x="27.4443" y="406.8"/>
      <point x="32.3223" y="411.678" type="curve" smooth="yes"/>
      <point x="37.2002" y="416.556"/>
      <point x="43.6006" y="419.045"/>
      <point x="50" y="418.996" type="curve" smooth="yes"/>
      <point x="123.496" y="418.435" type="line"/>
      <point x="104.788" y="436.727"/>
      <point x="90.5322" y="460.621"/>
      <point x="73.3027" y="477.851" type="curve" smooth="yes"/>
      <point x="70.916" y="480.237"/>
      <point x="68.5684" y="482.076"/>
      <point x="66.3223" y="484.322" type="curve" smooth="yes"/>
      <point x="61.4443" y="489.2"/>
      <point x="59.0049" y="495.601"/>
      <point x="59.0049" y="502" type="curve" smooth="yes"/>
      <point x="59.0049" y="508.399"/>
      <point x="61.4443" y="514.8"/>
      <point x="66.3223" y="519.678" type="curve" smooth="yes"/>
      <point x="71.2002" y="524.556"/>
      <point x="77.6006" y="526.995"/>
      <point x="84" y="526.995" type="curve" smooth="yes"/>
      <point x="89.7725" y="526.995"/>
      <point x="95.5459" y="525.011"/>
      <point x="100.202" y="521.041" type="curve" smooth="yes"/>
      <point x="113.613" y="509.606"/>
      <point x="125.411" y="494.441"/>
      <point x="135.356" y="481.586" type="curve" smooth="yes"/>
      <point x="143.222" y="471.417"/>
      <point x="150.548" y="462.079"/>
      <point x="157.571" y="455.057" type="curve" smooth="yes"/>
      <point x="162.968" y="449.659"/>
      <point x="167.998" y="445.755"/>
      <point x="172.921" y="443.154" type="curve"/>
      <point x="170.555" y="469.679"/>
      <point x="169.005" y="496.091"/>
      <point x="169.005" y="522" type="curve" smooth="yes"/>
    </contour>
  </outline>
</glyph>
<glyph name="five" format="2">
  <advance width="518"/>
  <unicode hex="0035"/>
  <outline>
    <contour>
      <point x="439.536" y="769.3" type="curve" smooth="yes"/>
      <point x="452.663" y="769.3"/>
      <point x="463.393" y="758.743"/>
      <point x="463.393" y="744.604" type="curve" smooth="yes"/>
      <point x="463.393" y="740.184"/>
      <point x="462.445" y="736.778"/>
      <point x="461.266" y="733.877" type="curve" smooth="yes"/>
      <point x="460.93" y="727.856"/>
      <point x="459.481" y="720.095"/>
      <point x="459.481" y="715.154" type="curve" smooth="yes"/>
      <point x="459.481" y="711.141"/>
      <point x="458.472" y="707.127"/>
      <point x="456.451" y="703.529" type="curve" smooth="yes"/>
      <point x="452.96" y="697.31"/>
      <point x="448.729" y="691.76"/>
      <point x="443.932" y="686.962" type="curve" smooth="yes"/>
      <point x="422.856" y="665.887"/>
      <point x="395.012" y="661.664"/>
      <point x="371.713" y="659.238" type="curve" smooth="yes"/>
      <point x="366.737" y="658.72"/>
      <point x="361.954" y="658.479"/>
      <point x="357.345" y="658.479" type="curve" smooth="yes"/>
      <point x="322.894" y="658.479"/>
      <point x="298.134" y="671.979"/>
      <point x="275.3" y="684.559" type="curve" smooth="yes"/>
      <point x="267.335" y="688.946"/>
      <point x="259.325" y="693.35"/>
      <point x="250.592" y="697.57" type="curve" smooth="yes"/>
      <point x="248.261" y="698.697"/>
      <point x="246.076" y="700.228"/>
      <point x="244.143" y="702.161" type="curve" smooth="yes"/>
      <point x="205.62" y="740.683" type="line"/>
      <point x="145.033" y="752.146" type="line"/>
      <point x="91.4141" y="750.613" type="line"/>
      <point x="76.5361" y="731.873"/>
      <point x="65.9297" y="704.499"/>
      <point x="64.2178" y="681.108" type="curve" smooth="yes"/>
      <point x="64.167" y="680.416"/>
      <point x="64.0859" y="679.727"/>
      <point x="63.9756" y="679.04" type="curve" smooth="yes"/>
      <point x="62.5557" y="670.257"/>
      <point x="61.8701" y="661.582"/>
      <point x="61.8701" y="653.027" type="curve" smooth="yes"/>
      <point x="61.8701" y="598.629"/>
      <point x="89.5605" y="549.031"/>
      <point x="131.985" y="506.607" type="curve" smooth="yes"/>
      <point x="170.93" y="467.662"/>
      <point x="221.56" y="436.122"/>
      <point x="268.472" y="415.854" type="curve" smooth="yes"/>
      <point x="269.464" y="415.426"/>
      <point x="270.432" y="414.927"/>
      <point x="271.369" y="414.356" type="curve" smooth="yes"/>
      <point x="290.382" y="402.795"/>
      <point x="313.823" y="392.516"/>
      <point x="338.427" y="381.833" type="curve" smooth="yes"/>
      <point x="378.498" y="364.435"/>
      <point x="422.351" y="346.162"/>
      <point x="455.054" y="313.459" type="curve" smooth="yes"/>
      <point x="474.33" y="294.183"/>
      <point x="489.202" y="269.63"/>
      <point x="495.145" y="239.006" type="curve" smooth="yes"/>
      <point x="500.862" y="209.536"/>
      <point x="505.082" y="180.809"/>
      <point x="505.082" y="148.955" type="curve" smooth="yes"/>
      <point x="505.082" y="148.1"/>
      <point x="505.036" y="147.244"/>
      <point x="504.944" y="146.393" type="curve" smooth="yes"/>
      <point x="502.671" y="125.295"/>
      <point x="498.891" y="98.293"/>
      <point x="490.544" y="72.2998" type="curve" smooth="yes"/>
      <point x="479.939" y="39.2754"/>
      <point x="460.258" y="5.19824"/>
      <point x="424.811" y="-5.88379" type="curve" smooth="yes"/>
      <point x="417.043" y="-8.3125"/>
      <point x="408.808" y="-9.51465"/>
      <point x="400.247" y="-9.51465" type="curve" smooth="yes"/>
      <point x="391.939" y="-9.51465"/>
      <point x="383.325" y="-8.38281"/>
      <point x="374.531" y="-6.14062" type="curve"/>
      <point x="362.969" y="-6.98828"/>
      <point x="350.894" y="-7.48633"/>
      <point x="338.54" y="-7.48633" type="curve" smooth="yes"/>
      <point x="311.051" y="-7.48633"/>
      <point x="282.184" y="-5.02051"/>
      <point x="254.528" y="1.54785" type="curve" smooth="yes"/>
      <point x="221.33" y="9.43262"/>
      <point x="189.21" y="23.3545"/>
      <point x="164.634" y="47.9307" type="curve" smooth="yes"/>
      <point x="150.143" y="62.4219"/>
      <point x="138.705" y="80.4375"/>
      <point x="131.907" y="101.838" type="curve" smooth="yes"/>
      <point x="131.163" y="104.182"/>
      <point x="130.791" y="106.618"/>
      <point x="130.791" y="109.055" type="curve" smooth="yes"/>
      <point x="130.791" y="115.135"/>
      <point x="133.108" y="121.214"/>
      <point x="137.742" y="125.849" type="curve" smooth="yes"/>
      <point x="142.377" y="130.482"/>
      <point x="148.456" y="132.8"/>
      <point x="154.536" y="132.8" type="curve" smooth="yes"/>
      <point x="164.998" y="132.8"/>
      <point x="174.28" y="125.354"/>
      <point x="177.165" y="116.271" type="curve" smooth="yes"/>
      <point x="181.658" y="102.126"/>
      <point x="188.828" y="90.9111"/>
      <point x="198.222" y="81.5186" type="curve" smooth="yes"/>
      <point x="214.183" y="65.5566"/>
      <point x="237.8" y="54.3418"/>
      <point x="265.562" y="47.748" type="curve" smooth="yes"/>
      <point x="288.723" y="42.2471"/>
      <point x="314.312" y="40.0508"/>
      <point x="339.127" y="40.0508" type="curve" smooth="yes"/>
      <point x="351.365" y="40.0508"/>
      <point x="363.416" y="40.585"/>
      <point x="374.893" y="41.5205" type="curve" smooth="yes"/>
      <point x="375.539" y="41.5732"/>
      <point x="376.188" y="41.5996"/>
      <point x="376.836" y="41.5996" type="curve" smooth="yes"/>
      <point x="379.114" y="41.5996"/>
      <point x="381.392" y="41.2744"/>
      <point x="383.594" y="40.624" type="curve" smooth="yes"/>
      <point x="390.18" y="38.6787"/>
      <point x="395.6" y="37.9102"/>
      <point x="400.175" y="37.9102" type="curve" smooth="yes"/>
      <point x="411.691" y="37.9102"/>
      <point x="418.049" y="41.7178"/>
      <point x="424.567" y="48.2363" type="curve" smooth="yes"/>
      <point x="432.564" y="56.2334"/>
      <point x="439.958" y="70.1396"/>
      <point x="445.332" y="86.876" type="curve" smooth="yes"/>
      <point x="451.871" y="107.239"/>
      <point x="455.456" y="130.843"/>
      <point x="457.588" y="150.229" type="curve" smooth="yes"/>
      <point x="457.479" y="177.328"/>
      <point x="453.906" y="202.187"/>
      <point x="448.528" y="229.904" type="curve" smooth="yes"/>
      <point x="444.516" y="250.579"/>
      <point x="435.188" y="266.149"/>
      <point x="421.466" y="279.871" type="curve" smooth="yes"/>
      <point x="381.954" y="319.383"/>
      <point x="301.536" y="340.836"/>
      <point x="248.115" y="372.899" type="curve"/>
      <point x="196.827" y="395.253"/>
      <point x="142.336" y="429.081"/>
      <point x="98.3975" y="473.02" type="curve" smooth="yes"/>
      <point x="50.5869" y="520.83"/>
      <point x="14.3672" y="582.255"/>
      <point x="14.3672" y="652.963" type="curve" smooth="yes"/>
      <point x="14.3672" y="663.652"/>
      <point x="15.1943" y="674.554"/>
      <point x="16.9355" y="685.652" type="curve" smooth="yes"/>
      <point x="19.9062" y="722.863"/>
      <point x="36.25" y="763.456"/>
      <point x="63.6426" y="790.849" type="curve" smooth="yes"/>
      <point x="68.1035" y="795.31"/>
      <point x="73.9033" y="797.623"/>
      <point x="79.7529" y="797.79" type="curve" smooth="yes"/>
      <point x="146.253" y="799.69" type="line" smooth="yes"/>
      <point x="146.48" y="799.696"/>
      <point x="146.708" y="799.7"/>
      <point x="146.937" y="799.7" type="curve" smooth="yes"/>
      <point x="148.424" y="799.7"/>
      <point x="149.911" y="799.562"/>
      <point x="151.377" y="799.284" type="curve" smooth="yes"/>
      <point x="221.678" y="785.983" type="line" smooth="yes"/>
      <point x="226.204" y="785.127"/>
      <point x="230.529" y="782.949"/>
      <point x="234.03" y="779.448" type="curve" smooth="yes"/>
      <point x="274.929" y="738.549" type="line"/>
      <point x="283.548" y="734.263"/>
      <point x="291.228" y="730.025"/>
      <point x="298.219" y="726.174" type="curve" smooth="yes"/>
      <point x="321.237" y="713.494"/>
      <point x="334.824" y="705.878"/>
      <point x="355.974" y="705.878" type="curve" smooth="yes"/>
      <point x="381.465" y="705.878"/>
      <point x="404.423" y="712.893"/>
      <point x="412.335" y="722.771" type="curve" smooth="yes"/>
      <point x="412.733" y="727.389"/>
      <point x="413.604" y="733.058"/>
      <point x="413.849" y="736.908" type="curve" smooth="yes"/>
      <point x="413.802" y="737.587"/>
      <point x="413.78" y="738.254"/>
      <point x="413.78" y="738.905" type="curve" smooth="yes"/>
      <point x="413.78" y="743.674"/>
      <point x="414.996" y="747.698"/>
      <point x="416.335" y="750.627" type="curve" smooth="yes"/>
      <point x="418.545" y="760.795"/>
      <point x="428.275" y="769.3"/>
    </contour>
  </outline>
</glyph>
<glyph name="less" format="2">
  <advance width="416"/>
  <unicode hex="003C"/>
  <outline>
    <contour>
      <point x="324" y="454.995" type="curve" smooth="yes"/>
      <point x="330.399" y="454.995"/>
      <point x="336.8" y="452.556"/>
      <point x="341.678" y="447.678" type="curve" smooth="yes"/>
      <point x="346.556" y="442.8"/>
      <point x="348.995" y="436.399"/>
      <point x="348.995" y="430" type="curve" smooth="yes"/>
      <point x="348.995" y="420.656"/>
      <point x="343.15" y="411.784"/>
      <point x="335.561" y="407.828" type="curve" smooth="yes"/>
      <point x="298.332" y="388.422"/>
      <point x="257.546" y="380.709"/>
      <point x="221.345" y="373.54" type="curve" smooth="yes"/>
      <point x="196.674" y="368.655"/>
      <point x="174.019" y="364.034"/>
      <point x="156.243" y="357.588" type="curve" smooth="yes"/>
      <point x="141.97" y="352.412"/>
      <point x="131.247" y="346.215"/>
      <point x="124.043" y="339.011" type="curve" smooth="yes"/>
      <point x="114.955" y="329.923"/>
      <point x="108.642" y="316.203"/>
      <point x="108.642" y="294.75" type="curve" smooth="yes"/>
      <point x="108.642" y="275.317"/>
      <point x="115.065" y="263.309"/>
      <point x="126.184" y="252.19" type="curve" smooth="yes"/>
      <point x="142.82" y="235.554"/>
      <point x="173.701" y="221.749"/>
      <point x="210.014" y="206.706" type="curve" smooth="yes"/>
      <point x="244.805" y="192.293"/>
      <point x="283.97" y="176.442"/>
      <point x="317.599" y="149.539" type="curve" smooth="yes"/>
      <point x="323.329" y="144.955"/>
      <point x="326.995" y="137.413"/>
      <point x="326.995" y="130" type="curve" smooth="yes"/>
      <point x="326.995" y="123.601"/>
      <point x="324.556" y="117.2"/>
      <point x="319.678" y="112.322" type="curve" smooth="yes"/>
      <point x="314.8" y="107.444"/>
      <point x="308.399" y="105.005"/>
      <point x="302" y="105.005" type="curve" smooth="yes"/>
      <point x="296.474" y="105.005"/>
      <point x="290.948" y="106.823"/>
      <point x="286.401" y="110.461" type="curve" smooth="yes"/>
      <point x="260.225" y="131.402"/>
      <point x="225.724" y="146.068"/>
      <point x="190.839" y="160.521" type="curve" smooth="yes"/>
      <point x="132.12" y="184.847"/>
      <point x="58.7012" y="213.076"/>
      <point x="58.7012" y="295.92" type="curve" smooth="yes"/>
      <point x="58.7012" y="329.888"/>
      <point x="70.0322" y="355.71"/>
      <point x="88.6875" y="374.366" type="curve" smooth="yes"/>
      <point x="118.489" y="404.167"/>
      <point x="163.855" y="413.124"/>
      <point x="211.576" y="422.573" type="curve" smooth="yes"/>
      <point x="247.892" y="429.765"/>
      <point x="283.79" y="437.237"/>
      <point x="312.439" y="452.172" type="curve" smooth="yes"/>
      <point x="316.05" y="454.054"/>
      <point x="320.025" y="454.995"/>
    </contour>
  </outline>
</glyph>
<glyph name="C" format="2">
  <advance width="450"/>
  <unicode hex="0043"/>
  <outline>
    <contour>
      <point x="234.395" y="775.373" type="curve" smooth="yes"/>
      <point x="232.715" y="775.286"/>
      <point x="231.131" y="775.201"/>
      <point x="229.459" y="775.201" type="curve" smooth="yes"/>
      <point x="228.725" y="775.201"/>
      <point x="228.34" y="775.267"/>
      <point x="227.886" y="775.267" type="curve" smooth="yes"/>
      <point x="227.8" y="775.261"/>
      <point x="227.182" y="775.194"/>
      <point x="224.829" y="774.399" type="curve" smooth="yes"/>
      <point x="221.378" y="773.277"/>
      <point x="201.882" y="763.619"/>
      <point x="192.942" y="759.19" type="curve" smooth="yes"/>
      <point x="134.722" y="729.142"/>
      <point x="106.824" y="701.71"/>
      <point x="85.5742" y="655.543" type="curve" smooth="yes"/>
      <point x="74.6982" y="631.916"/>
      <point x="72.8379" y="626.488"/>
      <point x="70.1377" y="610.581" type="curve" smooth="yes"/>
      <point x="68.8379" y="602.922"/>
      <point x="67.0811" y="594.469"/>
      <point x="66.3311" y="591.945" type="curve" smooth="yes"/>
      <point x="60.0488" y="570.776"/>
      <point x="56.6953" y="544.022"/>
      <point x="55.8574" y="509.979" type="curve" smooth="yes"/>
      <point x="55.3906" y="490.953"/>
      <point x="54.1924" y="468.679"/>
      <point x="53.2744" y="461.055" type="curve" smooth="yes"/>
      <point x="52.2109" y="452.202"/>
      <point x="51.8369" y="421.13"/>
      <point x="51.8369" y="361.625" type="curve" smooth="yes"/>
      <point x="52.4326" y="161.606" type="line"/>
      <point x="56.5488" y="149.839" type="line" smooth="yes"/>
      <point x="62.2432" y="133.554"/>
      <point x="84.2666" y="91.6348"/>
      <point x="95.6748" y="75.1973" type="curve" smooth="yes"/>
      <point x="112.198" y="51.3926"/>
      <point x="134.104" y="36.1826"/>
      <point x="164.892" y="26.8896" type="curve" smooth="yes"/>
      <point x="195.852" y="18.459"/>
      <point x="205.932" y="17.7725"/>
      <point x="289.212" y="17.7725" type="curve" smooth="yes"/>
      <point x="366.189" y="17.7725" type="line"/>
      <point x="376.569" y="24.0752"/>
      <point x="382.385" y="27.5234"/>
      <point x="395.055" y="34.5342" type="curve" smooth="yes"/>
      <point x="407.011" y="41.1494"/>
      <point x="419.643" y="48.2314"/>
      <point x="426.13" y="52.5781" type="curve" smooth="yes"/>
      <point x="430.016" y="55.1807"/>
      <point x="431.033" y="56.0215"/>
      <point x="433.179" y="58.8057" type="curve" smooth="yes"/>
      <point x="433.838" y="59.6621"/>
      <point x="434.389" y="59.6758"/>
      <point x="434.389" y="62.9824" type="curve" smooth="yes"/>
      <point x="434.389" y="66.833"/>
      <point x="430.677" y="70.333"/>
      <point x="426.729" y="70.333" type="curve" smooth="yes"/>
      <point x="424.562" y="70.333"/>
      <point x="424.927" y="70.3184"/>
      <point x="423.788" y="70.0684" type="curve" smooth="yes"/>
      <point x="422.911" y="70.0684" type="line" smooth="yes"/>
      <point x="418.004" y="70.0684"/>
      <point x="417.067" y="72.6377"/>
      <point x="413.099" y="72.6377" type="curve" smooth="yes"/>
      <point x="411.153" y="72.6377"/>
      <point x="409.593" y="72.5664"/>
      <point x="407.223" y="72.5664" type="curve" smooth="yes"/>
      <point x="385.561" y="72.5664"/>
      <point x="367.015" y="72.7412"/>
      <point x="341.374" y="72.7412" type="curve" smooth="yes"/>
      <point x="323.705" y="72.7412" type="line" smooth="yes"/>
      <point x="253.767" y="72.7412"/>
      <point x="254.063" y="73.0391"/>
      <point x="229.1" y="80.1328" type="curve" smooth="yes"/>
      <point x="199.781" y="88.4639"/>
      <point x="183.475" y="98.3916"/>
      <point x="170.395" y="114.997" type="curve" smooth="yes"/>
      <point x="158.531" y="128.692"/>
      <point x="135.15" y="172.069"/>
      <point x="130.579" y="184.876" type="curve" smooth="yes"/>
      <point x="127.595" y="193.24"/>
      <point x="127.473" y="195.083"/>
      <point x="126.999" y="331.243" type="curve" smooth="yes"/>
      <point x="126.845" y="400.827" type="line" smooth="yes"/>
      <point x="126.845" y="460.509"/>
      <point x="127.433" y="478.104"/>
      <point x="129.056" y="493.368" type="curve" smooth="yes"/>
      <point x="130.185" y="503.986"/>
      <point x="130.89" y="513.848"/>
      <point x="130.89" y="519.098" type="curve" smooth="yes"/>
      <point x="130.89" y="519.89"/>
      <point x="130.936" y="520.414"/>
      <point x="130.936" y="521.007" type="curve" smooth="yes"/>
      <point x="130.936" y="523.35"/>
      <point x="130.265" y="524.877"/>
      <point x="130.265" y="528.714" type="curve" smooth="yes"/>
      <point x="130.265" y="544.375"/>
      <point x="133.758" y="581.554"/>
      <point x="136.887" y="595.58" type="curve" smooth="yes"/>
      <point x="139.201" y="605.951"/>
      <point x="142.083" y="619.376"/>
      <point x="143.608" y="626.838" type="curve" smooth="yes"/>
      <point x="148.364" y="650.094"/>
      <point x="150.27" y="654.479"/>
      <point x="163.549" y="680.182" type="curve" smooth="yes"/>
      <point x="173.264" y="697.376"/>
      <point x="187.013" y="713.784"/>
      <point x="198.371" y="724.434" type="curve"/>
      <point x="201.003" y="724.434" type="line"/>
      <point x="222.037" y="724.392" type="line" smooth="yes"/>
      <point x="263.909" y="724.316"/>
      <point x="282.485" y="719.652"/>
      <point x="295.839" y="709.45" type="curve" smooth="yes"/>
      <point x="298.507" y="706.804"/>
      <point x="302.754" y="701.088"/>
      <point x="308.15" y="692.427" type="curve" smooth="yes"/>
      <point x="315.451" y="680.885"/>
      <point x="324.34" y="666.114"/>
      <point x="330.209" y="653.865" type="curve" smooth="yes"/>
      <point x="332.483" y="648.235"/>
      <point x="334.384" y="642.476"/>
      <point x="338.21" y="639.531" type="curve" smooth="yes"/>
      <point x="339.062" y="638.876"/>
      <point x="339.365" y="638.209"/>
      <point x="342.541" y="638.209" type="curve" smooth="yes"/>
      <point x="344.885" y="638.209"/>
      <point x="345.701" y="638.831"/>
      <point x="347.3" y="639.608" type="curve" smooth="yes"/>
      <point x="364.145" y="647.795"/>
      <point x="386.935" y="660.086"/>
      <point x="402.757" y="669.058" type="curve" smooth="yes"/>
      <point x="404.473" y="670.03"/>
      <point x="408.641" y="672.732"/>
      <point x="408.641" y="674.37" type="curve" smooth="yes"/>
      <point x="408.641" y="674.639"/>
      <point x="408.448" y="674.711"/>
      <point x="408.448" y="674.805" type="curve" smooth="yes"/>
      <point x="408.448" y="675.246"/>
      <point x="408.401" y="675.373"/>
      <point x="408.401" y="676.065" type="curve" smooth="yes"/>
      <point x="408.401" y="676.709"/>
      <point x="408.405" y="677.176"/>
      <point x="408.405" y="677.525" type="curve" smooth="yes"/>
      <point x="408.405" y="679.055"/>
      <point x="407.578" y="680.036"/>
      <point x="406.835" y="681.942" type="curve" smooth="yes"/>
      <point x="401.228" y="696.335"/>
      <point x="394.537" y="709.166"/>
      <point x="385.878" y="725.696" type="curve" smooth="yes"/>
      <point x="375.021" y="746.417"/>
      <point x="367.099" y="756.274"/>
      <point x="348.508" y="765.385" type="curve" smooth="yes"/>
      <point x="331.478" y="773.73"/>
      <point x="315.161" y="775.994"/>
      <point x="274.537" y="775.994" type="curve" smooth="yes"/>
      <point x="259.749" y="775.994"/>
      <point x="245.342" y="775.937"/>
    </contour>
  </outline>
</glyph>
<glyph name="F" format="2">
  <advance width="482"/>
  <unicode hex="0046"/>
  <outline>
    <contour>
      <point x="141.469" y="44.9854" type="curve" smooth="yes"/>
      <point x="141.469" y="45.1885"/>
      <point x="141.425" y="45.3408"/>
      <point x="141.425" y="45.4736" type="curve" smooth="yes"/>
      <point x="141.425" y="45.6729"/>
      <point x="141.419" y="45.8398"/>
      <point x="141.419" y="46.0898" type="curve" smooth="yes"/>
      <point x="141.419" y="47.1758"/>
      <point x="141.369" y="47.0498"/>
      <point x="141.085" y="47.8096" type="curve" smooth="yes"/>
      <point x="139.847" y="51.1152"/>
      <point x="136.748" y="54.6572"/>
      <point x="134.368" y="58.2998" type="curve" smooth="yes"/>
      <point x="121.45" y="78.0752"/>
      <point x="113.491" y="96.3076"/>
      <point x="107.954" y="117.458" type="curve" smooth="yes"/>
      <point x="106.061" y="124.688"/>
      <point x="102.583" y="136.486"/>
      <point x="100.051" y="144.279" type="curve" smooth="yes"/>
      <point x="94.5537" y="161.191"/>
      <point x="90.4365" y="176.772"/>
      <point x="85.3809" y="199.87" type="curve" smooth="yes"/>
      <point x="83.3291" y="209.244"/>
      <point x="81.6885" y="216.646"/>
      <point x="80.8076" y="220.425" type="curve" smooth="yes"/>
      <point x="80.5674" y="225.446"/>
      <point x="80.3867" y="239.784"/>
      <point x="80.3867" y="258.482" type="curve" smooth="yes"/>
      <point x="80.4043" y="269.031" type="line" smooth="yes"/>
      <point x="80.5645" y="319.581"/>
      <point x="81.1719" y="326.892"/>
      <point x="86.3701" y="346.595" type="curve" smooth="yes"/>
      <point x="89.3477" y="357.881"/>
      <point x="94.1943" y="365.896"/>
      <point x="99" y="372.312" type="curve"/>
      <point x="150.218" y="372.622"/>
      <point x="242.709" y="372.897"/>
      <point x="272.114" y="373.756" type="curve" smooth="yes"/>
      <point x="280.711" y="374.007"/>
      <point x="283.56" y="374.117"/>
      <point x="287.936" y="375.908" type="curve" smooth="yes"/>
      <point x="296.323" y="379.342"/>
      <point x="315.899" y="391.019"/>
      <point x="325.677" y="397.656" type="curve" smooth="yes"/>
      <point x="328.08" y="399.287"/>
      <point x="328.714" y="399.928"/>
      <point x="330.376" y="401.542" type="curve" smooth="yes"/>
      <point x="330.497" y="401.659"/>
      <point x="331.766" y="403.989"/>
      <point x="331.766" y="406.387" type="curve" smooth="yes"/>
      <point x="331.766" y="410.263"/>
      <point x="329.412" y="413.559"/>
      <point x="325.674" y="417.3" type="curve" smooth="yes"/>
      <point x="318.382" y="424.599"/>
      <point x="288.663" y="448.734"/>
      <point x="275.8" y="454.997" type="curve" smooth="yes"/>
      <point x="266.232" y="459.655"/>
      <point x="250.215" y="463.798"/>
      <point x="229.349" y="469.055" type="curve" smooth="yes"/>
      <point x="199.564" y="476.561"/>
      <point x="177.997" y="480.756"/>
      <point x="161.307" y="482.064" type="curve" smooth="yes"/>
      <point x="139.558" y="483.732"/>
      <point x="98.7939" y="490.574"/>
      <point x="87.2051" y="493.588" type="curve"/>
      <point x="87.1113" y="499.625"/>
      <point x="86.0908" y="559.129"/>
      <point x="86.0908" y="585.773" type="curve" smooth="yes"/>
      <point x="86.0908" y="645.021"/>
      <point x="89.4307" y="642.225"/>
      <point x="98.3154" y="672.348" type="curve" smooth="yes"/>
      <point x="101.097" y="681.778"/>
      <point x="111.808" y="706.399"/>
      <point x="117.42" y="716.179" type="curve" smooth="yes"/>
      <point x="122.105" y="724.346"/>
      <point x="127.895" y="730.839"/>
      <point x="133.053" y="736.252" type="curve"/>
      <point x="413.141" y="736.364" type="line"/>
      <point x="425.326" y="744.845"/>
      <point x="439.858" y="754.821"/>
      <point x="450.771" y="762.769" type="curve" smooth="yes"/>
      <point x="452.079" y="763.72"/>
      <point x="454.466" y="765.805"/>
      <point x="454.466" y="768.592" type="curve" smooth="yes"/>
      <point x="454.466" y="772.819"/>
      <point x="450.683" y="775.368"/>
      <point x="447.846" y="775.601" type="curve" smooth="yes"/>
      <point x="445.081" y="775.827"/>
      <point x="437.659" y="775.816"/>
      <point x="433.018" y="775.854" type="curve" smooth="yes"/>
      <point x="399.721" y="776.133"/>
      <point x="371.126" y="776.143"/>
      <point x="330.123" y="776.143" type="curve" smooth="yes"/>
      <point x="327.067" y="776.143"/>
      <point x="324.011" y="776.143"/>
      <point x="320.954" y="776.143" type="curve" smooth="yes"/>
      <point x="258.042" y="776.143"/>
      <point x="198.03" y="775.979"/>
      <point x="179.776" y="775.716" type="curve" smooth="yes"/>
      <point x="168.38" y="775.716"/>
      <point x="155.4" y="775.034"/>
      <point x="152.02" y="774.202" type="curve" smooth="yes"/>
      <point x="139.971" y="771.436"/>
      <point x="127.137" y="764.731"/>
      <point x="113.853" y="756.189" type="curve" smooth="yes"/>
      <point x="97.3135" y="745.552"/>
      <point x="81.3789" y="732.74"/>
      <point x="72.6221" y="721.346" type="curve" smooth="yes"/>
      <point x="62.1416" y="707.706"/>
      <point x="48.4814" y="678.203"/>
      <point x="42.0029" y="656.09" type="curve" smooth="yes"/>
      <point x="40.4307" y="650.715"/>
      <point x="38.1074" y="643.633"/>
      <point x="37.0137" y="640.804" type="curve" smooth="yes"/>
      <point x="30.9883" y="625.218"/>
      <point x="30.8887" y="623.144"/>
      <point x="30.4385" y="548.404" type="curve" smooth="yes"/>
      <point x="30.0029" y="476.185" type="line"/>
      <point x="32.959" y="470.099"/>
      <point x="34.9912" y="464.969"/>
      <point x="39.3555" y="461.073" type="curve" smooth="yes"/>
      <point x="42.8359" y="457.966"/>
      <point x="46.4404" y="456.665"/>
      <point x="51.6719" y="454.898" type="curve" smooth="yes"/>
      <point x="61.3398" y="451.635"/>
      <point x="100.912" y="445.558"/>
      <point x="120.089" y="443.955" type="curve" smooth="yes"/>
      <point x="133.545" y="442.83"/>
      <point x="165.131" y="437.317"/>
      <point x="182.885" y="432.718" type="curve" smooth="yes"/>
      <point x="255.519" y="413.901" type="line"/>
      <point x="187.271" y="413.852" type="line" smooth="yes"/>
      <point x="177.634" y="413.852"/>
      <point x="169.405" y="413.914"/>
      <point x="160.531" y="413.914" type="curve" smooth="yes"/>
      <point x="130.314" y="413.914"/>
      <point x="123.321" y="413.28"/>
      <point x="102.263" y="404.217" type="curve" smooth="yes"/>
      <point x="82.0469" y="395.518"/>
      <point x="69.2051" y="387.613"/>
      <point x="55.2168" y="374.203" type="curve" smooth="yes"/>
      <point x="38.6338" y="358.308"/>
      <point x="33.5225" y="348.288"/>
      <point x="27.8291" y="320.239" type="curve" smooth="yes"/>
      <point x="25.2725" y="307.648"/>
      <point x="25.165" y="304.286"/>
      <point x="25.165" y="252.856" type="curve" smooth="yes"/>
      <point x="25.165" y="198.501" type="line"/>
      <point x="31.7217" y="170.907"/>
      <point x="40.3672" y="135.812"/>
      <point x="46.917" y="115.552" type="curve" smooth="yes"/>
      <point x="48.7549" y="109.866"/>
      <point x="51.2207" y="101.292"/>
      <point x="52.3047" y="96.8516" type="curve" smooth="yes"/>
      <point x="58.208" y="72.6562"/>
      <point x="70.8574" y="48.2744"/>
      <point x="82.6982" y="27.7607" type="curve" smooth="yes"/>
      <point x="84.8799" y="23.9814"/>
      <point x="85.5352" y="22.873"/>
      <point x="88.2676" y="20.0566" type="curve" smooth="yes"/>
      <point x="90.1436" y="18.1221"/>
      <point x="89.5" y="17.8145"/>
      <point x="93.5234" y="17.8145" type="curve" smooth="yes"/>
      <point x="95.7441" y="17.8145"/>
      <point x="96.4795" y="18.418"/>
      <point x="97.8652" y="19.1348" type="curve" smooth="yes"/>
      <point x="109.231" y="24.8496"/>
      <point x="124.481" y="33.4248"/>
      <point x="135.522" y="39.792" type="curve" smooth="yes"/>
      <point x="137.212" y="40.6582"/>
      <point x="141.469" y="43.1934"/>
    </contour>
  </outline>
</glyph>
<glyph name="I" format="2">
  <advance width="276"/>
  <unicode hex="0049"/>
  <outline>
    <contour>
      <point x="158.79" y="449.855" type="curve"/>
      <point x="158.79" y="261.708" type="line"/>
      <point x="155.62" y="247.658"/>
      <point x="150.361" y="224.635"/>
      <point x="148.5" y="214.253" type="curve" smooth="yes"/>
      <point x="144.194" y="192.071"/>
      <point x="130.335" y="162.01"/>
      <point x="110.463" y="132.573" type="curve" smooth="yes"/>
      <point x="84.4258" y="92.0986"/>
      <point x="75.0615" y="74.3809"/>
      <point x="68.2363" y="58.0908" type="curve" smooth="yes"/>
      <point x="60.6084" y="37.5947"/>
      <point x="56.4512" y="32.25"/>
      <point x="48.1064" y="24.623" type="curve" smooth="yes"/>
      <point x="44.0146" y="19.376"/>
      <point x="40.8564" y="15.1445"/>
      <point x="39.8008" y="7.33301" type="curve"/>
      <point x="46.501" y="7.31836" type="line" smooth="yes"/>
      <point x="48.0264" y="7.31836"/>
      <point x="49.0869" y="7.3252"/>
      <point x="49.9092" y="7.33398" type="curve" smooth="yes"/>
      <point x="53.2832" y="8.58301"/>
      <point x="65.084" y="13.3262"/>
      <point x="76.4326" y="17.9219" type="curve" smooth="yes"/>
      <point x="94.2246" y="24.4873"/>
      <point x="102.184" y="27.1904"/>
      <point x="111.917" y="36.3223" type="curve" smooth="yes"/>
      <point x="120.84" y="45.126"/>
      <point x="123.581" y="50.1846"/>
      <point x="136.391" y="80.292" type="curve" smooth="yes"/>
      <point x="139.327" y="87.3584"/>
      <point x="155.749" y="115.581"/>
      <point x="176.78" y="148.92" type="curve" smooth="yes"/>
      <point x="187.475" y="165.163"/>
      <point x="203.105" y="194.828"/>
      <point x="207.521" y="207.713" type="curve" smooth="yes"/>
      <point x="212.023" y="221.065"/>
      <point x="218.159" y="250.923"/>
      <point x="221.21" y="263.403" type="curve" smooth="yes"/>
      <point x="225.366" y="279.586"/>
      <point x="225.248" y="277.598"/>
      <point x="225.438" y="334.477" type="curve" smooth="yes"/>
      <point x="225.579" y="377.051"/>
      <point x="225.858" y="425.207"/>
      <point x="226.078" y="468.453" type="curve"/>
      <point x="222.002" y="488.016"/>
      <point x="216.113" y="515.977"/>
      <point x="213.372" y="533.234" type="curve" smooth="yes"/>
      <point x="210.548" y="550.934"/>
      <point x="200.884" y="583.619"/>
      <point x="192.943" y="602.628" type="curve" smooth="yes"/>
      <point x="190.555" y="608.602"/>
      <point x="186.926" y="618.699"/>
      <point x="185.005" y="624.719" type="curve" smooth="yes"/>
      <point x="179.6" y="640.81"/>
      <point x="159.364" y="677.325"/>
      <point x="145.532" y="696.481" type="curve" smooth="yes"/>
      <point x="131.669" y="716.764"/>
      <point x="104.549" y="759.928"/>
      <point x="97.5508" y="772.686" type="curve"/>
      <point x="89.7041" y="781.809" type="line"/>
      <point x="78.4014" y="789.103"/>
      <point x="67.5029" y="792.521"/>
      <point x="56.7988" y="792.521" type="curve" smooth="yes"/>
      <point x="47.0654" y="792.521"/>
      <point x="37.1738" y="789.684"/>
      <point x="26.9629" y="783.664" type="curve"/>
      <point x="26.9629" y="746.227" type="line"/>
      <point x="41.3838" y="722.809"/>
      <point x="74.3779" y="671.639"/>
      <point x="92.2529" y="645.814" type="curve" smooth="yes"/>
      <point x="98.375" y="637.119"/>
      <point x="118.838" y="596.198"/>
      <point x="124.146" y="581.684" type="curve" smooth="yes"/>
      <point x="138.802" y="541.647"/>
      <point x="145.106" y="520.357"/>
      <point x="147.896" y="502.159" type="curve" smooth="yes"/>
      <point x="150.162" y="486.96"/>
      <point x="155.108" y="465.639"/>
    </contour>
  </outline>
</glyph>
<glyph name="M" format="2">
  <advance width="1134"/>
  <unicode hex="004D"/>
  <outline>
    <contour>
      <point x="14.0088" y="382.169" type="line" smooth="yes"/>
      <point x="14.0088" y="379.15"/>
      <point x="14.0088" y="376.131"/>
      <point x="14.0088" y="373.112" type="curve" smooth="yes"/>
      <point x="14.0088" y="366.994"/>
      <point x="14" y="360.924"/>
      <point x="14" y="354.919" type="curve" smooth="yes"/>
      <point x="14" y="316.128"/>
      <point x="15.2725" y="309.036"/>
      <point x="17.0342" y="276.181" type="curve" smooth="yes"/>
      <point x="17.3828" y="269.693"/>
      <point x="17.7158" y="263.489"/>
      <point x="18.0225" y="258.551" type="curve" smooth="yes"/>
      <point x="19.043" y="236.261"/>
      <point x="21.4951" y="222.925"/>
      <point x="24.1875" y="209.406" type="curve" smooth="yes"/>
      <point x="26.1387" y="199.609"/>
      <point x="29.0918" y="181.917"/>
      <point x="31.0811" y="169.983" type="curve" smooth="yes"/>
      <point x="31.1016" y="169.825" type="line" smooth="yes"/>
      <point x="34.1465" y="145.611"/>
      <point x="38.3398" y="129.869"/>
      <point x="45.3369" y="107.878" type="curve" smooth="yes"/>
      <point x="58.3936" y="66.7002"/>
      <point x="66.625" y="48.127"/>
      <point x="76.6328" y="26.1094" type="curve" smooth="yes"/>
      <point x="85.1162" y="7.44531"/>
      <point x="89.8369" y="-0.793945"/>
      <point x="97.2871" y="-7.17383" type="curve" smooth="yes"/>
      <point x="99.6514" y="-9.48145"/>
      <point x="101.791" y="-11.0713"/>
      <point x="104.271" y="-12.5264" type="curve" smooth="yes"/>
      <point x="106.234" y="-13.6797"/>
      <point x="106.634" y="-14.2061"/>
      <point x="109.997" y="-14.252" type="curve" smooth="yes"/>
      <point x="111.355" y="-14.0479"/>
      <point x="114.7" y="-12.9502"/>
      <point x="115.337" y="-12.5469" type="curve" smooth="yes"/>
      <point x="121.419" y="-8.68945"/>
      <point x="141.615" y="4.69238"/>
      <point x="153.709" y="12.6846" type="curve" smooth="yes"/>
      <point x="159.006" y="16.1846"/>
      <point x="162.894" y="18.7646"/>
      <point x="167.026" y="22.1719" type="curve" smooth="yes"/>
      <point x="169.749" y="24.418"/>
      <point x="170.114" y="23.9873"/>
      <point x="170.114" y="28" type="curve" smooth="yes"/>
      <point x="170.114" y="33.5654"/>
      <point x="166.136" y="36.5986"/>
      <point x="160.484" y="38.1592" type="curve"/>
      <point x="156.488" y="42.1494"/>
      <point x="152.841" y="46.2568"/>
      <point x="146.643" y="58.5557" type="curve" smooth="yes"/>
      <point x="139.465" y="72.7959"/>
      <point x="130.935" y="94.1299"/>
      <point x="120.722" y="123.239" type="curve" smooth="yes"/>
      <point x="106.306" y="167.27"/>
      <point x="104.568" y="175.072"/>
      <point x="98.3408" y="217.01" type="curve" smooth="yes"/>
      <point x="96.7998" y="227.388"/>
      <point x="94.8203" y="240.527"/>
      <point x="92.8018" y="248.709" type="curve" smooth="yes"/>
      <point x="90.8809" y="257.396"/>
      <point x="89.0088" y="268.829"/>
      <point x="89.0088" y="280" type="curve" smooth="yes"/>
      <point x="89.0088" y="290.584"/>
      <point x="88.25" y="307.778"/>
      <point x="86.9717" y="318.736" type="curve" smooth="yes"/>
      <point x="85.5488" y="331.537"/>
      <point x="84.7588" y="363.901"/>
      <point x="84.7588" y="394.875" type="curve" smooth="yes"/>
      <point x="84.7588" y="425.848"/>
      <point x="85.6133" y="456.036"/>
      <point x="86.9141" y="463.842" type="curve" smooth="yes"/>
      <point x="88.0264" y="470.52"/>
      <point x="91.0723" y="479.472"/>
      <point x="97.2744" y="491.877" type="curve" smooth="yes"/>
      <point x="102.48" y="502.288"/>
      <point x="110.383" y="521.096"/>
      <point x="115.439" y="533.231" type="curve" smooth="yes"/>
      <point x="133.692" y="571.622"/>
      <point x="164.017" y="622.068"/>
      <point x="180.38" y="640.287" type="curve" smooth="yes"/>
      <point x="185.201" y="645.051"/>
      <point x="188.163" y="648.32"/>
      <point x="191.418" y="651.927" type="curve"/>
      <point x="215.899" y="658.368"/>
      <point x="221.736" y="659.098"/>
      <point x="260.885" y="659.559" type="curve" smooth="yes"/>
      <point x="280.141" y="659.786"/>
      <point x="313.326" y="660.368"/>
      <point x="328.99" y="660.368" type="curve" smooth="yes"/>
      <point x="349.671" y="660.368"/>
      <point x="359.164" y="659.542"/>
      <point x="366.091" y="657.277" type="curve" smooth="yes"/>
      <point x="371.452" y="655.526"/>
      <point x="376.368" y="652.707"/>
      <point x="384.029" y="647.267" type="curve" smooth="yes"/>
      <point x="395.53" y="639.103"/>
      <point x="445.596" y="593.85"/>
      <point x="456.341" y="579.043" type="curve" smooth="yes"/>
      <point x="471.836" y="558.071"/>
      <point x="476.456" y="543.689"/>
      <point x="478.429" y="516.515" type="curve" smooth="yes"/>
      <point x="479.019" y="509.518"/>
      <point x="479.576" y="503.565"/>
      <point x="480.186" y="498.988" type="curve" smooth="yes"/>
      <point x="480.727" y="494.935"/>
      <point x="481.064" y="493.543"/>
      <point x="482.044" y="491.021" type="curve" smooth="yes"/>
      <point x="482.605" y="483.016"/>
      <point x="482.934" y="473.078"/>
      <point x="483.488" y="464.814" type="curve" smooth="yes"/>
      <point x="483.497" y="464.669" type="line"/>
      <point x="483.497" y="464.523" type="line"/>
      <point x="484.541" y="431.398"/>
      <point x="489.157" y="415.259"/>
      <point x="501.438" y="390.074" type="curve" smooth="yes"/>
      <point x="507.172" y="378.313"/>
      <point x="510.318" y="372.544"/>
      <point x="519.994" y="367.783" type="curve" smooth="yes"/>
      <point x="524.251" y="365.688"/>
      <point x="530.648" y="363.625"/>
      <point x="538.386" y="363.625" type="curve" smooth="yes"/>
      <point x="539.864" y="363.625"/>
      <point x="541.45" y="363.663"/>
      <point x="543.198" y="363.736" type="curve" smooth="yes"/>
      <point x="546.255" y="369.688"/>
      <point x="550.584" y="375.25"/>
      <point x="558.094" y="375.25" type="curve" smooth="yes"/>
      <point x="564.276" y="375.25"/>
      <point x="568.301" y="371.481"/>
      <point x="571.237" y="366.83" type="curve"/>
      <point x="590.001" y="376.904" type="line" smooth="yes"/>
      <point x="613.662" y="389.657"/>
      <point x="626.584" y="396.928"/>
      <point x="636.099" y="409.43" type="curve" smooth="yes"/>
      <point x="643.654" y="419.357"/>
      <point x="648.006" y="431.089"/>
      <point x="654.364" y="449.865" type="curve" smooth="yes"/>
      <point x="658.053" y="460.758"/>
      <point x="664.337" y="480.365"/>
      <point x="667.486" y="488.63" type="curve" smooth="yes"/>
      <point x="670.711" y="497.097"/>
      <point x="674.719" y="508.58"/>
      <point x="675.956" y="515.887" type="curve" smooth="yes"/>
      <point x="676.913" y="521.538"/>
      <point x="679.95" y="535.505"/>
      <point x="682.92" y="546.224" type="curve" smooth="yes"/>
      <point x="687.995" y="564.203"/>
      <point x="689.254" y="571.875"/>
      <point x="690.269" y="597.75" type="curve" smooth="yes"/>
      <point x="693.768" y="653.575"/>
      <point x="698.462" y="684.016"/>
      <point x="707.005" y="704" type="curve"/>
      <point x="721.652" y="712"/>
      <point x="736.299" y="712"/>
      <point x="750.947" y="704" type="curve" smooth="yes"/>
      <point x="766.317" y="703.69"/>
      <point x="781.686" y="703.381"/>
      <point x="797.055" y="703.071" type="curve"/>
      <point x="812.05" y="697.235"/>
      <point x="831.907" y="689.44"/>
      <point x="846.561" y="685.977" type="curve" smooth="yes"/>
      <point x="854.734" y="684.046"/>
      <point x="859.439" y="682.037"/>
      <point x="865.697" y="680.262" type="curve"/>
      <point x="878.718" y="674.091"/>
      <point x="929.477" y="644.533"/>
      <point x="936.352" y="640.101" type="curve" smooth="yes"/>
      <point x="939.681" y="637.356"/>
      <point x="949.03" y="628.001"/>
      <point x="959.885" y="615.966" type="curve" smooth="yes"/>
      <point x="973.547" y="600.819"/>
      <point x="989.357" y="582.143"/>
      <point x="998.861" y="569.621" type="curve" smooth="yes"/>
      <point x="1012.98" y="550.607"/>
      <point x="1015.51" y="545.703"/>
      <point x="1021.37" y="529.762" type="curve" smooth="yes"/>
      <point x="1029.72" y="507.059"/>
      <point x="1033.01" y="492.992"/>
      <point x="1038.06" y="454.212" type="curve" smooth="yes"/>
      <point x="1040.53" y="434.282"/>
      <point x="1041.76" y="414.381"/>
      <point x="1041.76" y="395.436" type="curve" smooth="yes"/>
      <point x="1041.76" y="376.486"/>
      <point x="1040.52" y="358.524"/>
      <point x="1038.08" y="342.553" type="curve" smooth="yes"/>
      <point x="1036.08" y="329.096"/>
      <point x="1033.09" y="307.242"/>
      <point x="1032.05" y="293.426" type="curve" smooth="yes"/>
      <point x="1031.67" y="287.465"/>
      <point x="1030.66" y="281.316"/>
      <point x="1029.98" y="275.176" type="curve" smooth="yes"/>
      <point x="1028.2" y="259.074"/>
      <point x="1026.42" y="242.989"/>
      <point x="1024.11" y="230.372" type="curve" smooth="yes"/>
      <point x="1022.24" y="220.218"/>
      <point x="1020.06" y="205.953"/>
      <point x="1019.03" y="195.273" type="curve" smooth="yes"/>
      <point x="1015.1" y="162.384"/>
      <point x="1008.42" y="142.227"/>
      <point x="992.073" y="110.864" type="curve" smooth="yes"/>
      <point x="985.848" y="99.1621"/>
      <point x="970.988" y="86.5742"/>
      <point x="951.523" y="76.4326" type="curve" smooth="yes"/>
      <point x="922.591" y="62.7275"/>
      <point x="903.423" y="48.6787"/>
      <point x="883.906" y="31.2109" type="curve" smooth="yes"/>
      <point x="843.926" y="-6.57422" type="line"/>
      <point x="863.027" y="0.945312"/>
      <point x="880.981" y="8.52246"/>
      <point x="901.064" y="15.1064" type="curve" smooth="yes"/>
      <point x="912.382" y="18.8164"/>
      <point x="924.209" y="22.8008"/>
      <point x="931.286" y="26.8115" type="curve" smooth="yes"/>
      <point x="937.427" y="30.292"/>
      <point x="944.485" y="36.6465"/>
      <point x="951.856" y="43.1729" type="curve" smooth="yes"/>
      <point x="962.751" y="52.8184"/>
      <point x="968.619" y="57.8096"/>
      <point x="983.124" y="64.6914" type="curve" smooth="yes"/>
      <point x="1008.99" y="78.0146"/>
      <point x="1024.34" y="88.2393"/>
      <point x="1040.18" y="102.383" type="curve"/>
      <point x="1041.7" y="102.342"/>
      <point x="1043.1" y="102.275"/>
      <point x="1044.65" y="102.275" type="curve" smooth="yes"/>
      <point x="1056.76" y="102.275"/>
      <point x="1062.56" y="111.604"/>
      <point x="1069.9" y="148.038" type="curve" smooth="yes"/>
      <point x="1071.99" y="157.724"/>
      <point x="1074.84" y="166.407"/>
      <point x="1077.92" y="175.722" type="curve" smooth="yes"/>
      <point x="1083.32" y="192.104"/>
      <point x="1089.32" y="210.509"/>
      <point x="1091.96" y="237.874" type="curve" smooth="yes"/>
      <point x="1095.37" y="257.135"/>
      <point x="1097.99" y="269.298"/>
      <point x="1099.97" y="293.718" type="curve" smooth="yes"/>
      <point x="1099.98" y="293.821"/>
      <point x="1099.99" y="293.922"/>
      <point x="1100" y="294.02" type="curve" smooth="yes"/>
      <point x="1103.96" y="327.257"/>
      <point x="1106.98" y="337.15"/>
      <point x="1109.99" y="375.716" type="curve" smooth="yes"/>
      <point x="1110.95" y="390.455"/>
      <point x="1112.28" y="398.018"/>
      <point x="1112.28" y="415.858" type="curve" smooth="yes"/>
      <point x="1112.28" y="458.04"/>
      <point x="1109.39" y="487.385"/>
      <point x="1102.9" y="520.705" type="curve" smooth="yes"/>
      <point x="1098.7" y="540.917"/>
      <point x="1089.03" y="572.081"/>
      <point x="1081.24" y="585.992" type="curve" smooth="yes"/>
      <point x="1072.29" y="602.132"/>
      <point x="1022.12" y="663.451"/>
      <point x="1004.07" y="680.817" type="curve" smooth="yes"/>
      <point x="1000.05" y="684.687"/>
      <point x="990.377" y="690.604"/>
      <point x="978.011" y="697.997" type="curve" smooth="yes"/>
      <point x="962.487" y="707.279"/>
      <point x="943.389" y="718.038"/>
      <point x="929.559" y="725.144" type="curve" smooth="yes"/>
      <point x="923.364" y="728.625"/>
      <point x="912.833" y="733.182"/>
      <point x="904.5" y="735.437" type="curve" smooth="yes"/>
      <point x="897.386" y="737.36"/>
      <point x="883.4" y="741.188"/>
      <point x="875.034" y="744.708" type="curve" smooth="yes"/>
      <point x="848.109" y="756.04"/>
      <point x="840.203" y="756.003"/>
      <point x="798.862" y="756.003" type="curve" smooth="yes"/>
      <point x="787.53" y="756.003" type="line" smooth="yes"/>
      <point x="769.501" y="756.003"/>
      <point x="754.471" y="755.57"/>
      <point x="741.037" y="755.083" type="curve" smooth="yes"/>
      <point x="734.019" y="754.828"/>
      <point x="730.484" y="754.485"/>
      <point x="726.832" y="753.806" type="curve" smooth="yes"/>
      <point x="713.775" y="751.374"/>
      <point x="699.051" y="743.78"/>
      <point x="679.575" y="730.669" type="curve" smooth="yes"/>
      <point x="657.73" y="715.303"/>
      <point x="642.541" y="700.855"/>
      <point x="635.497" y="685.833" type="curve" smooth="yes"/>
      <point x="625.403" y="664.858"/>
      <point x="619.65" y="625.771"/>
      <point x="617.599" y="572.257" type="curve" smooth="yes"/>
      <point x="616.592" y="548.487"/>
      <point x="615.745" y="543.555"/>
      <point x="609.667" y="519.627" type="curve" smooth="yes"/>
      <point x="601.613" y="489.893"/>
      <point x="597.194" y="471.791"/>
      <point x="582.638" y="432.217" type="curve" smooth="yes"/>
      <point x="576.16" y="414.603" type="line"/>
      <point x="570.766" y="426.093"/>
      <point x="566.551" y="433.95"/>
      <point x="561.889" y="447.209" type="curve" smooth="yes"/>
      <point x="557.634" y="458.933"/>
      <point x="556.84" y="467.478"/>
      <point x="556.229" y="488.687" type="curve" smooth="yes"/>
      <point x="555.899" y="500.155"/>
      <point x="555.147" y="516.282"/>
      <point x="553.561" y="525.106" type="curve" smooth="yes"/>
      <point x="552.906" y="528.754"/>
      <point x="551.756" y="535.175"/>
      <point x="551.062" y="542.631" type="curve" smooth="yes"/>
      <point x="547.415" y="591.38"/>
      <point x="533.243" y="611.464"/>
      <point x="503.384" y="641.772" type="curve" smooth="yes"/>
      <point x="464.55" y="681.005"/>
      <point x="437.975" y="702.854"/>
      <point x="414.841" y="709.686" type="curve" smooth="yes"/>
      <point x="407.006" y="711.999"/>
      <point x="401.014" y="713.375"/>
      <point x="374.79" y="713.375" type="curve" smooth="yes"/>
      <point x="345.337" y="713.375"/>
      <point x="307.167" y="712.492"/>
      <point x="275.69" y="711.987" type="curve"/>
      <point x="249.611" y="706.854" type="line" smooth="yes"/>
      <point x="211.994" y="699.449"/>
      <point x="199.942" y="693.603"/>
      <point x="159.625" y="667.807" type="curve" smooth="yes"/>
      <point x="134.655" y="651.421"/>
      <point x="116.847" y="634.78"/>
      <point x="101.308" y="613.062" type="curve" smooth="yes"/>
      <point x="88.374" y="595.746"/>
      <point x="56.0205" y="537.752"/>
      <point x="46.623" y="516.867" type="curve" smooth="yes"/>
      <point x="42.2188" y="507.083"/>
      <point x="34.3857" y="490.328"/>
      <point x="29.6279" y="479.883" type="curve" smooth="yes"/>
      <point x="14.752" y="449.057"/>
      <point x="14.9189" y="440.495"/>
      <point x="14.1377" y="390.188" type="curve" smooth="yes"/>
      <point x="14.1016" y="387.877"/>
      <point x="14.0645" y="385.48"/>
      <point x="14.0244" y="382.994" type="curve" smooth="yes"/>
    </contour>
  </outline>
</glyph>
<glyph name="N" format="2">
  <advance width="978"/>
  <unicode hex="004E"/>
  <outline>
    <contour>
      <point x="911.022" y="798.672" type="curve" smooth="yes"/>
      <point x="911.022" y="799.405"/>
      <point x="911.141" y="799.69"/>
      <point x="911.141" y="799.953" type="curve" smooth="yes"/>
      <point x="911.141" y="801.916"/>
      <point x="906.171" y="806"/>
      <point x="903.033" y="806" type="curve" smooth="yes"/>
      <point x="900.81" y="806"/>
      <point x="900.05" y="805.465"/>
      <point x="898.44" y="804.8" type="curve" smooth="yes"/>
      <point x="885.555" y="799.466"/>
      <point x="861.95" y="786.792"/>
      <point x="849.399" y="779.413" type="curve" smooth="yes"/>
      <point x="846.331" y="777.642"/>
      <point x="844.542" y="776.59"/>
      <point x="842.769" y="775.209" type="curve" smooth="yes"/>
      <point x="840.118" y="773.143"/>
      <point x="839.29" y="772.586"/>
      <point x="839.29" y="769" type="curve" smooth="yes"/>
      <point x="839.29" y="766.201"/>
      <point x="840.314" y="762.704"/>
      <point x="841.364" y="758.929" type="curve" smooth="yes"/>
      <point x="850.403" y="726.906"/>
      <point x="867.13" y="682.209"/>
      <point x="881.513" y="645.453" type="curve" smooth="yes"/>
      <point x="893.758" y="614.369"/>
      <point x="894.034" y="610.569"/>
      <point x="894.034" y="490.604" type="curve" smooth="yes"/>
      <point x="894.034" y="481.999" type="line" smooth="yes"/>
      <point x="894.034" y="423.206"/>
      <point x="892.979" y="366.797"/>
      <point x="892.068" y="357.703" type="curve" smooth="yes"/>
      <point x="891.028" y="347.304"/>
      <point x="889.453" y="323.537"/>
      <point x="889.039" y="308.287" type="curve" smooth="yes"/>
      <point x="888.051" y="278.65"/>
      <point x="885.127" y="257.225"/>
      <point x="879.227" y="232.637" type="curve" smooth="yes"/>
      <point x="878.065" y="227.8"/>
      <point x="877.17" y="218.595"/>
      <point x="876.102" y="213.046" type="curve" smooth="yes"/>
      <point x="875.007" y="202.769"/>
      <point x="869.148" y="170.388"/>
      <point x="864.233" y="151.672" type="curve" smooth="yes"/>
      <point x="858.508" y="127.231"/>
      <point x="839.635" y="98.2091"/>
      <point x="812.48" y="67.4697" type="curve" smooth="yes"/>
      <point x="812.48" y="67.4697"/>
      <point x="798.125" y="51.8311"/>
      <point x="778.174" y="45.6494" type="curve" smooth="yes"/>
      <point x="773.755" y="44.3164"/>
      <point x="762.25" y="43.4531"/>
      <point x="748.163" y="43.4531" type="curve" smooth="yes"/>
      <point x="730.293" y="43.4531"/>
      <point x="709.987" y="45.0195"/>
      <point x="698.249" y="46.8916" type="curve" smooth="yes"/>
      <point x="680.72" y="49.7568"/>
      <point x="663.929" y="55.5898"/>
      <point x="654.516" y="60.207" type="curve" smooth="yes"/>
      <point x="646.721" y="64.0322"/>
      <point x="640.303" y="71.3496"/>
      <point x="625.009" y="98.3496" type="curve" smooth="yes"/>
      <point x="612.16" y="119.706"/>
      <point x="604.243" y="139.969"/>
      <point x="597.203" y="166.543" type="curve" smooth="yes"/>
      <point x="594.039" y="180.957"/>
      <point x="588.738" y="198.471"/>
      <point x="585.817" y="208.15" type="curve" smooth="yes"/>
      <point x="583.025" y="217.403"/>
      <point x="581.019" y="230.932"/>
      <point x="580.029" y="241.611" type="curve" smooth="yes"/>
      <point x="579" y="251.715"/>
      <point x="576.976" y="270.823"/>
      <point x="573.792" y="285.404" type="curve" smooth="yes"/>
      <point x="568.297" y="310.562"/>
      <point x="566.746" y="332.817"/>
      <point x="562.605" y="357.301" type="curve" smooth="yes"/>
      <point x="554.78" y="390.929"/>
      <point x="554.578" y="399.182"/>
      <point x="554.578" y="481.646" type="curve" smooth="yes"/>
      <point x="554.578" y="489" type="line" smooth="yes"/>
      <point x="554.578" y="583.332"/>
      <point x="554.321" y="586.848"/>
      <point x="541.998" y="623.118" type="curve" smooth="yes"/>
      <point x="532.484" y="650.094"/>
      <point x="512.065" y="695.628"/>
      <point x="500.282" y="710.946" type="curve" smooth="yes"/>
      <point x="495.21" y="718.27"/>
      <point x="484.392" y="729.661"/>
      <point x="473.956" y="739.905" type="curve" smooth="yes"/>
      <point x="455.726" y="756.788"/>
      <point x="443.638" y="764.777"/>
      <point x="430.635" y="768.536" type="curve" smooth="yes"/>
      <point x="428.671" y="769.356"/>
      <point x="425.026" y="769.404"/>
      <point x="421.267" y="769.576" type="curve" smooth="yes"/>
      <point x="392.851" y="770.881"/>
      <point x="367.233" y="771.007"/>
      <point x="333.211" y="771.007" type="curve" smooth="yes"/>
      <point x="324.739" y="771.007"/>
      <point x="316.314" y="771"/>
      <point x="307.606" y="771" type="curve" smooth="yes"/>
      <point x="300.462" y="771" type="line" smooth="yes"/>
      <point x="183.855" y="771"/>
      <point x="180.848" y="770.812"/>
      <point x="159.813" y="760.399" type="curve" smooth="yes"/>
      <point x="139.044" y="750.118"/>
      <point x="106.332" y="730.138"/>
      <point x="94.1699" y="718.034" type="curve" smooth="yes"/>
      <point x="64.3584" y="689.222"/>
      <point x="38.8682" y="649.557"/>
      <point x="26.3887" y="612.207" type="curve" smooth="yes"/>
      <point x="15.2246" y="580.723"/>
      <point x="15.0332" y="573.255"/>
      <point x="15.0332" y="488" type="curve" smooth="yes"/>
      <point x="15" y="449.694" type="line" smooth="yes"/>
      <point x="15" y="423.862"/>
      <point x="15.2783" y="402.785"/>
      <point x="16.1045" y="397.002" type="curve" smooth="yes"/>
      <point x="17.1152" y="389.922"/>
      <point x="18.2314" y="371.502"/>
      <point x="19.0625" y="362.359" type="curve" smooth="yes"/>
      <point x="21.4307" y="336.304"/>
      <point x="28.0117" y="311.183"/>
      <point x="32.5625" y="287.659" type="curve" smooth="yes"/>
      <point x="36.3008" y="268.337"/>
      <point x="39.2285" y="253.177"/>
      <point x="48.3877" y="226.797" type="curve" smooth="yes"/>
      <point x="53.1143" y="211.839"/>
      <point x="57.3926" y="200.086"/>
      <point x="61.6631" y="187.082" type="curve" smooth="yes"/>
      <point x="64.8691" y="177.321"/>
      <point x="66.9971" y="170.774"/>
      <point x="73.6602" y="156.101" type="curve" smooth="yes"/>
      <point x="89.458" y="119.539"/>
      <point x="100.156" y="82.2383"/>
      <point x="103.1" y="57.0186" type="curve" smooth="yes"/>
      <point x="104.713" y="47.3564"/>
      <point x="105.196" y="45.8369"/>
      <point x="106.502" y="41" type="curve"/>
      <point x="112.033" y="41" type="line" smooth="yes"/>
      <point x="114.115" y="41"/>
      <point x="114.884" y="41.5469"/>
      <point x="116.353" y="42.2178" type="curve" smooth="yes"/>
      <point x="133.693" y="49.9482"/>
      <point x="156.82" y="60.9141"/>
      <point x="172.314" y="69.6738" type="curve" smooth="yes"/>
      <point x="173.605" y="70.4043"/>
      <point x="174.679" y="71.4512"/>
      <point x="175.775" y="72.5254" type="curve"/>
      <point x="175.203" y="73.0732"/>
      <point x="174.997" y="73.6885"/>
      <point x="174.997" y="74.291" type="curve" smooth="yes"/>
      <point x="174.997" y="75.8271"/>
      <point x="176.338" y="77.2754"/>
      <point x="176.338" y="77.2754" type="curve" smooth="yes"/>
      <point x="175.107" y="83.8867"/>
      <point x="173.746" y="91.5371"/>
      <point x="172.275" y="100.21" type="curve" smooth="yes"/>
      <point x="167.014" y="125.949"/>
      <point x="155.834" y="161.945"/>
      <point x="145.319" y="185.675" type="curve" smooth="yes"/>
      <point x="139.393" y="199.239"/>
      <point x="121.743" y="245.305"/>
      <point x="110.735" y="281.028" type="curve" smooth="yes"/>
      <point x="108.27" y="289.096"/>
      <point x="104.984" y="305.877"/>
      <point x="102.938" y="318.158" type="curve" smooth="yes"/>
      <point x="100.855" y="330.655"/>
      <point x="96.8564" y="346.604"/>
      <point x="94.7656" y="353.924" type="curve" smooth="yes"/>
      <point x="93.1064" y="359.733"/>
      <point x="91.7754" y="377.78"/>
      <point x="90.9141" y="389.066" type="curve" smooth="yes"/>
      <point x="90.0625" y="400.243"/>
      <point x="89.0361" y="413.49"/>
      <point x="87.9639" y="420.997" type="curve" smooth="yes"/>
      <point x="87.1387" y="426.766"/>
      <point x="86.0332" y="468.23"/>
      <point x="86.0332" y="512" type="curve" smooth="yes"/>
      <point x="86.0332" y="584.256"/>
      <point x="86.1133" y="592.502"/>
      <point x="88.874" y="604.504" type="curve" smooth="yes"/>
      <point x="96.7148" y="642.631"/>
      <point x="116.531" y="678.488"/>
      <point x="148.83" y="716.227" type="curve" smooth="yes"/>
      <point x="151.173" y="719" type="line"/>
      <point x="373.995" y="719" type="line"/>
      <point x="376.838" y="717.663"/>
      <point x="379.681" y="716.325"/>
      <point x="382.524" y="714.988" type="curve" smooth="yes"/>
      <point x="397.07" y="708.146"/>
      <point x="422.082" y="686.714"/>
      <point x="434.792" y="669.284" type="curve" smooth="yes"/>
      <point x="442.274" y="658.651"/>
      <point x="462.731" y="617.395"/>
      <point x="469.591" y="596.187" type="curve" smooth="yes"/>
      <point x="479.689" y="565.964"/>
      <point x="480.54" y="566.051"/>
      <point x="480.54" y="495.008" type="curve" smooth="yes"/>
      <point x="480.54" y="476.095" type="line" smooth="yes"/>
      <point x="480.54" y="366.104"/>
      <point x="482.552" y="396.968"/>
      <point x="492.691" y="325.824" type="curve" smooth="yes"/>
      <point x="494.929" y="310.113"/>
      <point x="497.166" y="294.462"/>
      <point x="501.057" y="277.381" type="curve" smooth="yes"/>
      <point x="504.01" y="264.415"/>
      <point x="506.051" y="246.333"/>
      <point x="507.067" y="236.784" type="curve" smooth="yes"/>
      <point x="509.077" y="216.923"/>
      <point x="509.406" y="215.317"/>
      <point x="516.435" y="191.702" type="curve" smooth="yes"/>
      <point x="527.639" y="153.376" type="line" smooth="yes"/>
      <point x="534.585" y="129.958"/>
      <point x="545.601" y="104.983"/>
      <point x="557.144" y="84.6816" type="curve" smooth="yes"/>
      <point x="566.455" y="68.3057"/>
      <point x="575.622" y="55.3037"/>
      <point x="584.738" y="47.7373" type="curve" smooth="yes"/>
      <point x="592.113" y="41.6152"/>
      <point x="599.465" y="37.6477"/>
      <point x="616.808" y="31.9727" type="curve" smooth="yes"/>
      <point x="641.164" y="24.0029"/>
      <point x="662.955" y="17.3867"/>
      <point x="694" y="16" type="curve" smooth="yes"/>
      <point x="729.76" y="14.4023"/>
      <point x="737.159" y="10.543"/>
      <point x="766.085" y="14" type="curve" smooth="yes"/>
      <point x="808.025" y="19.0117"/>
      <point x="840.157" y="40.6935"/>
      <point x="857.723" y="65.4395" type="curve" smooth="yes"/>
      <point x="867.684" y="79.4736"/>
      <point x="887.831" y="106.843"/>
      <point x="901.805" y="131.635" type="curve" smooth="yes"/>
      <point x="913.543" y="152.461"/>
      <point x="928.464" y="173.789"/>
      <point x="932.854" y="192.554" type="curve" smooth="yes"/>
      <point x="940.266" y="219.78"/>
      <point x="946.063" y="254.265"/>
      <point x="951.223" y="280.382" type="curve" smooth="yes"/>
      <point x="952.608" y="287.394"/>
      <point x="954.048" y="294.687"/>
      <point x="954.949" y="299.874" type="curve" smooth="yes"/>
      <point x="961.091" y="332.462"/>
      <point x="963.034" y="374.118"/>
      <point x="964.033" y="507.837" type="curve" smooth="yes"/>
      <point x="964.25" y="537.955"/>
      <point x="964.421" y="561.66"/>
      <point x="964.421" y="580.688" type="curve" smooth="yes"/>
      <point x="964.421" y="653.307"/>
      <point x="961.232" y="658.658"/>
      <point x="949.661" y="689.546" type="curve" smooth="yes"/>
      <point x="945.869" y="699.668"/>
      <point x="943.254" y="704.929"/>
      <point x="941.663" y="708.308" type="curve" smooth="yes"/>
      <point x="935.98" y="720.376"/>
      <point x="924.825" y="753.757"/>
      <point x="921.818" y="764.614" type="curve" smooth="yes"/>
      <point x="918.799" y="775.517"/>
      <point x="914.654" y="785.887"/>
      <point x="911.067" y="795.066" type="curve" smooth="yes"/>
      <point x="911.047" y="795.911"/>
      <point x="911.021" y="796.913"/>
      <point x="911.021" y="797.741" type="curve" smooth="yes"/>
      <point x="911.021" y="798.063"/>
      <point x="911.022" y="798.369"/>
    </contour>
  </outline>
</glyph>
<glyph name="asciicircum" format="2">
  <advance width="416"/>
  <unicode hex="005E"/>
  <outline>
    <contour>
      <point x="326.346" y="476.895" type="curve" smooth="yes"/>
      <point x="326.346" y="472.415"/>
      <point x="324.638" y="467.935"/>
      <point x="321.223" y="464.52" type="curve" smooth="yes"/>
      <point x="317.809" y="461.105"/>
      <point x="313.328" y="459.397"/>
      <point x="308.849" y="459.397" type="curve" smooth="yes"/>
      <point x="302.308" y="459.397"/>
      <point x="296.098" y="463.489"/>
      <point x="293.328" y="468.802" type="curve" smooth="yes"/>
      <point x="279.744" y="494.861"/>
      <point x="274.345" y="523.412"/>
      <point x="269.326" y="548.753" type="curve" smooth="yes"/>
      <point x="265.907" y="566.022"/>
      <point x="262.673" y="581.881"/>
      <point x="258.16" y="594.324" type="curve" smooth="yes"/>
      <point x="254.537" y="604.315"/>
      <point x="250.199" y="611.821"/>
      <point x="245.156" y="616.864" type="curve" smooth="yes"/>
      <point x="238.795" y="623.226"/>
      <point x="229.19" y="627.646"/>
      <point x="214.174" y="627.646" type="curve" smooth="yes"/>
      <point x="200.57" y="627.646"/>
      <point x="192.165" y="623.148"/>
      <point x="184.382" y="615.365" type="curve" smooth="yes"/>
      <point x="172.736" y="603.72"/>
      <point x="163.073" y="582.104"/>
      <point x="152.543" y="556.685" type="curve" smooth="yes"/>
      <point x="142.454" y="532.331"/>
      <point x="131.358" y="504.915"/>
      <point x="112.526" y="481.375" type="curve" smooth="yes"/>
      <point x="109.317" y="477.364"/>
      <point x="104.038" y="474.798"/>
      <point x="98.8486" y="474.798" type="curve" smooth="yes"/>
      <point x="94.3691" y="474.798"/>
      <point x="89.8887" y="476.505"/>
      <point x="86.4746" y="479.92" type="curve" smooth="yes"/>
      <point x="83.0596" y="483.334"/>
      <point x="81.3525" y="487.814"/>
      <point x="81.3525" y="492.294" type="curve" smooth="yes"/>
      <point x="81.3525" y="496.163"/>
      <point x="82.625" y="500.03"/>
      <point x="85.1709" y="503.213" type="curve" smooth="yes"/>
      <point x="99.8301" y="521.537"/>
      <point x="110.097" y="545.688"/>
      <point x="120.213" y="570.107" type="curve" smooth="yes"/>
      <point x="137.241" y="611.21"/>
      <point x="157.002" y="662.604"/>
      <point x="214.992" y="662.604" type="curve" smooth="yes"/>
      <point x="238.77" y="662.604"/>
      <point x="256.846" y="654.672"/>
      <point x="269.905" y="641.613" type="curve" smooth="yes"/>
      <point x="290.766" y="620.752"/>
      <point x="297.035" y="588.995"/>
      <point x="303.65" y="555.591" type="curve" smooth="yes"/>
      <point x="308.684" y="530.17"/>
      <point x="313.915" y="505.041"/>
      <point x="324.369" y="484.986" type="curve" smooth="yes"/>
      <point x="325.687" y="482.459"/>
      <point x="326.346" y="479.677"/>
    </contour>
  </outline>
</glyph>
<glyph name="t" format="2">
  <advance width="450"/>
  <unicode hex="0074"/>
  <outline>
    <contour>
      <point x="180" y="702.995" type="curve" smooth="yes"/>
      <point x="186.399" y="702.995"/>
      <point x="192.8" y="700.556"/>
      <point x="197.678" y="695.678" type="curve" smooth="yes"/>
      <point x="202.556" y="690.8"/>
      <point x="204.995" y="684.399"/>
      <point x="204.995" y="678" type="curve" smooth="yes"/>
      <point x="204.995" y="674.579"/>
      <point x="203.748" y="671.691"/>
      <point x="203.252" y="668.35" type="curve" smooth="yes"/>
      <point x="202.611" y="664.027"/>
      <point x="200.858" y="656.359"/>
      <point x="198.231" y="651.82" type="curve" smooth="yes"/>
      <point x="196.305" y="639.019"/>
      <point x="191.154" y="629.089"/>
      <point x="187.704" y="621.835" type="curve" smooth="yes"/>
      <point x="183.032" y="612.016"/>
      <point x="180.995" y="606.455"/>
      <point x="180.995" y="602" type="curve" smooth="yes"/>
      <point x="180.995" y="592" type="line" smooth="yes"/>
      <point x="180.995" y="590.811"/>
      <point x="180.911" y="589.621"/>
      <point x="180.742" y="588.441" type="curve" smooth="yes"/>
      <point x="178.119" y="568.624"/>
      <point x="174.499" y="549.805"/>
      <point x="173.412" y="528.452" type="curve"/>
      <point x="207.08" y="523.137" type="line"/>
      <point x="257.534" y="526.74" type="line"/>
      <point x="279.055" y="533.283"/>
      <point x="301.817" y="538.584"/>
      <point x="321.097" y="547.368" type="curve"/>
      <point x="323.136" y="552.125"/>
      <point x="324.745" y="556.101"/>
      <point x="328.322" y="559.678" type="curve" smooth="yes"/>
      <point x="333.2" y="564.556"/>
      <point x="339.601" y="566.995"/>
      <point x="346" y="566.995" type="curve" smooth="yes"/>
      <point x="352.399" y="566.995"/>
      <point x="358.8" y="564.556"/>
      <point x="363.678" y="559.678" type="curve" smooth="yes"/>
      <point x="368.556" y="554.8"/>
      <point x="370.995" y="548.399"/>
      <point x="370.995" y="542" type="curve" smooth="yes"/>
      <point x="370.995" y="538.638"/>
      <point x="370.322" y="535.276"/>
      <point x="368.976" y="532.135" type="curve" smooth="yes"/>
      <point x="365.722" y="524.541"/>
      <point x="363.239" y="515.884"/>
      <point x="357.678" y="510.322" type="curve" smooth="yes"/>
      <point x="355.211" y="507.855"/>
      <point x="352.354" y="506.012"/>
      <point x="349.306" y="504.793" type="curve" smooth="yes"/>
      <point x="319.306" y="492.793" type="line" smooth="yes"/>
      <point x="318.558" y="492.493"/>
      <point x="317.798" y="492.231"/>
      <point x="317.029" y="492.008" type="curve" smooth="yes"/>
      <point x="269.029" y="478.008" type="line" smooth="yes"/>
      <point x="267.316" y="477.508"/>
      <point x="265.561" y="477.195"/>
      <point x="263.794" y="477.069" type="curve" smooth="yes"/>
      <point x="207.794" y="473.069" type="line" smooth="yes"/>
      <point x="207.197" y="473.026"/>
      <point x="206.599" y="473.005"/>
      <point x="206" y="473.005" type="curve" smooth="yes"/>
      <point x="204.688" y="473.005"/>
      <point x="203.375" y="473.107"/>
      <point x="202.076" y="473.312" type="curve" smooth="yes"/>
      <point x="170.995" y="478.22" type="line"/>
      <point x="170.995" y="343.116" type="line"/>
      <point x="173.134" y="336.929"/>
      <point x="174.145" y="328.516"/>
      <point x="175.449" y="323.837" type="curve" smooth="yes"/>
      <point x="179.371" y="319.437"/>
      <point x="180.664" y="315.801"/>
      <point x="181.782" y="312.842" type="curve" smooth="yes"/>
      <point x="185.128" y="303.994"/>
      <point x="186.995" y="289.44"/>
      <point x="186.995" y="280" type="curve" smooth="yes"/>
      <point x="186.995" y="279.705"/>
      <point x="187.196" y="277.83"/>
      <point x="188.534" y="274.616" type="curve" smooth="yes"/>
      <point x="193.114" y="263.615"/>
      <point x="202.472" y="251.48"/>
      <point x="207.892" y="238.748" type="curve" smooth="yes"/>
      <point x="210.32" y="233.043"/>
      <point x="212.594" y="226.277"/>
      <point x="212.947" y="218.183" type="curve" smooth="yes"/>
      <point x="213.369" y="216.792"/>
      <point x="214.61" y="213.622"/>
      <point x="214.923" y="208.435" type="curve" smooth="yes"/>
      <point x="218.111" y="201.609"/>
      <point x="223.378" y="194.712"/>
      <point x="224.696" y="184.703" type="curve" smooth="yes"/>
      <point x="226.203" y="179.347"/>
      <point x="226.647" y="175.715"/>
      <point x="227.653" y="171.454" type="curve" smooth="yes"/>
      <point x="229.582" y="169.008"/>
      <point x="230.988" y="166.282"/>
      <point x="231.872" y="163.43" type="curve" smooth="yes"/>
      <point x="241.983" y="130.806"/>
      <point x="262.484" y="107.997"/>
      <point x="288.063" y="81.2832" type="curve" smooth="yes"/>
      <point x="289.46" y="79.8242"/>
      <point x="290.669" y="77.8965"/>
      <point x="292.035" y="76.5293" type="curve" smooth="yes"/>
      <point x="296.359" y="72.2061"/>
      <point x="307.105" y="68.9941"/>
      <point x="329.489" y="68.9941" type="curve" smooth="yes"/>
      <point x="329.643" y="68.9941"/>
      <point x="329.796" y="68.9951"/>
      <point x="330" y="68.9951" type="curve" smooth="yes"/>
      <point x="332.475" y="68.9951"/>
      <point x="334.949" y="68.6309"/>
      <point x="337.336" y="67.9014" type="curve" smooth="yes"/>
      <point x="342.488" y="66.3262"/>
      <point x="347.717" y="65.6133"/>
      <point x="352.771" y="65.6133" type="curve" smooth="yes"/>
      <point x="372.492" y="65.6133"/>
      <point x="389.179" y="74.9648"/>
      <point x="391.159" y="92.7803" type="curve" smooth="yes"/>
      <point x="392.496" y="104.816"/>
      <point x="403.331" y="114.995"/>
      <point x="416" y="114.995" type="curve" smooth="yes"/>
      <point x="422.399" y="114.995"/>
      <point x="428.8" y="112.556"/>
      <point x="433.678" y="107.678" type="curve" smooth="yes"/>
      <point x="438.556" y="102.8"/>
      <point x="440.995" y="96.3994"/>
      <point x="440.995" y="90" type="curve" smooth="yes"/>
      <point x="440.995" y="89.0713"/>
      <point x="440.943" y="88.1436"/>
      <point x="440.841" y="87.2197" type="curve" smooth="yes"/>
      <point x="438.804" y="68.8887"/>
      <point x="430.621" y="53.0508"/>
      <point x="418.856" y="41.2852" type="curve" smooth="yes"/>
      <point x="401.558" y="23.9873"/>
      <point x="377.728" y="15.4893"/>
      <point x="353.463" y="15.4893" type="curve" smooth="yes"/>
      <point x="344.431" y="15.4893"/>
      <point x="335.338" y="16.667"/>
      <point x="326.499" y="19.0059" type="curve"/>
      <point x="304.099" y="19.0771"/>
      <point x="277.175" y="20.6797"/>
      <point x="256.681" y="41.1748" type="curve" smooth="yes"/>
      <point x="254.598" y="43.2578"/>
      <point x="252.646" y="45.4922"/>
      <point x="250.84" y="47.8623" type="curve" smooth="yes"/>
      <point x="226.387" y="73.4189"/>
      <point x="199.84" y="101.992"/>
      <point x="185.615" y="143.982" type="curve" smooth="yes"/>
      <point x="181.66" y="149.819"/>
      <point x="179.07" y="159.079"/>
      <point x="177.812" y="165.472" type="curve" smooth="yes"/>
      <point x="176.799" y="170.629"/>
      <point x="175.926" y="172.036"/>
      <point x="175.29" y="176.223" type="curve" smooth="yes"/>
      <point x="171.593" y="183.677"/>
      <point x="165.742" y="191.789"/>
      <point x="165.067" y="203.77" type="curve" smooth="yes"/>
      <point x="164.589" y="205.362"/>
      <point x="163.005" y="209.312"/>
      <point x="163.005" y="216" type="curve"/>
      <point x="163.005" y="216"/>
      <point x="161.135" y="221.553"/>
      <point x="154.099" y="233.335" type="curve" smooth="yes"/>
      <point x="147.06" y="245.12"/>
      <point x="137.005" y="260.349"/>
      <point x="137.005" y="280" type="curve" smooth="yes"/>
      <point x="137.005" y="281.793"/>
      <point x="136.006" y="289.857"/>
      <point x="135.375" y="293.476" type="curve" smooth="yes"/>
      <point x="126.864" y="303.724"/>
      <point x="126.515" y="315.112"/>
      <point x="123.213" y="327.705" type="curve" smooth="yes"/>
      <point x="121.741" y="330.969"/>
      <point x="121.005" y="334.484"/>
      <point x="121.005" y="338" type="curve" smooth="yes"/>
      <point x="121.005" y="486.671" type="line"/>
      <point x="118.703" y="487.556"/>
      <point x="116.507" y="488.793"/>
      <point x="114.499" y="490.383" type="curve" smooth="yes"/>
      <point x="109.71" y="492.196"/>
      <point x="95.0566" y="496.166"/>
      <point x="90.6748" y="497.152" type="curve" smooth="yes"/>
      <point x="67.8057" y="498.666"/>
      <point x="48.1777" y="507.56"/>
      <point x="33.958" y="521.778" type="curve" smooth="yes"/>
      <point x="25.6074" y="530.129"/>
      <point x="19.415" y="539.853"/>
      <point x="15.0117" y="550.165" type="curve" smooth="yes"/>
      <point x="13.6738" y="553.298"/>
      <point x="13.0049" y="556.648"/>
      <point x="13.0049" y="560" type="curve" smooth="yes"/>
      <point x="13.0049" y="564" type="line" smooth="yes"/>
      <point x="13.0049" y="570.399"/>
      <point x="15.4443" y="576.8"/>
      <point x="20.3223" y="581.678" type="curve" smooth="yes"/>
      <point x="25.2002" y="586.556"/>
      <point x="31.6006" y="588.995"/>
      <point x="38" y="588.995" type="curve" smooth="yes"/>
      <point x="44.3994" y="588.995"/>
      <point x="50.7998" y="586.556"/>
      <point x="55.6777" y="581.678" type="curve" smooth="yes"/>
      <point x="60.0947" y="577.261"/>
      <point x="62.5117" y="571.597"/>
      <point x="62.9297" y="565.814" type="curve" smooth="yes"/>
      <point x="68.9365" y="554.769"/>
      <point x="77.5371" y="547.765"/>
      <point x="95.1367" y="546.97" type="curve" smooth="yes"/>
      <point x="101.673" y="546.674"/>
      <point x="97.1934" y="546.904"/>
      <point x="100.498" y="546.187" type="curve" smooth="yes"/>
      <point x="107.631" y="544.637"/>
      <point x="116.073" y="542.507"/>
      <point x="124.16" y="539.987" type="curve"/>
      <point x="125.624" y="559.014"/>
      <point x="128.446" y="575.879"/>
      <point x="131.005" y="593.789" type="curve"/>
      <point x="131.005" y="602" type="line" smooth="yes"/>
      <point x="131.005" y="620.344"/>
      <point x="138.141" y="634.062"/>
      <point x="142.554" y="643.338" type="curve" smooth="yes"/>
      <point x="147.15" y="653"/>
      <point x="149.005" y="658.299"/>
      <point x="149.005" y="662" type="curve" smooth="yes"/>
      <point x="149.005" y="667.281"/>
      <point x="150.666" y="672.563"/>
      <point x="153.989" y="676.99" type="curve" smooth="yes"/>
      <point x="154.773" y="682.275"/>
      <point x="155.101" y="684.979"/>
      <point x="158.435" y="690.655" type="curve" smooth="yes"/>
      <point x="162.587" y="697.726"/>
      <point x="171.159" y="702.995"/>
    </contour>
  </outline>
</glyph>
<glyph name="v" format="2">
  <advance width="464"/>
  <unicode hex="0076"/>
  <outline>
    <contour>
      <point x="225" y="69" type="curve" smooth="yes"/>
      <point x="225.891" y="69.6807"/>
      <point x="246.519" y="88.416"/>
      <point x="250.504" y="91.3945" type="curve" smooth="yes"/>
      <point x="261.438" y="99.5664"/>
      <point x="273.217" y="105.77"/>
      <point x="284.619" y="112.055" type="curve" smooth="yes"/>
      <point x="296.289" y="120.667"/>
      <point x="307.06" y="131.045"/>
      <point x="319.019" y="140.262" type="curve" smooth="yes"/>
      <point x="321.253" y="143.064"/>
      <point x="321.921" y="143.957"/>
      <point x="325.687" y="155.898" type="curve" smooth="yes"/>
      <point x="328.261" y="161.351"/>
      <point x="332.936" y="169.42"/>
      <point x="334.688" y="173.942" type="curve" smooth="yes"/>
      <point x="337.707" y="185.366"/>
      <point x="341.48" y="193.354"/>
      <point x="345.094" y="202.765" type="curve" smooth="yes"/>
      <point x="348.962" y="215.455"/>
      <point x="353.414" y="226.816"/>
      <point x="357.769" y="238.101" type="curve" smooth="yes"/>
      <point x="359.578" y="243.363"/>
      <point x="360.519" y="255.528"/>
      <point x="362.256" y="265.729" type="curve" smooth="yes"/>
      <point x="365.486" y="282.57"/>
      <point x="370.038" y="296.229"/>
      <point x="370.038" y="316.11" type="curve" smooth="yes"/>
      <point x="370.038" y="330.621"/>
      <point x="369.262" y="346.896"/>
      <point x="368.514" y="361.588" type="curve" smooth="yes"/>
      <point x="368.514" y="362.437" type="line" smooth="yes"/>
      <point x="368.487" y="363.869"/>
      <point x="368.474" y="365.302"/>
      <point x="368.474" y="366.736" type="curve" smooth="yes"/>
      <point x="368.474" y="382.46"/>
      <point x="369.771" y="396.094"/>
      <point x="369.985" y="411.561" type="curve" smooth="yes"/>
      <point x="370.236" y="418.623"/>
      <point x="393.004" y="419.876"/>
      <point x="401.133" y="419.876" type="curve" smooth="yes"/>
      <point x="401.439" y="419.876"/>
      <point x="401.735" y="419.875"/>
      <point x="402.02" y="419.875" type="curve" smooth="yes"/>
      <point x="402.972" y="437.375"/>
      <point x="403.924" y="437.375"/>
      <point x="404.876" y="419.875" type="curve"/>
      <point x="412.769" y="419.875"/>
      <point x="434.801" y="418.69"/>
      <point x="435.35" y="412.063" type="curve" smooth="yes"/>
      <point x="435.681" y="400.142"/>
      <point x="436.592" y="388.765"/>
      <point x="436.592" y="376.183" type="curve" smooth="yes"/>
      <point x="436.592" y="368.57"/>
      <point x="435.839" y="360.765"/>
      <point x="435.839" y="353.683" type="curve" smooth="yes"/>
      <point x="435.839" y="340.876"/>
      <point x="438.086" y="330.593"/>
      <point x="438.086" y="317.079" type="curve" smooth="yes"/>
      <point x="438.086" y="291.096"/>
      <point x="430.941" y="269.923"/>
      <point x="426.934" y="246.534" type="curve" smooth="yes"/>
      <point x="422.319" y="214.825"/>
      <point x="408.871" y="190.104"/>
      <point x="398.167" y="163.861" type="curve" smooth="yes"/>
      <point x="392.562" y="145.288"/>
      <point x="383.295" y="124.27"/>
      <point x="370.195" y="108.48" type="curve"/>
      <point x="353.962" y="97.54"/>
      <point x="334.863" y="83.8066"/>
      <point x="321.625" y="69.4023" type="curve" smooth="yes"/>
      <point x="315.718" y="60.3594"/>
      <point x="312.269" y="52.5527"/>
      <point x="299.141" y="42.752" type="curve" smooth="yes"/>
      <point x="281.048" y="29.0098"/>
      <point x="255.468" y="15.5527"/>
      <point x="224.002" y="15.5527" type="curve" smooth="yes"/>
      <point x="223.747" y="15.5527"/>
      <point x="223.493" y="15.5596"/>
      <point x="223.244" y="15.5596" type="curve" smooth="yes"/>
      <point x="218.551" y="14.4951"/>
      <point x="209.502" y="13.7822"/>
      <point x="202.878" y="13.7822" type="curve" smooth="yes"/>
      <point x="153.368" y="13.7822"/>
      <point x="138" y="61"/>
      <point x="102" y="87" type="curve" smooth="yes"/>
      <point x="100.1" y="88.3721"/>
      <point x="84.9854" y="111.795"/>
      <point x="84" y="113" type="curve" smooth="yes"/>
      <point x="77.2471" y="121.258"/>
      <point x="90.1406" y="106.854"/>
      <point x="83.2871" y="116.038" type="curve" smooth="yes"/>
      <point x="69.6904" y="134.259"/>
      <point x="65.4209" y="149.382"/>
      <point x="57.4082" y="168.602" type="curve" smooth="yes"/>
      <point x="47.5303" y="191.599"/>
      <point x="38.5" y="217.609"/>
      <point x="31.6064" y="245.251" type="curve" smooth="yes"/>
      <point x="25.9463" y="263.966"/>
      <point x="17.4336" y="278.932"/>
      <point x="15.542" y="302.228" type="curve" smooth="yes"/>
      <point x="14.6387" y="311.523"/>
      <point x="13.9434" y="321.205"/>
      <point x="13.9434" y="331.313" type="curve" smooth="yes"/>
      <point x="13.9434" y="341.234"/>
      <point x="14.9463" y="352.196"/>
      <point x="14.9463" y="362.414" type="curve" smooth="yes"/>
      <point x="14.9463" y="365.262"/>
      <point x="14.8789" y="368.129"/>
      <point x="14.7734" y="370.934" type="curve" smooth="yes"/>
      <point x="14.8506" y="372.581"/>
      <point x="14.8965" y="373.935"/>
      <point x="14.8965" y="376.085" type="curve" smooth="yes"/>
      <point x="14.8965" y="379.04"/>
      <point x="14.7988" y="382.181"/>
      <point x="14.7988" y="385.349" type="curve" smooth="yes"/>
      <point x="14.7988" y="385.818"/>
      <point x="14.7979" y="386.298"/>
      <point x="14.7979" y="386.787" type="curve" smooth="yes"/>
      <point x="14.7979" y="391.483"/>
      <point x="14.9658" y="397.502"/>
      <point x="20.1553" y="403.724" type="curve" smooth="yes"/>
      <point x="24.9951" y="407.556"/>
      <point x="37.1777" y="410.504"/>
      <point x="44.6484" y="412.971" type="curve"/>
      <point x="59.165" y="411.215"/>
      <point x="67.873" y="413.199"/>
      <point x="81.2148" y="405.49" type="curve" smooth="yes"/>
      <point x="82.4424" y="405.063"/>
      <point x="87.4287" y="403.065"/>
      <point x="87.4287" y="400.455" type="curve" smooth="yes"/>
      <point x="87.4287" y="381.293"/>
      <point x="81.4561" y="362.949"/>
      <point x="81.4561" y="343.543" type="curve" smooth="yes"/>
      <point x="81.4961" y="320.823"/>
      <point x="82.6377" y="296.679"/>
      <point x="88.8223" y="277.725" type="curve" smooth="yes"/>
      <point x="105.426" y="243.666"/>
      <point x="110.519" y="207.994"/>
      <point x="126.396" y="176.303" type="curve" smooth="yes"/>
      <point x="131.637" y="166.264"/>
      <point x="138.451" y="152.108"/>
      <point x="145.059" y="144.598" type="curve" smooth="yes"/>
      <point x="146.749" y="142.847"/>
      <point x="152.349" y="136.438"/>
      <point x="155.723" y="134.12" type="curve" smooth="yes"/>
      <point x="178.146" y="118.722"/>
      <point x="211.803" y="84.9062"/>
    </contour>
    <contour>
      <point x="213.985" y="40.7832" type="move"/>
    </contour>
  </outline>
</glyph>
<glyph name="x" format="2">
  <advance width="632"/>
  <unicode hex="0078"/>
  <outline>
    <contour>
      <point x="360.892" y="236.798" type="curve" smooth="yes"/>
      <point x="351.521" y="228.968"/>
      <point x="348.638" y="225.856"/>
      <point x="348.638" y="218.043" type="curve" smooth="yes"/>
      <point x="348.638" y="214.623"/>
      <point x="349.265" y="209.294"/>
      <point x="349.265" y="205.222" type="curve" smooth="yes"/>
      <point x="349.265" y="197.057"/>
      <point x="348.821" y="188.866"/>
      <point x="348.821" y="180.953" type="curve" smooth="yes"/>
      <point x="348.821" y="162.67"/>
      <point x="352.438" y="155.064"/>
      <point x="357.358" y="151.581" type="curve" smooth="yes"/>
      <point x="359.219" y="150.265"/>
      <point x="360.816" y="148.86"/>
      <point x="362.295" y="147.251" type="curve" smooth="yes"/>
      <point x="372.046" y="136.624"/>
      <point x="388.757" y="123.86"/>
      <point x="400.2" y="119.263" type="curve" smooth="yes"/>
      <point x="401.52" y="118.733"/>
      <point x="402.808" y="118.125"/>
      <point x="404.034" y="117.453" type="curve" smooth="yes"/>
      <point x="414.405" y="111.766"/>
      <point x="432.646" y="107.018"/>
      <point x="451.022" y="102.76" type="curve" smooth="yes"/>
      <point x="473.402" y="99.2559"/>
      <point x="489.391" y="95.4922"/>
      <point x="507.693" y="91.624" type="curve" smooth="yes"/>
      <point x="520.523" y="88.9121"/>
      <point x="532.627" y="84.6387"/>
      <point x="544.432" y="76.9473" type="curve"/>
      <point x="556.884" y="73.6367"/>
      <point x="569.312" y="70.3037"/>
      <point x="583.709" y="68.7959" type="curve" smooth="yes"/>
      <point x="597.837" y="66.7266"/>
      <point x="608.997" y="55.4082"/>
      <point x="608.997" y="41.3203" type="curve" smooth="yes"/>
      <point x="608.997" y="34.2207"/>
      <point x="606.082" y="27.0957"/>
      <point x="600.211" y="21.6504" type="curve" smooth="yes"/>
      <point x="594.339" y="16.2061"/>
      <point x="586.656" y="13.5029"/>
      <point x="579" y="13.5029" type="curve" smooth="yes"/>
      <point x="577.424" y="13.5029"/>
      <point x="575.853" y="13.6162"/>
      <point x="574.292" y="13.8457" type="curve" smooth="yes"/>
      <point x="566.967" y="14.9219"/>
      <point x="558.954" y="15.5186"/>
      <point x="552.003" y="17.2988" type="curve" smooth="yes"/>
      <point x="523.009" y="24.7432" type="line" smooth="yes"/>
      <point x="519.203" y="25.7188"/>
      <point x="515.526" y="27.4248"/>
      <point x="512.276" y="29.8457" type="curve" smooth="yes"/>
      <point x="504.644" y="35.5303"/>
      <point x="505.28" y="35.1416"/>
      <point x="494.308" y="37.4688" type="curve" smooth="yes"/>
      <point x="475.241" y="41.2246"/>
      <point x="457.931" y="45.2324"/>
      <point x="437.428" y="48.4043" type="curve" smooth="yes"/>
      <point x="434.033" y="48.9297"/>
      <point x="433.286" y="49.2549"/>
      <point x="430.763" y="49.8369" type="curve" smooth="yes"/>
      <point x="413.415" y="53.8457"/>
      <point x="390.575" y="58.8926"/>
      <point x="369.402" y="70.1162" type="curve" smooth="yes"/>
      <point x="345.857" y="80.0498"/>
      <point x="326.259" y="95.9189"/>
      <point x="311.448" y="111.62" type="curve" smooth="yes"/>
      <point x="308.283" y="114.09"/>
      <point x="305.423" y="116.72"/>
      <point x="302.851" y="119.465" type="curve"/>
      <point x="298.749" y="115.89"/>
      <point x="294.061" y="112.732"/>
      <point x="289.675" y="109.435" type="curve" smooth="yes"/>
      <point x="273.699" y="97.4219"/>
      <point x="257.279" y="85.0332"/>
      <point x="234.356" y="73.374" type="curve" smooth="yes"/>
      <point x="221.791" y="66.9834"/>
      <point x="209.29" y="60.125"/>
      <point x="199.325" y="53.2959" type="curve" smooth="yes"/>
      <point x="197.192" y="51.833"/>
      <point x="194.882" y="50.6211"/>
      <point x="192.484" y="49.6709" type="curve" smooth="yes"/>
      <point x="152.519" y="33.8428" type="line" smooth="yes"/>
      <point x="151.416" y="33.4062"/>
      <point x="150.272" y="33.0166"/>
      <point x="149.098" y="32.6797" type="curve" smooth="yes"/>
      <point x="106.687" y="19.6445" type="line" smooth="yes"/>
      <point x="99.2031" y="17.2744"/>
      <point x="90.793" y="15.9951"/>
      <point x="82.9814" y="14.2637" type="curve" smooth="yes"/>
      <point x="81.9473" y="14.0342"/>
      <point x="80.8994" y="13.8574"/>
      <point x="79.8682" y="13.7324" type="curve" smooth="yes"/>
      <point x="48.8496" y="9.74805" type="line" smooth="yes"/>
      <point x="47.5771" y="9.58496"/>
      <point x="46.2939" y="9.50293"/>
      <point x="45" y="9.50293" type="curve" smooth="yes"/>
      <point x="37.3438" y="9.50293"/>
      <point x="29.6611" y="12.3076"/>
      <point x="23.7891" y="17.958" type="curve" smooth="yes"/>
      <point x="17.918" y="23.4229"/>
      <point x="15.0029" y="30.5732"/>
      <point x="15.0029" y="37.6982" type="curve" smooth="yes"/>
      <point x="15.0029" y="52.0742"/>
      <point x="26.5684" y="63.6367"/>
      <point x="41.1318" y="65.3877" type="curve" smooth="yes"/>
      <point x="57.627" y="67.2881"/>
      <point x="74.3135" y="69.0107"/>
      <point x="88.6416" y="72.9277" type="curve" smooth="yes"/>
      <point x="126.713" y="85.0264" type="line"/>
      <point x="160.534" y="98.7812" type="line"/>
      <point x="173.525" y="107.376"/>
      <point x="187.207" y="114.707"/>
      <point x="199.88" y="121.153" type="curve" smooth="yes"/>
      <point x="219.634" y="131.201"/>
      <point x="236.847" y="144.88"/>
      <point x="254.964" y="158.289" type="curve" smooth="yes"/>
      <point x="262.153" y="165.066"/>
      <point x="268.963" y="180.261"/>
      <point x="275.319" y="196.947" type="curve" smooth="yes"/>
      <point x="277.085" y="201.582"/>
      <point x="279.101" y="206.009"/>
      <point x="280.423" y="211.048" type="curve" smooth="yes"/>
      <point x="280.68" y="216.892"/>
      <point x="282.617" y="223.772"/>
      <point x="282.617" y="228.354" type="curve" smooth="yes"/>
      <point x="282.617" y="234.591"/>
      <point x="281.431" y="240.998"/>
      <point x="279.982" y="248.56" type="curve" smooth="yes"/>
      <point x="275.991" y="253.189"/>
      <point x="271.221" y="258.069"/>
      <point x="265.764" y="262.095" type="curve" smooth="yes"/>
      <point x="234.672" y="281.708" type="line"/>
      <point x="219.681" y="289.616"/>
      <point x="204.406" y="297.213"/>
      <point x="189.651" y="305.466" type="curve" smooth="yes"/>
      <point x="129.248" y="339.466" type="line" smooth="yes"/>
      <point x="123.729" y="342.878"/>
      <point x="119.634" y="345.919"/>
      <point x="114.966" y="349.178" type="curve" smooth="yes"/>
      <point x="102.191" y="358.097"/>
      <point x="92.3857" y="364.678"/>
      <point x="80.9756" y="368.72" type="curve" smooth="yes"/>
      <point x="65.2881" y="374.276"/>
      <point x="48.9902" y="384.278"/>
      <point x="36.2646" y="395.409" type="curve" smooth="yes"/>
      <point x="31.2979" y="399.754"/>
      <point x="29.1885" y="404.532"/>
      <point x="28.1543" y="406.601" type="curve" smooth="yes"/>
      <point x="26.041" y="410.829"/>
      <point x="25.0029" y="415.376"/>
      <point x="25.0029" y="420" type="curve" smooth="yes"/>
      <point x="25.0029" y="427.656"/>
      <point x="27.918" y="435.339"/>
      <point x="33.7891" y="441.211" type="curve" smooth="yes"/>
      <point x="39.6611" y="447.082"/>
      <point x="47.3438" y="449.997"/>
      <point x="55" y="449.997" type="curve" smooth="yes"/>
      <point x="64.9922" y="449.997"/>
      <point x="73.6289" y="445.281"/>
      <point x="79.0811" y="437.906" type="curve" smooth="yes"/>
      <point x="85.8574" y="432.873"/>
      <point x="96.4551" y="426.898"/>
      <point x="101.024" y="425.28" type="curve" smooth="yes"/>
      <point x="127.661" y="415.846"/>
      <point x="141.863" y="402.631"/>
      <point x="163.723" y="390.453" type="curve" smooth="yes"/>
      <point x="198.589" y="370.933"/>
      <point x="233.468" y="351.425"/>
      <point x="269.438" y="332.898" type="curve" smooth="yes"/>
      <point x="270.207" y="332.493"/>
      <point x="270.961" y="332.057"/>
      <point x="271.693" y="331.595" type="curve" smooth="yes"/>
      <point x="304.979" y="310.599" type="line" smooth="yes"/>
      <point x="307.267" y="309.156"/>
      <point x="307.954" y="308.504"/>
      <point x="309.392" y="307.44" type="curve" smooth="yes"/>
      <point x="312.779" y="304.935"/>
      <point x="318.005" y="301.286"/>
      <point x="322.857" y="295.914" type="curve" smooth="yes"/>
      <point x="324.125" y="294.511"/>
      <point x="326.17" y="292.406"/>
      <point x="327.754" y="290.765" type="curve" smooth="yes"/>
      <point x="335.234" y="296.556"/>
      <point x="343.926" y="302.913"/>
      <point x="350.425" y="308.57" type="curve" smooth="yes"/>
      <point x="388.856" y="356.539"/>
      <point x="436.289" y="409.232"/>
      <point x="509.201" y="432.028" type="curve" smooth="yes"/>
      <point x="512.447" y="433.885"/>
      <point x="517.073" y="437.561"/>
      <point x="519.578" y="439.751" type="curve" smooth="yes"/>
      <point x="525.164" y="446.766"/>
      <point x="533.508" y="450.997"/>
      <point x="543" y="450.997" type="curve" smooth="yes"/>
      <point x="551.597" y="450.997"/>
      <point x="558.738" y="447.682"/>
      <point x="564.219" y="442.204" type="curve" smooth="yes"/>
      <point x="571.6" y="434.82"/>
      <point x="573.011" y="426.156"/>
      <point x="573.011" y="420.816" type="curve" smooth="yes"/>
      <point x="573.011" y="412.76"/>
      <point x="569.721" y="407.13"/>
      <point x="568.945" y="405.79" type="curve" smooth="yes"/>
      <point x="566.883" y="402.229"/>
      <point x="564.054" y="399.29"/>
      <point x="562.945" y="398.183" type="curve" smooth="yes"/>
      <point x="559.187" y="394.423"/>
      <point x="554.146" y="390.149"/>
      <point x="548.145" y="385.813" type="curve" smooth="yes"/>
      <point x="543.782" y="382.661"/>
      <point x="537.754" y="378.253"/>
      <point x="529.384" y="375.5" type="curve" smooth="yes"/>
      <point x="477.204" y="358.725"/>
      <point x="438.563" y="316.237"/>
      <point x="402.851" y="271.502" type="curve" smooth="yes"/>
      <point x="401.424" y="269.715"/>
      <point x="400.091" y="268.459"/>
      <point x="399.048" y="267.52" type="curve" smooth="yes"/>
      <point x="386.684" y="256.379"/>
      <point x="372.467" y="247.23"/>
    </contour>
  </outline>
</glyph>
<glyph name="asciitilde" format="2">
  <advance width="502"/>
  <unicode hex="007E"/>
  <outline>
    <contour>
      <point x="34.0049" y="426" type="curve" smooth="yes"/>
      <point x="34.0049" y="432.4"/>
      <point x="36.444" y="438.799"/>
      <point x="41.3223" y="443.678" type="curve" smooth="yes"/>
      <point x="46.2006" y="448.556"/>
      <point x="52.6003" y="450.995"/>
      <point x="59" y="450.995" type="curve" smooth="yes"/>
      <point x="66.3913" y="450.995"/>
      <point x="72.8117" y="447.538"/>
      <point x="77.9977" y="442.352" type="curve" smooth="yes"/>
      <point x="91.1367" y="429.213"/>
      <point x="105.997" y="416.554"/>
      <point x="120.226" y="409.328" type="curve" smooth="yes"/>
      <point x="129.446" y="404.645"/>
      <point x="137.825" y="402.34"/>
      <point x="145.761" y="402.34" type="curve" smooth="yes"/>
      <point x="147.679" y="402.34"/>
      <point x="149.57" y="402.474"/>
      <point x="151.441" y="402.742" type="curve" smooth="yes"/>
      <point x="203.939" y="410.242" type="line"/>
      <point x="240.726" y="426.796" type="line" smooth="yes"/>
      <point x="242.387" y="427.544"/>
      <point x="244.114" y="428.101"/>
      <point x="245.872" y="428.467" type="curve" smooth="yes"/>
      <point x="293.872" y="438.467" type="line" smooth="yes"/>
      <point x="294.929" y="438.687"/>
      <point x="295.997" y="438.838"/>
      <point x="297.069" y="438.921" type="curve" smooth="yes"/>
      <point x="349.069" y="442.921" type="line" smooth="yes"/>
      <point x="349.711" y="442.97"/>
      <point x="350.356" y="442.995"/>
      <point x="351" y="442.995" type="curve" smooth="yes"/>
      <point x="354.839" y="442.995"/>
      <point x="358.677" y="442.118"/>
      <point x="362.188" y="440.362" type="curve" smooth="yes"/>
      <point x="406.188" y="418.362" type="line" smooth="yes"/>
      <point x="408.53" y="417.191"/>
      <point x="410.726" y="415.63"/>
      <point x="412.678" y="413.678" type="curve" smooth="yes"/>
      <point x="417.591" y="408.765"/>
      <point x="422.745" y="404.003"/>
      <point x="427.44" y="398.881" type="curve" smooth="yes"/>
      <point x="449.44" y="374.881" type="line" smooth="yes"/>
      <point x="453.81" y="370.114"/>
      <point x="455.995" y="364.057"/>
      <point x="455.995" y="358" type="curve" smooth="yes"/>
      <point x="455.995" y="351.6"/>
      <point x="453.556" y="345.201"/>
      <point x="448.678" y="340.322" type="curve" smooth="yes"/>
      <point x="443.799" y="335.444"/>
      <point x="437.4" y="333.005"/>
      <point x="431" y="333.005" type="curve" smooth="yes"/>
      <point x="424.212" y="333.005"/>
      <point x="417.329" y="335.916"/>
      <point x="412.56" y="341.119" type="curve" smooth="yes"/>
      <point x="401.871" y="352.657"/>
      <point x="391.536" y="364.55"/>
      <point x="380.202" y="375.443" type="curve"/>
      <point x="345.996" y="392.546" type="line"/>
      <point x="302.545" y="389.203" type="line"/>
      <point x="258.796" y="380.089" type="line"/>
      <point x="221.274" y="363.204" type="line" smooth="yes"/>
      <point x="219.121" y="362.235"/>
      <point x="216.858" y="361.586"/>
      <point x="214.559" y="361.258" type="curve" smooth="yes"/>
      <point x="158.559" y="353.258" type="line" smooth="yes"/>
      <point x="154.254" y="352.641"/>
      <point x="150.012" y="352.353"/>
      <point x="145.843" y="352.353" type="curve" smooth="yes"/>
      <point x="128.133" y="352.353"/>
      <point x="111.75" y="357.543"/>
      <point x="97.5726" y="364.743" type="curve" smooth="yes"/>
      <point x="74.8843" y="376.265"/>
      <point x="56.5782" y="392.93"/>
      <point x="41.2423" y="408.403" type="curve" smooth="yes"/>
      <point x="36.4174" y="413.271"/>
      <point x="34.0049" y="419.635"/>
    </contour>
  </outline>
</glyph>
<glyph name="cent" format="2">
  <advance width="382"/>
  <unicode hex="00A2"/>
  <outline>
    <contour>
      <point x="159" y="500" type="curve" smooth="yes"/>
      <point x="168" y="511"/>
      <point x="175" y="520"/>
      <point x="189" y="519" type="curve" smooth="yes"/>
      <point x="199" y="518"/>
      <point x="201" y="507"/>
      <point x="203" y="497" type="curve" smooth="yes"/>
      <point x="208" y="473"/>
      <point x="212" y="459"/>
      <point x="208" y="434" type="curve" smooth="yes"/>
      <point x="206.991" y="426.735"/>
      <point x="205.656" y="420.202"/>
      <point x="204.094" y="414.107" type="curve"/>
      <point x="225.098" y="404.978"/>
      <point x="242.028" y="393.086"/>
      <point x="258.04" y="381.864" type="curve" smooth="yes"/>
      <point x="271.886" y="372.161"/>
      <point x="285.41" y="362.723"/>
      <point x="301.7" y="354.099" type="curve" smooth="yes"/>
      <point x="309.218" y="350.119"/>
      <point x="314.995" y="341.282"/>
      <point x="314.995" y="332" type="curve" smooth="yes"/>
      <point x="314.995" y="325.601"/>
      <point x="312.556" y="319.2"/>
      <point x="307.678" y="314.322" type="curve" smooth="yes"/>
      <point x="302.8" y="309.444"/>
      <point x="296.399" y="307.005"/>
      <point x="290" y="307.005" type="curve" smooth="yes"/>
      <point x="285.974" y="307.005"/>
      <point x="281.947" y="307.971"/>
      <point x="278.3" y="309.901" type="curve" smooth="yes"/>
      <point x="258.812" y="320.219"/>
      <point x="243.2" y="331.199"/>
      <point x="229.377" y="340.888" type="curve" smooth="yes"/>
      <point x="214.278" y="351.469"/>
      <point x="201.78" y="360.11"/>
      <point x="187.773" y="366.637" type="curve"/>
      <point x="185.4" y="359.762"/>
      <point x="183.092" y="352.367"/>
      <point x="181" y="344" type="curve" smooth="yes"/>
      <point x="174" y="315"/>
      <point x="171" y="298"/>
      <point x="167" y="269" type="curve" smooth="yes"/>
      <point x="163" y="240"/>
      <point x="159" y="223"/>
      <point x="161" y="194" type="curve" smooth="yes"/>
      <point x="163" y="176"/>
      <point x="171" y="167"/>
      <point x="177" y="150" type="curve" smooth="yes"/>
      <point x="185" y="129"/>
      <point x="187" y="115"/>
      <point x="196" y="95" type="curve" smooth="yes"/>
      <point x="204" y="77"/>
      <point x="209" y="67"/>
      <point x="220" y="50" type="curve" smooth="yes"/>
      <point x="224.737" y="42.6316"/>
      <point x="229.628" y="36.0635"/>
      <point x="234.553" y="29.9824" type="curve"/>
      <point x="254.186" y="35.6489"/>
      <point x="270.262" y="45.2447"/>
      <point x="290.408" y="57.3057" type="curve" smooth="yes"/>
      <point x="306.085" y="66.6904"/>
      <point x="323.873" y="77.3799"/>
      <point x="346.087" y="86.9551" type="curve" smooth="yes"/>
      <point x="349.242" y="88.3154"/>
      <point x="352.621" y="88.9951"/>
      <point x="356" y="88.9951" type="curve" smooth="yes"/>
      <point x="362.399" y="88.9951"/>
      <point x="368.8" y="86.5557"/>
      <point x="373.678" y="81.6777" type="curve" smooth="yes"/>
      <point x="378.556" y="76.7998"/>
      <point x="380.995" y="70.3994"/>
      <point x="380.995" y="64" type="curve" smooth="yes"/>
      <point x="380.995" y="53.9307"/>
      <point x="374.31" y="44.6641"/>
      <point x="365.913" y="41.0449" type="curve" smooth="yes"/>
      <point x="347.2" y="32.9795"/>
      <point x="331.779" y="23.7871"/>
      <point x="316.079" y="14.3877" type="curve" smooth="yes"/>
      <point x="301.717" y="5.7899"/>
      <point x="286.78" y="-3.16819"/>
      <point x="269.541" y="-10.4185" type="curve"/>
      <point x="279.45" y="-22.9946"/>
      <point x="288.058" y="-36.9869"/>
      <point x="294" y="-56" type="curve" smooth="yes"/>
      <point x="299" y="-71"/>
      <point x="274" y="-74"/>
      <point x="258" y="-74" type="curve" smooth="yes"/>
      <point x="241" y="-74"/>
      <point x="230" y="-67"/>
      <point x="220" y="-54" type="curve" smooth="yes"/>
      <point x="212.337" y="-43.9592"/>
      <point x="206.001" y="-34.6865"/>
      <point x="200.438" y="-25.6836" type="curve"/>
      <point x="188.075" y="-26.6286"/>
      <point x="175.57" y="-27.3574"/>
      <point x="163.1" y="-27.3574" type="curve" smooth="yes"/>
      <point x="122.11" y="-27.3574"/>
      <point x="81.4971" y="-19.4854"/>
      <point x="47.5635" y="14.4482" type="curve" smooth="yes"/>
      <point x="44.5986" y="17.4131"/>
      <point x="41.7539" y="20.502"/>
      <point x="38.9531" y="23.8057" type="curve" smooth="yes"/>
      <point x="2.48242" y="66.6191"/>
      <point x="-3.57031" y="111.099"/>
      <point x="-3.57031" y="155.34" type="curve" smooth="yes"/>
      <point x="-3.57031" y="176.608"/>
      <point x="-2.29492" y="197.189"/>
      <point x="-1.99219" y="218.406" type="curve" smooth="yes"/>
      <point x="-0.989258" y="280.553"/>
      <point x="2.68652" y="331.176"/>
      <point x="43.9053" y="386.878" type="curve" smooth="yes"/>
      <point x="47.3037" y="391.458"/>
      <point x="50.9492" y="395.703"/>
      <point x="54.8467" y="399.601" type="curve" smooth="yes"/>
      <point x="76.7988" y="421.552"/>
      <point x="104.081" y="429.53"/>
      <point x="131.869" y="429.53" type="curve" smooth="yes"/>
      <point x="134.253" y="429.53"/>
      <point x="136.641" y="429.472"/>
      <point x="139.03" y="429.358" type="curve" smooth="yes"/>
      <point x="140.758" y="441.114"/>
      <point x="142.816" y="453.493"/>
      <point x="146" y="468" type="curve" smooth="yes"/>
      <point x="149" y="481"/>
      <point x="150" y="490"/>
    </contour>
    <contour>
      <point x="174.825" y="22.9176" type="curve"/>
      <point x="170.28" y="32.4998"/>
      <point x="165.52" y="42.6971"/>
      <point x="160" y="54" type="curve" smooth="yes"/>
      <point x="135" y="105"/>
      <point x="112" y="131"/>
      <point x="100" y="186" type="curve" smooth="yes"/>
      <point x="91" y="226"/>
      <point x="100" y="251"/>
      <point x="106" y="292" type="curve" smooth="yes"/>
      <point x="110" y="320"/>
      <point x="122" y="334"/>
      <point x="128" y="362" type="curve" smooth="yes"/>
      <point x="129.375" y="368.265"/>
      <point x="130.54" y="374.133"/>
      <point x="131.56" y="379.726" type="curve"/>
      <point x="131.316" y="379.726"/>
      <point x="131.074" y="379.729"/>
      <point x="130.832" y="379.729" type="curve" smooth="yes"/>
      <point x="109.437" y="379.729"/>
      <point x="94.4756" y="371.113"/>
      <point x="84.0947" y="357.122" type="curve" smooth="yes"/>
      <point x="51.3135" y="312.824"/>
      <point x="48.9893" y="279.447"/>
      <point x="47.9922" y="217.594" type="curve" smooth="yes"/>
      <point x="47.6865" y="196.21"/>
      <point x="46.3779" y="173.69"/>
      <point x="46.3779" y="153.371" type="curve" smooth="yes"/>
      <point x="46.3779" y="114.964"/>
      <point x="51.3271" y="86.3877"/>
      <point x="77.0469" y="56.1943" type="curve" smooth="yes"/>
      <point x="78.9854" y="53.9082"/>
      <point x="80.9688" y="51.7539"/>
      <point x="82.9189" y="49.8037" type="curve" smooth="yes"/>
      <point x="103.896" y="28.8262"/>
      <point x="129.086" y="22.6914"/>
      <point x="162.913" y="22.6914" type="curve" smooth="yes"/>
      <point x="166.769" y="22.6914"/>
      <point x="170.738" y="22.7711"/>
    </contour>
  </outline>
</glyph>
<glyph name="degree" format="2">
  <advance width="155"/>
  <unicode hex="00B0"/>
  <outline>
    <contour>
      <point x="194" y="734" type="curve"/>
      <point x="233.743" y="752.153"/>
      <point x="262.19" y="747.715"/>
      <point x="286" y="734" type="curve"/>
      <point x="297.045" y="714.245"/>
      <point x="311.119" y="694.924"/>
      <point x="286" y="670" type="curve"/>
      <point x="255.332" y="653.268"/>
      <point x="224.666" y="660.491"/>
      <point x="194" y="670" type="curve"/>
      <point x="183.416" y="691.333"/>
      <point x="178.145" y="712.667"/>
    </contour>
  </outline>
</glyph>
<glyph name="uni00B3" format="2">
  <advance width="440"/>
  <unicode hex="00B3"/>
  <outline>
    <contour>
      <point x="300.252" y="560.883" type="curve" smooth="yes"/>
      <point x="300.252" y="562.495"/>
      <point x="300.416" y="564.122"/>
      <point x="300.416" y="565.69" type="curve" smooth="yes"/>
      <point x="300.416" y="572.315"/>
      <point x="299.271" y="579.645"/>
      <point x="298.689" y="586.42" type="curve" smooth="yes"/>
      <point x="298.664" y="586.707"/>
      <point x="298.652" y="586.994"/>
      <point x="298.652" y="587.282" type="curve" smooth="yes"/>
      <point x="298.652" y="598.543"/>
      <point x="295.492" y="603.676"/>
      <point x="290.787" y="608.381" type="curve" smooth="yes"/>
      <point x="287.961" y="611.207"/>
      <point x="284.211" y="613.919"/>
      <point x="279.895" y="616.971" type="curve" smooth="yes"/>
      <point x="275.007" y="620.426"/>
      <point x="268.913" y="624.785"/>
      <point x="264.012" y="630.084" type="curve"/>
      <point x="245.117" y="630.084" type="line"/>
      <point x="211.94" y="621.598" type="line" smooth="yes"/>
      <point x="211.125" y="621.389"/>
      <point x="210.287" y="621.284"/>
      <point x="209.45" y="621.284" type="curve" smooth="yes"/>
      <point x="206.891" y="621.284"/>
      <point x="204.33" y="622.26"/>
      <point x="202.379" y="624.211" type="curve" smooth="yes"/>
      <point x="200.428" y="626.162"/>
      <point x="199.452" y="628.723"/>
      <point x="199.452" y="631.282" type="curve" smooth="yes"/>
      <point x="199.452" y="635.89"/>
      <point x="202.851" y="639.916"/>
      <point x="206.96" y="640.967" type="curve" smooth="yes"/>
      <point x="241.359" y="649.768" type="line" smooth="yes"/>
      <point x="242.176" y="649.976"/>
      <point x="243.013" y="650.08"/>
      <point x="243.851" y="650.08" type="curve" smooth="yes"/>
      <point x="268.65" y="650.08" type="line" smooth="yes"/>
      <point x="271.706" y="650.08"/>
      <point x="274.793" y="648.518"/>
      <point x="276.606" y="646.143" type="curve" smooth="yes"/>
      <point x="280.625" y="640.878"/>
      <point x="285.45" y="637.539"/>
      <point x="291.426" y="633.314" type="curve" smooth="yes"/>
      <point x="295.729" y="630.272"/>
      <point x="300.466" y="626.986"/>
      <point x="304.93" y="622.523" type="curve" smooth="yes"/>
      <point x="312.722" y="614.73"/>
      <point x="318.537" y="603.592"/>
      <point x="318.646" y="587.739" type="curve" smooth="yes"/>
      <point x="319.294" y="580.444"/>
      <point x="320.414" y="573.938"/>
      <point x="320.414" y="565.736" type="curve" smooth="yes"/>
      <point x="320.414" y="564.276"/>
      <point x="320.376" y="562.776"/>
      <point x="320.29" y="561.231" type="curve" smooth="yes"/>
      <point x="320.507" y="559.428"/>
      <point x="320.611" y="557.651"/>
      <point x="320.611" y="555.905" type="curve" smooth="yes"/>
      <point x="320.611" y="531.011"/>
      <point x="300.381" y="513.78"/>
      <point x="279.831" y="508.771" type="curve" smooth="yes"/>
      <point x="273.649" y="507.263"/>
      <point x="264.563" y="504.952"/>
      <point x="261.002" y="501.39" type="curve" smooth="yes"/>
      <point x="260.312" y="500.699"/>
      <point x="260.244" y="500.493"/>
      <point x="260.244" y="500.263" type="curve" smooth="yes"/>
      <point x="260.244" y="500.206"/>
      <point x="260.248" y="500.148"/>
      <point x="260.248" y="500.082" type="curve" smooth="yes"/>
      <point x="260.248" y="499.431"/>
      <point x="260.185" y="498.779"/>
      <point x="260.059" y="498.137" type="curve" smooth="yes"/>
      <point x="259.147" y="493.516"/>
      <point x="259.877" y="489.565"/>
      <point x="258.176" y="484.228" type="curve" smooth="yes"/>
      <point x="258.129" y="483.997"/>
      <point x="258.102" y="483.38"/>
      <point x="258.102" y="482.516" type="curve" smooth="yes"/>
      <point x="258.102" y="479.269"/>
      <point x="258.648" y="474.858"/>
      <point x="258.648" y="471.282" type="curve" smooth="yes"/>
      <point x="258.648" y="470.687"/>
      <point x="258.762" y="470.174"/>
      <point x="259.589" y="468.027" type="curve" smooth="yes"/>
      <point x="260.101" y="466.702"/>
      <point x="260.926" y="464.664"/>
      <point x="261.425" y="462.064" type="curve"/>
      <point x="264.887" y="460.051"/>
      <point x="267.793" y="459.371"/>
      <point x="271.824" y="455.808" type="curve"/>
      <point x="281.517" y="451.473"/>
      <point x="285.756" y="444.647"/>
      <point x="292.967" y="439.346" type="curve" smooth="yes"/>
      <point x="295.91" y="437.182"/>
      <point x="299.041" y="434.44"/>
      <point x="302.221" y="431.261" type="curve" smooth="yes"/>
      <point x="307.257" y="426.225"/>
      <point x="312.363" y="420.162"/>
      <point x="316.204" y="413.63" type="curve" smooth="yes"/>
      <point x="319.008" y="408.861"/>
      <point x="321.455" y="403.613"/>
      <point x="321.806" y="397.563" type="curve" smooth="yes"/>
      <point x="323.244" y="391.922"/>
      <point x="323.467" y="387.158"/>
      <point x="323.467" y="382.222" type="curve" smooth="yes"/>
      <point x="323.467" y="381.517"/>
      <point x="323.463" y="380.809"/>
      <point x="323.456" y="380.094" type="curve" smooth="yes"/>
      <point x="323.854" y="377.63"/>
      <point x="324.049" y="375.225"/>
      <point x="324.049" y="372.891" type="curve" smooth="yes"/>
      <point x="324.049" y="362.75"/>
      <point x="320.393" y="353.96"/>
      <point x="314.004" y="347.571" type="curve" smooth="yes"/>
      <point x="308.36" y="341.927"/>
      <point x="301.258" y="338.478"/>
      <point x="293.834" y="336.469" type="curve" smooth="yes"/>
      <point x="288.078" y="334.911"/>
      <point x="282.031" y="334.194"/>
      <point x="275.979" y="334.194" type="curve" smooth="yes"/>
      <point x="264.189" y="334.194"/>
      <point x="254.616" y="337.106"/>
      <point x="241.792" y="337.106" type="curve" smooth="yes"/>
      <point x="238.932" y="337.106"/>
      <point x="236.632" y="336.949"/>
      <point x="235.665" y="336.731" type="curve" smooth="yes"/>
      <point x="234.937" y="336.566"/>
      <point x="234.193" y="336.484"/>
      <point x="233.45" y="336.484" type="curve" smooth="yes"/>
      <point x="232.32" y="336.484"/>
      <point x="231.189" y="336.675"/>
      <point x="230.111" y="337.055" type="curve" smooth="yes"/>
      <point x="216.512" y="341.854" type="line" smooth="yes"/>
      <point x="212.843" y="343.149"/>
      <point x="209.853" y="346.992"/>
      <point x="209.853" y="351.282" type="curve" smooth="yes"/>
      <point x="209.853" y="353.842"/>
      <point x="210.828" y="356.402"/>
      <point x="212.779" y="358.354" type="curve" smooth="yes"/>
      <point x="214.73" y="360.305"/>
      <point x="217.29" y="361.28"/>
      <point x="219.851" y="361.28" type="curve" smooth="yes"/>
      <point x="220.98" y="361.28"/>
      <point x="222.111" y="361.09"/>
      <point x="223.188" y="360.71" type="curve" smooth="yes"/>
      <point x="234.318" y="356.781" type="line"/>
      <point x="236.478" y="357.069"/>
      <point x="238.68" y="357.176"/>
      <point x="240.919" y="357.176" type="curve" smooth="yes"/>
      <point x="249.884" y="357.176"/>
      <point x="261.137" y="355.698"/>
      <point x="267.652" y="354.782" type="curve" smooth="yes"/>
      <point x="270.376" y="354.399"/>
      <point x="273.145" y="354.209"/>
      <point x="275.867" y="354.209" type="curve" smooth="yes"/>
      <point x="285.8" y="354.209"/>
      <point x="295.2" y="357.052"/>
      <point x="299.862" y="361.713" type="curve" smooth="yes"/>
      <point x="302.366" y="364.217"/>
      <point x="304.122" y="367.349"/>
      <point x="304.122" y="372.376" type="curve" smooth="yes"/>
      <point x="304.122" y="373.891"/>
      <point x="303.963" y="375.578"/>
      <point x="303.616" y="377.471" type="curve" smooth="yes"/>
      <point x="303.507" y="378.069"/>
      <point x="303.452" y="378.676"/>
      <point x="303.452" y="379.282" type="curve" smooth="yes"/>
      <point x="303.452" y="380.7"/>
      <point x="303.479" y="381.979"/>
      <point x="303.479" y="383.089" type="curve" smooth="yes"/>
      <point x="303.479" y="387.25"/>
      <point x="303.29" y="389.572"/>
      <point x="302.225" y="393.37" type="curve" smooth="yes"/>
      <point x="301.977" y="394.256"/>
      <point x="301.853" y="395.169"/>
      <point x="301.853" y="396.082" type="curve" smooth="yes"/>
      <point x="301.853" y="396.863"/>
      <point x="301.103" y="399.849"/>
      <point x="298.958" y="403.496" type="curve" smooth="yes"/>
      <point x="294.996" y="410.233"/>
      <point x="287.393" y="418.617"/>
      <point x="281.134" y="423.219" type="curve" smooth="yes"/>
      <point x="277.702" y="425.742"/>
      <point x="274.918" y="428.367"/>
      <point x="272.513" y="430.612" type="curve" smooth="yes"/>
      <point x="268.288" y="434.556"/>
      <point x="265.371" y="436.956"/>
      <point x="262.809" y="437.892" type="curve" smooth="yes"/>
      <point x="261.306" y="438.441"/>
      <point x="259.888" y="439.408"/>
      <point x="258.779" y="440.634" type="curve" smooth="yes"/>
      <point x="258.613" y="440.8"/>
      <point x="257.311" y="441.668"/>
      <point x="254.959" y="442.845" type="curve" smooth="yes"/>
      <point x="252.754" y="443.948"/>
      <point x="249.533" y="445.321"/>
      <point x="246.306" y="448.55" type="curve" smooth="yes"/>
      <point x="244.302" y="450.554"/>
      <point x="241.853" y="453.737"/>
      <point x="241.853" y="457.683" type="curve" smooth="yes"/>
      <point x="241.853" y="458.19"/>
      <point x="241.754" y="458.683"/>
      <point x="240.933" y="460.814" type="curve" smooth="yes"/>
      <point x="240.152" y="462.836"/>
      <point x="238.652" y="466.509"/>
      <point x="238.652" y="471.282" type="curve" smooth="yes"/>
      <point x="238.652" y="474.419"/>
      <point x="238.049" y="478.419"/>
      <point x="238.049" y="482.184" type="curve" smooth="yes"/>
      <point x="238.049" y="484.872"/>
      <point x="238.14" y="487.247"/>
      <point x="239.128" y="490.338" type="curve" smooth="yes"/>
      <point x="239.746" y="492.272"/>
      <point x="239.745" y="498.038"/>
      <point x="240.279" y="501.146" type="curve" smooth="yes"/>
      <point x="240.898" y="513.243"/>
      <point x="250.927" y="519.968"/>
      <point x="259.664" y="523.521" type="curve" smooth="yes"/>
      <point x="265.155" y="525.754"/>
      <point x="270.696" y="527.128"/>
      <point x="275.069" y="528.194" type="curve" smooth="yes"/>
      <point x="287.443" y="531.212"/>
      <point x="300.625" y="541.323"/>
      <point x="300.625" y="555.785" type="curve" smooth="yes"/>
      <point x="300.625" y="557.438"/>
      <point x="300.252" y="559.188"/>
    </contour>
  </outline>
</glyph>
<glyph name="acutecomb" format="2">
  <advance width="0"/>
  <unicode hex="0301"/>
  <outline>
    <contour>
      <point x="-6.75586" y="588" type="curve" smooth="yes"/>
      <point x="-6.75586" y="589.384"/>
      <point x="-6.95215" y="590.755"/>
      <point x="-7.08594" y="592.109" type="curve" smooth="yes"/>
      <point x="-6.02441" y="596.782"/>
      <point x="-3.98438" y="600.884"/>
      <point x="-3.07422" y="609.104" type="curve" smooth="yes"/>
      <point x="2.09473" y="624.507"/>
      <point x="13.0713" y="642.106"/>
      <point x="27.793" y="656.829" type="curve" smooth="yes"/>
      <point x="42.6211" y="671.657"/>
      <point x="60.9746" y="683.411"/>
      <point x="79.7031" y="689.005" type="curve"/>
      <point x="82.249" y="689.005" type="line" smooth="yes"/>
      <point x="88.6484" y="689.005"/>
      <point x="95.0479" y="691.444"/>
      <point x="99.9268" y="696.322" type="curve" smooth="yes"/>
      <point x="104.805" y="701.2"/>
      <point x="107.244" y="707.601"/>
      <point x="107.244" y="714" type="curve" smooth="yes"/>
      <point x="107.244" y="720.399"/>
      <point x="104.805" y="726.8"/>
      <point x="99.9268" y="731.678" type="curve" smooth="yes"/>
      <point x="95.0479" y="736.556"/>
      <point x="88.6484" y="738.995"/>
      <point x="82.249" y="738.995" type="curve" smooth="yes"/>
      <point x="76.249" y="738.995" type="line" smooth="yes"/>
      <point x="74.0977" y="738.995"/>
      <point x="71.9453" y="738.72"/>
      <point x="69.8516" y="738.168" type="curve" smooth="yes"/>
      <point x="39.7109" y="730.23"/>
      <point x="13.3389" y="713.085"/>
      <point x="-7.5625" y="692.185" type="curve" smooth="yes"/>
      <point x="-28.3203" y="671.426"/>
      <point x="-43.9805" y="646.795"/>
      <point x="-51.6807" y="621.242" type="curve" smooth="yes"/>
      <point x="-53.0879" y="616.571"/>
      <point x="-52.3203" y="615.055"/>
      <point x="-53.9287" y="609.983" type="curve" smooth="yes"/>
      <point x="-54.9541" y="606.747"/>
      <point x="-56.9951" y="599.761"/>
      <point x="-56.9951" y="591.415" type="curve" smooth="yes"/>
      <point x="-56.9951" y="582.022"/>
      <point x="-54.9219" y="575.815"/>
      <point x="-49.4287" y="570.322" type="curve" smooth="yes"/>
      <point x="-44.5508" y="565.444"/>
      <point x="-38.1504" y="563.005"/>
      <point x="-31.751" y="563.005" type="curve" smooth="yes"/>
      <point x="-25.3516" y="563.005"/>
      <point x="-18.9521" y="565.444"/>
      <point x="-14.0732" y="570.322" type="curve" smooth="yes"/>
      <point x="-9.19531" y="575.2"/>
      <point x="-6.75586" y="581.601"/>
    </contour>
  </outline>
</glyph>
<glyph name="tildecomb" format="2">
  <advance width="0"/>
  <unicode hex="0303"/>
  <outline>
    <contour>
      <point x="-258.037" y="647.52" type="curve" smooth="yes"/>
      <point x="-258.037" y="653.615"/>
      <point x="-256.598" y="659.711"/>
      <point x="-253.72" y="664.358" type="curve" smooth="yes"/>
      <point x="-250.842" y="669.005"/>
      <point x="-247.065" y="671.328"/>
      <point x="-243.29" y="671.328" type="curve" smooth="yes"/>
      <point x="-238.929" y="671.328"/>
      <point x="-235.141" y="668.034"/>
      <point x="-232.081" y="663.095" type="curve" smooth="yes"/>
      <point x="-224.329" y="650.58"/>
      <point x="-215.562" y="638.522"/>
      <point x="-207.167" y="631.64" type="curve" smooth="yes"/>
      <point x="-201.727" y="627.18"/>
      <point x="-196.783" y="624.983"/>
      <point x="-192.101" y="624.983" type="curve" smooth="yes"/>
      <point x="-190.97" y="624.983"/>
      <point x="-189.854" y="625.111"/>
      <point x="-188.75" y="625.367" type="curve" smooth="yes"/>
      <point x="-157.776" y="632.511" type="line"/>
      <point x="-136.071" y="648.278" type="line" smooth="yes"/>
      <point x="-135.092" y="648.99"/>
      <point x="-134.073" y="649.521"/>
      <point x="-133.035" y="649.87" type="curve" smooth="yes"/>
      <point x="-104.716" y="659.395" type="line" smooth="yes"/>
      <point x="-104.092" y="659.604"/>
      <point x="-103.462" y="659.749"/>
      <point x="-102.829" y="659.827" type="curve" smooth="yes"/>
      <point x="-72.1494" y="663.637" type="line" smooth="yes"/>
      <point x="-71.7705" y="663.685"/>
      <point x="-71.3896" y="663.708"/>
      <point x="-71.0098" y="663.708" type="curve" smooth="yes"/>
      <point x="-68.7451" y="663.708"/>
      <point x="-66.4805" y="662.872"/>
      <point x="-64.4092" y="661.2" type="curve" smooth="yes"/>
      <point x="-38.4492" y="640.245" type="line" smooth="yes"/>
      <point x="-37.0674" y="639.13"/>
      <point x="-35.7715" y="637.643"/>
      <point x="-34.6201" y="635.783" type="curve" smooth="yes"/>
      <point x="-31.7217" y="631.104"/>
      <point x="-28.6807" y="626.568"/>
      <point x="-25.9102" y="621.689" type="curve" smooth="yes"/>
      <point x="-12.9307" y="598.829" type="line" smooth="yes"/>
      <point x="-10.3516" y="594.289"/>
      <point x="-9.0625" y="588.52"/>
      <point x="-9.0625" y="582.75" type="curve" smooth="yes"/>
      <point x="-9.0625" y="576.654"/>
      <point x="-10.502" y="570.559"/>
      <point x="-13.3799" y="565.912" type="curve" smooth="yes"/>
      <point x="-16.2588" y="561.266"/>
      <point x="-20.0342" y="558.942"/>
      <point x="-23.8096" y="558.942" type="curve" smooth="yes"/>
      <point x="-27.8145" y="558.942"/>
      <point x="-31.876" y="561.715"/>
      <point x="-34.6895" y="566.671" type="curve" smooth="yes"/>
      <point x="-40.9961" y="577.661"/>
      <point x="-47.0938" y="588.989"/>
      <point x="-53.7812" y="599.364" type="curve"/>
      <point x="-73.9619" y="615.654" type="line"/>
      <point x="-99.5986" y="612.471" type="line"/>
      <point x="-125.41" y="603.79" type="line"/>
      <point x="-147.549" y="587.707" type="line" smooth="yes"/>
      <point x="-148.818" y="586.784"/>
      <point x="-150.153" y="586.166"/>
      <point x="-151.511" y="585.853" type="curve" smooth="yes"/>
      <point x="-184.551" y="578.233" type="line" smooth="yes"/>
      <point x="-187.09" y="577.646"/>
      <point x="-189.593" y="577.372"/>
      <point x="-192.053" y="577.372" type="curve" smooth="yes"/>
      <point x="-202.501" y="577.372"/>
      <point x="-212.168" y="582.314"/>
      <point x="-220.532" y="589.173" type="curve" smooth="yes"/>
      <point x="-233.918" y="600.147"/>
      <point x="-244.719" y="616.021"/>
      <point x="-253.767" y="630.759" type="curve" smooth="yes"/>
      <point x="-256.613" y="635.396"/>
      <point x="-258.037" y="641.458"/>
    </contour>
  </outline>
</glyph>
<glyph name="u0981" format="2">
  <advance width="-29078"/>
  <unicode hex="0981"/>
  <outline>
    <contour>
      <point x="-360" y="946" type="curve" smooth="yes"/>
      <point x="-360" y="978"/>
      <point x="-331" y="1004"/>
      <point x="-296" y="1004" type="curve" smooth="yes"/>
      <point x="-261" y="1004"/>
      <point x="-232" y="978"/>
      <point x="-232" y="946" type="curve" smooth="yes"/>
      <point x="-232" y="914"/>
      <point x="-261" y="888"/>
      <point x="-296" y="888" type="curve" smooth="yes"/>
      <point x="-331" y="888"/>
      <point x="-360" y="914"/>
    </contour>
    <contour>
      <point x="-480.46" y="962.8" type="curve" smooth="yes"/>
      <point x="-478.52" y="893.2" type="line" smooth="yes"/>
      <point x="-449.42" y="871.6" type="line" smooth="yes"/>
      <point x="-400.92" y="857.2" type="line" smooth="yes"/>
      <point x="-313.62" y="845.2" type="line" smooth="yes"/>
      <point x="-137.08" y="845.2" type="line" smooth="yes"/>
      <point x="-130.222" y="851.534"/>
      <point x="-121.173" y="855.82"/>
      <point x="-113.8" y="866.8" type="curve" smooth="yes"/>
      <point x="-100.636" y="886.403"/>
      <point x="-57.9424" y="970"/>
      <point x="-42.0195" y="970" type="curve" smooth="yes"/>
      <point x="-17.6914" y="966.022"/>
      <point x="-20.4756" y="926.805"/>
      <point x="-18.7402" y="902.8" type="curve" smooth="yes"/>
      <point x="-17.1523" y="880.83"/>
      <point x="-22.6201" y="862.288"/>
      <point x="-22.6201" y="842.8" type="curve" smooth="yes"/>
      <point x="-29.8398" y="828.297"/>
      <point x="-28.457" y="807.898"/>
      <point x="-42.0195" y="802" type="curve" smooth="yes"/>
      <point x="-44.125" y="801.085"/>
      <point x="-65.2998" y="778"/>
      <point x="-65.2998" y="778" type="curve" smooth="yes"/>
      <point x="-107.98" y="761.2" type="line" smooth="yes"/>
      <point x="-177.82" y="756.4" type="line" smooth="yes"/>
      <point x="-400.92" y="761.2" type="line" smooth="yes"/>
      <point x="-445.54" y="770.8" type="line" smooth="yes"/>
      <point x="-457.074" y="776.635"/>
      <point x="-470.374" y="774.493"/>
      <point x="-478.52" y="787.6" type="curve" smooth="yes"/>
      <point x="-502.612" y="796.064"/>
      <point x="-532.106" y="814.453"/>
      <point x="-536.72" y="850" type="curve" smooth="yes"/>
      <point x="-542.831" y="873.672"/>
      <point x="-547.784" y="898.852"/>
      <point x="-546.42" y="926.8" type="curve" smooth="yes"/>
      <point x="-545.245" y="950.868"/>
      <point x="-554.995" y="970"/>
      <point x="-528.96" y="970" type="curve" smooth="yes"/>
      <point x="-521.182" y="970"/>
      <point x="-513.702" y="991.6"/>
      <point x="-501.8" y="991.6" type="curve" smooth="yes"/>
      <point x="-481.195" y="991.6"/>
      <point x="-484.729" y="973.918"/>
    </contour>
  </outline>
</glyph>
<glyph name="u0987" format="2">
  <advance width="433"/>
  <unicode hex="0987"/>
  <outline>
    <contour>
      <point x="-88" y="966" type="curve" smooth="yes"/>
      <point x="-85.9525" y="865.671"/>
      <point x="-27.4686" y="848.956"/>
      <point x="84" y="847" type="curve"/>
      <point x="165" y="847" type="line" smooth="yes"/>
      <point x="244.092" y="847"/>
      <point x="299.829" y="835.696"/>
      <point x="345" y="796" type="curve" smooth="yes"/>
      <point x="376" y="769"/>
      <point x="394" y="733"/>
      <point x="398" y="685" type="curve" smooth="yes"/>
      <point x="399" y="672" type="line"/>
      <point x="418" y="672"/>
      <point x="437" y="673"/>
      <point x="454" y="673" type="curve"/>
      <point x="454" y="610" type="line"/>
      <point x="183" y="610" type="line" smooth="yes"/>
      <point x="180.118" y="610"/>
      <point x="210.737" y="599.017"/>
      <point x="216" y="592" type="curve"/>
      <point x="223" y="594"/>
      <point x="230" y="594"/>
      <point x="238" y="594" type="curve" smooth="yes"/>
      <point x="279" y="594"/>
      <point x="315" y="582"/>
      <point x="347" y="558" type="curve" smooth="yes"/>
      <point x="388" y="526"/>
      <point x="409" y="478"/>
      <point x="409" y="416" type="curve" smooth="yes"/>
      <point x="409" y="405"/>
      <point x="408" y="393"/>
      <point x="407" y="382" type="curve" smooth="yes"/>
      <point x="382" y="286"/>
      <point x="296" y="229"/>
      <point x="149" y="211" type="curve"/>
      <point x="500" y="-6" type="line"/>
      <point x="501" y="-10"/>
      <point x="502" y="-14"/>
      <point x="502" y="-18" type="curve" smooth="yes"/>
      <point x="502" y="-36"/>
      <point x="492" y="-45"/>
      <point x="473" y="-44" type="curve"/>
      <point x="470" y="-44" type="line"/>
      <point x="28" y="227" type="line"/>
      <point x="22" y="235"/>
      <point x="19" y="243"/>
      <point x="19" y="252" type="curve" smooth="yes"/>
      <point x="19" y="271"/>
      <point x="27" y="280"/>
      <point x="44" y="280" type="curve" smooth="yes"/>
      <point x="47" y="280"/>
      <point x="51" y="279"/>
      <point x="55" y="278" type="curve" smooth="yes"/>
      <point x="82" y="274"/>
      <point x="109" y="272"/>
      <point x="133" y="272" type="curve" smooth="yes"/>
      <point x="244" y="272"/>
      <point x="316" y="310"/>
      <point x="349" y="387" type="curve"/>
      <point x="351" y="397"/>
      <point x="352" y="407"/>
      <point x="352" y="418" type="curve" smooth="yes"/>
      <point x="352" y="488.186"/>
      <point x="305.945" y="536"/>
      <point x="235" y="536" type="curve" smooth="yes"/>
      <point x="158" y="536"/>
      <point x="117" y="496"/>
      <point x="113" y="416" type="curve"/>
      <point x="107" y="407"/>
      <point x="98" y="402"/>
      <point x="85" y="402" type="curve" smooth="yes"/>
      <point x="71" y="402"/>
      <point x="62" y="409"/>
      <point x="57" y="423" type="curve"/>
      <point x="57" y="490.166"/>
      <point x="100.697" y="554.238"/>
      <point x="151" y="574" type="curve"/>
      <point x="107" y="610" type="line"/>
      <point x="-7" y="610" type="line"/>
      <point x="-7" y="673" type="line"/>
      <point x="335" y="671" type="line"/>
      <point x="331.908" y="746.765"/>
      <point x="267.574" y="780.081"/>
      <point x="180" y="783" type="curve"/>
      <point x="103" y="783" type="line"/>
      <point x="10" y="794"/>
      <point x="-50" y="807"/>
      <point x="-75" y="820" type="curve" smooth="yes"/>
      <point x="-116" y="842"/>
      <point x="-140" y="888"/>
      <point x="-146" y="959" type="curve" smooth="yes"/>
      <point x="-147.755" y="974.795"/>
      <point x="-131.257" y="979"/>
      <point x="-113" y="979" type="curve" smooth="yes"/>
      <point x="-96" y="979"/>
      <point x="-88" y="975"/>
    </contour>
  </outline>
</glyph>
<glyph name="u098c" format="2">
  <advance width="641"/>
  <unicode hex="098C"/>
  <outline>
    <contour>
      <point x="358" y="102" type="curve"/>
      <point x="436.688" y="121.672"/>
      <point x="512" y="175.762"/>
      <point x="512" y="265" type="curve" smooth="yes"/>
      <point x="512" y="278"/>
      <point x="510" y="291"/>
      <point x="506" y="304" type="curve" smooth="yes"/>
      <point x="494" y="356"/>
      <point x="461" y="399"/>
      <point x="404" y="434" type="curve" smooth="yes"/>
      <point x="373" y="452"/>
      <point x="321" y="474"/>
      <point x="247" y="500" type="curve" smooth="yes"/>
      <point x="168" y="528"/>
      <point x="119" y="547"/>
      <point x="101" y="557" type="curve" smooth="yes"/>
      <point x="58" y="581"/>
      <point x="37" y="613"/>
      <point x="37" y="652" type="curve" smooth="yes"/>
      <point x="38" y="670"/>
      <point x="45" y="678"/>
      <point x="62" y="678" type="curve" smooth="yes"/>
      <point x="82" y="678"/>
      <point x="94.9942" y="671.053"/>
      <point x="95" y="655" type="curve" smooth="yes"/>
      <point x="95.01" y="627.275"/>
      <point x="120.204" y="608.898"/>
      <point x="144" y="597" type="curve" smooth="yes"/>
      <point x="157" y="590"/>
      <point x="198" y="575"/>
      <point x="268" y="551" type="curve" smooth="yes"/>
      <point x="357" y="520"/>
      <point x="424" y="488"/>
      <point x="470" y="453" type="curve" smooth="yes"/>
      <point x="537" y="402"/>
      <point x="570" y="341"/>
      <point x="570" y="270" type="curve" smooth="yes"/>
      <point x="570" y="248"/>
      <point x="569.126" y="224.338"/>
      <point x="561" y="201" type="curve" smooth="yes"/>
      <point x="530.163" y="112.437"/>
      <point x="424.805" y="43.356"/>
      <point x="312" y="35" type="curve"/>
      <point x="289" y="39"/>
      <point x="276" y="46"/>
      <point x="276" y="57" type="curve" smooth="yes"/>
      <point x="276" y="62"/>
      <point x="279" y="68"/>
      <point x="285" y="76" type="curve"/>
      <point x="291" y="93"/>
      <point x="297" y="110"/>
      <point x="303" y="127" type="curve" smooth="yes"/>
      <point x="309" y="144"/>
      <point x="312" y="160"/>
      <point x="312" y="174" type="curve" smooth="yes"/>
      <point x="312" y="192"/>
      <point x="310.587" y="210.719"/>
      <point x="301" y="231" type="curve" smooth="yes"/>
      <point x="284.587" y="265.719"/>
      <point x="253" y="282"/>
      <point x="214" y="282" type="curve" smooth="yes"/>
      <point x="159.342" y="282"/>
      <point x="123" y="237.377"/>
      <point x="123" y="184" type="curve" smooth="yes"/>
      <point x="123" y="161"/>
      <point x="129" y="137"/>
      <point x="140" y="112" type="curve"/>
      <point x="142.935" y="91.4569"/>
      <point x="127.283" y="80"/>
      <point x="109" y="80" type="curve" smooth="yes"/>
      <point x="97" y="80"/>
      <point x="90" y="84"/>
      <point x="86" y="91" type="curve" smooth="yes"/>
      <point x="71" y="121"/>
      <point x="64" y="152"/>
      <point x="64" y="184" type="curve" smooth="yes"/>
      <point x="64" y="275.572"/>
      <point x="132.207" y="340"/>
      <point x="216" y="340" type="curve" smooth="yes"/>
      <point x="310.553" y="340"/>
      <point x="371" y="264.785"/>
      <point x="371" y="172" type="curve" smooth="yes"/>
      <point x="371" y="151"/>
      <point x="366" y="127"/>
    </contour>
  </outline>
</glyph>
<glyph name="u098f" format="2">
  <advance width="677"/>
  <unicode hex="098F"/>
  <outline>
    <contour>
      <point x="390" y="125" type="curve" smooth="yes"/>
      <point x="356.877" y="125"/>
      <point x="244.183" y="106"/>
      <point x="210" y="106" type="curve" smooth="yes"/>
      <point x="192" y="106"/>
      <point x="175.419" y="105.966"/>
      <point x="161" y="111" type="curve" smooth="yes"/>
      <point x="73.8718" y="141.421"/>
      <point x="32" y="196.995"/>
      <point x="32" y="312" type="curve" smooth="yes"/>
      <point x="32" y="330"/>
      <point x="33" y="350"/>
      <point x="35" y="373" type="curve"/>
      <point x="44" y="381"/>
      <point x="53" y="385"/>
      <point x="62" y="385" type="curve" smooth="yes"/>
      <point x="73" y="385"/>
      <point x="83" y="379"/>
      <point x="92" y="369" type="curve"/>
      <point x="90" y="334"/>
      <point x="89" y="313"/>
      <point x="89" y="306" type="curve" smooth="yes"/>
      <point x="89" y="249"/>
      <point x="109" y="208"/>
      <point x="146" y="182" type="curve" smooth="yes"/>
      <point x="163" y="170"/>
      <point x="184" y="164"/>
      <point x="209" y="164" type="curve" smooth="yes"/>
      <point x="224" y="164"/>
      <point x="251" y="167"/>
      <point x="289" y="174" type="curve" smooth="yes"/>
      <point x="327" y="181"/>
      <point x="357" y="184"/>
      <point x="379" y="184" type="curve" smooth="yes"/>
      <point x="440" y="184"/>
      <point x="496" y="164"/>
      <point x="547" y="123" type="curve"/>
      <point x="547" y="536" type="line" smooth="yes"/>
      <point x="547" y="584"/>
      <point x="532" y="608"/>
      <point x="499" y="608" type="curve" smooth="yes"/>
      <point x="482" y="608"/>
      <point x="458" y="600"/>
      <point x="429" y="585" type="curve" smooth="yes"/>
      <point x="363" y="551"/>
      <point x="330" y="502"/>
      <point x="330" y="438" type="curve" smooth="yes"/>
      <point x="330" y="409"/>
      <point x="336" y="376"/>
      <point x="349" y="337" type="curve"/>
      <point x="347" y="320"/>
      <point x="336" y="311"/>
      <point x="316" y="311" type="curve" smooth="yes"/>
      <point x="305" y="311"/>
      <point x="298" y="314"/>
      <point x="291" y="321" type="curve"/>
      <point x="276" y="355"/>
      <point x="268" y="390"/>
      <point x="268" y="426" type="curve" smooth="yes"/>
      <point x="268" y="480"/>
      <point x="284" y="528"/>
      <point x="317" y="572" type="curve" smooth="yes"/>
      <point x="350" y="615"/>
      <point x="395" y="644"/>
      <point x="451" y="659" type="curve" smooth="yes"/>
      <point x="466" y="664"/>
      <point x="480" y="667"/>
      <point x="493" y="667" type="curve" smooth="yes"/>
      <point x="521" y="667"/>
      <point x="548" y="656"/>
      <point x="574" y="633" type="curve" smooth="yes"/>
      <point x="598" y="612"/>
      <point x="609" y="581"/>
      <point x="609" y="540" type="curve" smooth="yes"/>
      <point x="609" y="60" type="line" smooth="yes"/>
      <point x="609" y="44.8759"/>
      <point x="579.285" y="36"/>
      <point x="563" y="36" type="curve" smooth="yes"/>
      <point x="555" y="36"/>
      <point x="550" y="38"/>
      <point x="547" y="42" type="curve" smooth="yes"/>
      <point x="505" y="97"/>
      <point x="453" y="125"/>
    </contour>
  </outline>
</glyph>
<glyph name="u0990" format="2">
  <advance width="774"/>
  <unicode hex="0990"/>
  <outline>
    <contour>
      <point x="377" y="125" type="curve" smooth="yes"/>
      <point x="344.187" y="125"/>
      <point x="231.865" y="106"/>
      <point x="198" y="106" type="curve" smooth="yes"/>
      <point x="180" y="106"/>
      <point x="162.419" y="105.966"/>
      <point x="148" y="111" type="curve" smooth="yes"/>
      <point x="60.8718" y="141.421"/>
      <point x="19" y="196.995"/>
      <point x="19" y="312" type="curve" smooth="yes"/>
      <point x="19" y="330"/>
      <point x="20" y="350"/>
      <point x="22" y="373" type="curve"/>
      <point x="31" y="381"/>
      <point x="41" y="385"/>
      <point x="50" y="385" type="curve" smooth="yes"/>
      <point x="61" y="385"/>
      <point x="71" y="379"/>
      <point x="80" y="369" type="curve"/>
      <point x="78" y="334"/>
      <point x="77" y="313"/>
      <point x="77" y="306" type="curve" smooth="yes"/>
      <point x="77" y="249"/>
      <point x="96" y="208"/>
      <point x="133" y="182" type="curve" smooth="yes"/>
      <point x="150" y="170"/>
      <point x="172" y="164"/>
      <point x="197" y="164" type="curve" smooth="yes"/>
      <point x="212" y="164"/>
      <point x="238" y="167"/>
      <point x="276" y="174" type="curve" smooth="yes"/>
      <point x="314" y="181"/>
      <point x="345" y="184"/>
      <point x="367" y="184" type="curve" smooth="yes"/>
      <point x="428" y="184"/>
      <point x="484" y="164"/>
      <point x="535" y="123" type="curve"/>
      <point x="535" y="536" type="line" smooth="yes"/>
      <point x="535" y="584"/>
      <point x="519" y="608"/>
      <point x="486" y="608" type="curve" smooth="yes"/>
      <point x="469" y="608"/>
      <point x="445" y="600"/>
      <point x="416" y="585" type="curve" smooth="yes"/>
      <point x="350" y="551"/>
      <point x="317" y="502"/>
      <point x="317" y="438" type="curve" smooth="yes"/>
      <point x="317" y="409"/>
      <point x="323" y="376"/>
      <point x="336" y="337" type="curve"/>
      <point x="334" y="320"/>
      <point x="324" y="311"/>
      <point x="304" y="311" type="curve" smooth="yes"/>
      <point x="293" y="311"/>
      <point x="285" y="314"/>
      <point x="278" y="321" type="curve"/>
      <point x="263" y="355"/>
      <point x="255" y="390"/>
      <point x="255" y="426" type="curve" smooth="yes"/>
      <point x="255" y="480"/>
      <point x="272" y="528"/>
      <point x="305" y="572" type="curve" smooth="yes"/>
      <point x="338" y="615"/>
      <point x="382" y="644"/>
      <point x="438" y="659" type="curve" smooth="yes"/>
      <point x="453" y="664"/>
      <point x="467" y="667"/>
      <point x="480" y="667" type="curve" smooth="yes"/>
      <point x="508" y="667"/>
      <point x="535" y="656"/>
      <point x="561" y="633" type="curve" smooth="yes"/>
      <point x="585" y="612"/>
      <point x="597" y="581"/>
      <point x="597" y="540" type="curve" smooth="yes"/>
      <point x="597" y="359" type="line"/>
      <point x="630" y="368"/>
      <point x="656" y="389"/>
      <point x="677" y="421" type="curve" smooth="yes"/>
      <point x="700" y="456"/>
      <point x="711" y="492"/>
      <point x="711" y="530" type="curve" smooth="yes"/>
      <point x="711" y="599"/>
      <point x="673" y="640"/>
      <point x="597" y="655" type="curve" smooth="yes"/>
      <point x="472" y="680"/>
      <point x="410" y="724"/>
      <point x="410" y="786" type="curve" smooth="yes"/>
      <point x="410" y="829"/>
      <point x="434" y="864"/>
      <point x="483" y="890" type="curve"/>
      <point x="504.251" y="892.656"/>
      <point x="524" y="878.923"/>
      <point x="524" y="860" type="curve" smooth="yes"/>
      <point x="524" y="854"/>
      <point x="522" y="848"/>
      <point x="518" y="843" type="curve" smooth="yes"/>
      <point x="493" y="817"/>
      <point x="480" y="796"/>
      <point x="480" y="781" type="curve" smooth="yes"/>
      <point x="480" y="763"/>
      <point x="506" y="747"/>
      <point x="557" y="733" type="curve" smooth="yes"/>
      <point x="628" y="714"/>
      <point x="676" y="697"/>
      <point x="702" y="680" type="curve" smooth="yes"/>
      <point x="750" y="650"/>
      <point x="773" y="603"/>
      <point x="773" y="540" type="curve" smooth="yes"/>
      <point x="773" y="486"/>
      <point x="757" y="434"/>
      <point x="723" y="385" type="curve" smooth="yes"/>
      <point x="691" y="337"/>
      <point x="650" y="305"/>
      <point x="597" y="289" type="curve"/>
      <point x="597" y="60" type="line" smooth="yes"/>
      <point x="597" y="45.6343"/>
      <point x="566.846" y="36"/>
      <point x="551" y="36" type="curve" smooth="yes"/>
      <point x="543" y="36"/>
      <point x="538" y="38"/>
      <point x="535" y="42" type="curve" smooth="yes"/>
      <point x="493" y="97"/>
      <point x="440" y="125"/>
    </contour>
  </outline>
</glyph>
<glyph name="u0997" format="2">
  <advance width="615"/>
  <unicode hex="0997"/>
  <anchor x="514" y="36" name="Anchor-1"/>
  <anchor x="547" y="667" name="Anchor-0"/>
  <outline>
    <contour>
      <point x="252" y="316" type="curve" smooth="yes"/>
      <point x="252" y="375.393"/>
      <point x="203.62" y="428"/>
      <point x="144" y="428" type="curve" smooth="yes"/>
      <point x="122" y="428"/>
      <point x="100" y="422"/>
      <point x="79" y="409" type="curve" smooth="yes"/>
      <point x="70" y="403"/>
      <point x="61" y="401"/>
      <point x="53" y="401" type="curve" smooth="yes"/>
      <point x="38" y="401"/>
      <point x="31" y="409"/>
      <point x="31" y="424" type="curve" smooth="yes"/>
      <point x="31" y="428"/>
      <point x="31" y="432"/>
      <point x="33" y="437" type="curve" smooth="yes"/>
      <point x="62.7076" y="547.908"/>
      <point x="120.087" y="602.191"/>
      <point x="231" y="633" type="curve" smooth="yes"/>
      <point x="251" y="637"/>
      <point x="270" y="638"/>
      <point x="288" y="638" type="curve" smooth="yes"/>
      <point x="362" y="638"/>
      <point x="427" y="607"/>
      <point x="484" y="545" type="curve"/>
      <point x="484" y="673" type="line"/>
      <point x="624" y="673" type="line"/>
      <point x="624" y="610" type="line"/>
      <point x="546" y="610" type="line"/>
      <point x="546" y="53" type="line" smooth="yes"/>
      <point x="546" y="38"/>
      <point x="536" y="31"/>
      <point x="515" y="31" type="curve" smooth="yes"/>
      <point x="494" y="31"/>
      <point x="484" y="38"/>
      <point x="484" y="53" type="curve" smooth="yes"/>
      <point x="484" y="382" type="line" smooth="yes"/>
      <point x="484" y="501.654"/>
      <point x="373.537" y="580"/>
      <point x="276" y="580" type="curve" smooth="yes"/>
      <point x="206" y="580"/>
      <point x="152" y="548"/>
      <point x="113" y="484" type="curve"/>
      <point x="226.94" y="495.394"/>
      <point x="310" y="420.282"/>
      <point x="310" y="316" type="curve" smooth="yes"/>
      <point x="310" y="248"/>
      <point x="279" y="197"/>
      <point x="216" y="162" type="curve" smooth="yes"/>
      <point x="212" y="161"/>
      <point x="208" y="160"/>
      <point x="204" y="160" type="curve" smooth="yes"/>
      <point x="187.964" y="160"/>
      <point x="171" y="171.556"/>
      <point x="171" y="187" type="curve" smooth="yes"/>
      <point x="171" y="195"/>
      <point x="175" y="202"/>
      <point x="182" y="209" type="curve" smooth="yes"/>
      <point x="229" y="236"/>
      <point x="252" y="271"/>
    </contour>
  </outline>
</glyph>
<glyph name="u0998" format="2">
  <advance width="537"/>
  <unicode hex="0998"/>
  <anchor x="435" y="34" name="Anchor-1"/>
  <anchor x="427" y="667" name="Anchor-0"/>
  <outline>
    <contour>
      <point x="209" y="484" type="line"/>
      <point x="228" y="484"/>
      <point x="238" y="474"/>
      <point x="238" y="455" type="curve" smooth="yes"/>
      <point x="238" y="448"/>
      <point x="235" y="441"/>
      <point x="230" y="435" type="curve" smooth="yes"/>
      <point x="128" y="315" type="line"/>
      <point x="406" y="121" type="line"/>
      <point x="406" y="610" type="line"/>
      <point x="129" y="610" type="line"/>
      <point x="100" y="594"/>
      <point x="86" y="573"/>
      <point x="86" y="548" type="curve" smooth="yes"/>
      <point x="86" y="508.207"/>
      <point x="125.159" y="470.351"/>
      <point x="166" y="477" type="curve" smooth="yes"/>
    </contour>
    <contour>
      <point x="139" y="420" type="line"/>
      <point x="81.0145" y="429.352"/>
      <point x="30" y="477.298"/>
      <point x="30" y="543" type="curve" smooth="yes"/>
      <point x="30" y="565"/>
      <point x="36" y="588"/>
      <point x="47" y="610" type="curve"/>
      <point x="-9" y="610" type="line"/>
      <point x="-9" y="673" type="line"/>
      <point x="546" y="673" type="line"/>
      <point x="546" y="610" type="line"/>
      <point x="468" y="610" type="line"/>
      <point x="468" y="62" type="line" smooth="yes"/>
      <point x="468" y="47"/>
      <point x="455" y="39"/>
      <point x="431" y="39" type="curve" smooth="yes"/>
      <point x="421" y="39"/>
      <point x="413" y="41"/>
      <point x="406" y="46" type="curve" smooth="yes"/>
      <point x="66" y="287" type="line"/>
      <point x="57" y="291"/>
      <point x="52" y="298"/>
      <point x="52" y="307" type="curve" smooth="yes"/>
      <point x="52" y="314"/>
      <point x="55" y="321"/>
      <point x="61" y="328" type="curve" smooth="yes"/>
    </contour>
  </outline>
</glyph>
<glyph name="u09a5" format="2">
  <advance width="561"/>
  <unicode hex="09A5"/>
  <anchor x="461" y="41" name="Anchor-1"/>
  <anchor x="500" y="667" name="Anchor-0"/>
  <outline>
    <contour>
      <point x="429" y="610" type="line" smooth="yes"/>
      <point x="429" y="646.379"/>
      <point x="454.774" y="673"/>
      <point x="491" y="673" type="curve" smooth="yes"/>
      <point x="567" y="673" type="line"/>
      <point x="567" y="610" type="line"/>
      <point x="491" y="610" type="line"/>
      <point x="491" y="60" type="line" smooth="yes"/>
      <point x="491" y="47"/>
      <point x="479" y="40"/>
      <point x="453" y="40" type="curve" smooth="yes"/>
      <point x="443" y="40"/>
      <point x="435" y="42"/>
      <point x="429" y="46" type="curve" smooth="yes"/>
      <point x="123" y="274" type="line"/>
      <point x="119" y="283"/>
      <point x="116" y="292"/>
      <point x="116" y="299" type="curve" smooth="yes"/>
      <point x="116" y="310"/>
      <point x="120" y="318"/>
      <point x="129" y="321" type="curve" smooth="yes"/>
      <point x="164" y="335"/>
      <point x="196" y="360"/>
      <point x="224" y="397" type="curve" smooth="yes"/>
      <point x="252" y="434"/>
      <point x="266" y="469"/>
      <point x="266" y="504" type="curve" smooth="yes"/>
      <point x="266" y="547"/>
      <point x="243.499" y="577.948"/>
      <point x="199" y="592" type="curve" smooth="yes"/>
      <point x="186.499" y="595.948"/>
      <point x="174" y="595"/>
      <point x="164" y="595" type="curve" smooth="yes"/>
      <point x="104" y="595"/>
      <point x="73.9938" y="559.746"/>
      <point x="69" y="489" type="curve" smooth="yes"/>
      <point x="67.9938" y="474.746"/>
      <point x="57" y="468"/>
      <point x="38" y="468" type="curve" smooth="yes"/>
      <point x="25" y="468"/>
      <point x="17" y="473"/>
      <point x="13" y="482" type="curve"/>
      <point x="7.06373" y="594.789"/>
      <point x="55.3613" y="653"/>
      <point x="164" y="653" type="curve" smooth="yes"/>
      <point x="255.777" y="653"/>
      <point x="322" y="594.087"/>
      <point x="322" y="504" type="curve" smooth="yes"/>
      <point x="322" y="469"/>
      <point x="312" y="432"/>
      <point x="293" y="394" type="curve" smooth="yes"/>
      <point x="276" y="361"/>
      <point x="243" y="327"/>
      <point x="194" y="292" type="curve"/>
      <point x="429" y="117" type="line"/>
    </contour>
  </outline>
</glyph>
<glyph name="u09a7" format="2">
  <advance width="474"/>
  <unicode hex="09A7"/>
  <anchor x="368" y="34" name="Anchor-1"/>
  <anchor x="407" y="653" name="Anchor-0"/>
  <outline>
    <contour>
      <point x="346" y="121" type="line"/>
      <point x="346" y="495" type="line"/>
      <point x="101" y="344" type="line"/>
    </contour>
    <contour>
      <point x="484" y="673" type="line"/>
      <point x="484" y="610" type="line"/>
      <point x="408" y="610" type="line"/>
      <point x="408" y="53" type="line" smooth="yes"/>
      <point x="408" y="42"/>
      <point x="395" y="37"/>
      <point x="370" y="37" type="curve" smooth="yes"/>
      <point x="360" y="37"/>
      <point x="352" y="39"/>
      <point x="346" y="42" type="curve"/>
      <point x="36" y="328" type="line" smooth="yes"/>
      <point x="32" y="333"/>
      <point x="30" y="339"/>
      <point x="30" y="347" type="curve" smooth="yes"/>
      <point x="30" y="359"/>
      <point x="34" y="370"/>
      <point x="43" y="380" type="curve"/>
      <point x="133" y="432" type="line"/>
      <point x="81" y="455"/>
      <point x="46" y="489"/>
      <point x="29" y="534" type="curve" smooth="yes"/>
      <point x="28" y="542"/>
      <point x="27" y="550"/>
      <point x="27" y="558" type="curve" smooth="yes"/>
      <point x="27" y="636.818"/>
      <point x="96.5256" y="671"/>
      <point x="181" y="671" type="curve"/>
      <point x="193" y="668"/>
      <point x="199" y="659"/>
      <point x="199" y="646" type="curve" smooth="yes"/>
      <point x="199" y="629"/>
      <point x="193" y="618"/>
      <point x="182" y="612" type="curve"/>
      <point x="117" y="612"/>
      <point x="85" y="595"/>
      <point x="85" y="562" type="curve" smooth="yes"/>
      <point x="85" y="555"/>
      <point x="87" y="546"/>
      <point x="90" y="538" type="curve" smooth="yes"/>
      <point x="113" y="499"/>
      <point x="147" y="480"/>
      <point x="192" y="480" type="curve" smooth="yes"/>
      <point x="199" y="480"/>
      <point x="207" y="481"/>
      <point x="214" y="482" type="curve"/>
      <point x="346" y="564" type="line"/>
      <point x="346" y="610" type="line" smooth="yes"/>
      <point x="346" y="652"/>
      <point x="367" y="673"/>
      <point x="408" y="673" type="curve" smooth="yes"/>
    </contour>
  </outline>
</glyph>
<glyph name="u09c7" format="2">
  <advance width="317"/>
  <unicode hex="09C7"/>
  <outline>
    <contour>
      <point x="317" y="668" type="line"/>
      <point x="317" y="614" type="line"/>
      <point x="228.075" y="599.179"/>
      <point x="176.668" y="583.404"/>
      <point x="126" y="524" type="curve" smooth="yes"/>
      <point x="83" y="474"/>
      <point x="61" y="405"/>
      <point x="61" y="320" type="curve" smooth="yes"/>
      <point x="61" y="203.897"/>
      <point x="112.62" y="117.845"/>
      <point x="204" y="95" type="curve" smooth="yes"/>
      <point x="211" y="93"/>
      <point x="220" y="92"/>
      <point x="229" y="93" type="curve" smooth="yes"/>
      <point x="239" y="94" type="line"/>
      <point x="257" y="97"/>
      <point x="268" y="99"/>
      <point x="273" y="99" type="curve" smooth="yes"/>
      <point x="294" y="99"/>
      <point x="304" y="90"/>
      <point x="304" y="71" type="curve" smooth="yes"/>
      <point x="304" y="62"/>
      <point x="301" y="55"/>
      <point x="295" y="50" type="curve"/>
      <point x="266.49" y="37.5267"/>
      <point x="254.553" y="35"/>
      <point x="223" y="35" type="curve" smooth="yes"/>
      <point x="161" y="35"/>
      <point x="108" y="63"/>
      <point x="66" y="120" type="curve" smooth="yes"/>
      <point x="-3.00592" y="213.777"/>
      <point x="-17.8049" y="350.752"/>
      <point x="32" y="473" type="curve" smooth="yes"/>
      <point x="43" y="500"/>
      <point x="56.5235" y="528.078"/>
      <point x="75" y="553" type="curve" smooth="yes"/>
      <point x="99.5235" y="586.078"/>
      <point x="134" y="604"/>
      <point x="173" y="611" type="curve"/>
      <point x="-7" y="611" type="line"/>
      <point x="-7" y="668" type="line"/>
    </contour>
  </outline>
</glyph>
<glyph name="u09cb" format="2">
  <advance width="708"/>
  <unicode hex="09CB"/>
  <outline>
    <contour>
      <point x="315" y="668" type="line"/>
      <point x="315" y="614" type="line"/>
      <point x="225.857" y="599.143"/>
      <point x="175.705" y="583.448"/>
      <point x="125" y="524" type="curve" smooth="yes"/>
      <point x="82" y="474"/>
      <point x="60" y="405"/>
      <point x="60" y="320" type="curve" smooth="yes"/>
      <point x="60" y="203.142"/>
      <point x="110.17" y="117.958"/>
      <point x="202" y="95" type="curve" smooth="yes"/>
      <point x="220.167" y="89.8094"/>
      <point x="260.449" y="99"/>
      <point x="271" y="99" type="curve" smooth="yes"/>
      <point x="292" y="99"/>
      <point x="302" y="90"/>
      <point x="302" y="71" type="curve" smooth="yes"/>
      <point x="302" y="62"/>
      <point x="299" y="55"/>
      <point x="293" y="50" type="curve"/>
      <point x="264.49" y="37.5267"/>
      <point x="252.553" y="35"/>
      <point x="221" y="35" type="curve" smooth="yes"/>
      <point x="159" y="35"/>
      <point x="106" y="63"/>
      <point x="64" y="120" type="curve" smooth="yes"/>
      <point x="-5.77827" y="214.827"/>
      <point x="-18.8688" y="350.595"/>
      <point x="31" y="473" type="curve" smooth="yes"/>
      <point x="42" y="500"/>
      <point x="54.5235" y="528.078"/>
      <point x="73" y="553" type="curve" smooth="yes"/>
      <point x="97.5235" y="586.078"/>
      <point x="132" y="604"/>
      <point x="171" y="611" type="curve"/>
      <point x="-8" y="611" type="line"/>
      <point x="-8" y="668" type="line"/>
    </contour>
    <contour>
      <point x="756" y="673" type="line"/>
      <point x="756" y="610" type="line"/>
      <point x="676" y="610" type="line"/>
      <point x="676" y="62" type="line" smooth="yes"/>
      <point x="676" y="52"/>
      <point x="665" y="47"/>
      <point x="644" y="47" type="curve" smooth="yes"/>
      <point x="624" y="47"/>
      <point x="614" y="53"/>
      <point x="614" y="64" type="curve" smooth="yes"/>
      <point x="614" y="610" type="line"/>
      <point x="508" y="610" type="line"/>
      <point x="508" y="673" type="line"/>
    </contour>
  </outline>
</glyph>
<glyph name="u09e0" format="2">
  <advance width="658"/>
  <unicode hex="09E0"/>
  <outline>
    <contour>
      <point x="406" y="123" type="line"/>
      <point x="406" y="491" type="line"/>
      <point x="164" y="342" type="line"/>
    </contour>
    <contour>
      <point x="576" y="671" type="line" smooth="yes"/>
      <point x="576" y="682"/>
      <point x="586" y="688"/>
      <point x="607" y="688" type="curve" smooth="yes"/>
      <point x="628" y="688"/>
      <point x="638" y="682"/>
      <point x="638" y="671" type="curve" smooth="yes"/>
      <point x="638" y="162" type="line" smooth="yes"/>
      <point x="638" y="145"/>
      <point x="625" y="137"/>
      <point x="601" y="137" type="curve" smooth="yes"/>
      <point x="589" y="137"/>
      <point x="581" y="140"/>
      <point x="576" y="146" type="curve" smooth="yes"/>
      <point x="468" y="272" type="line"/>
      <point x="468" y="57" type="line" smooth="yes"/>
      <point x="468" y="39"/>
      <point x="455" y="31"/>
      <point x="428" y="31" type="curve" smooth="yes"/>
      <point x="419" y="31"/>
      <point x="412" y="33"/>
      <point x="406" y="38" type="curve" smooth="yes"/>
      <point x="95" y="328" type="line" smooth="yes"/>
      <point x="90" y="333"/>
      <point x="88" y="338"/>
      <point x="88" y="344" type="curve" smooth="yes"/>
      <point x="88" y="354"/>
      <point x="93" y="364"/>
      <point x="102" y="373" type="curve"/>
      <point x="325" y="513" type="line"/>
      <point x="280" y="562" type="line"/>
      <point x="247" y="524"/>
      <point x="208" y="505"/>
      <point x="163" y="505" type="curve" smooth="yes"/>
      <point x="105" y="505"/>
      <point x="60" y="531"/>
      <point x="25" y="583" type="curve" smooth="yes"/>
      <point x="24" y="586"/>
      <point x="24" y="589"/>
      <point x="24" y="592" type="curve" smooth="yes"/>
      <point x="24" y="611"/>
      <point x="36" y="620"/>
      <point x="60" y="620" type="curve" smooth="yes"/>
      <point x="65" y="620"/>
      <point x="69" y="620"/>
      <point x="73" y="619" type="curve"/>
      <point x="95" y="581"/>
      <point x="125" y="562"/>
      <point x="162" y="562" type="curve" smooth="yes"/>
      <point x="199" y="562"/>
      <point x="227" y="581"/>
      <point x="244" y="619" type="curve"/>
      <point x="255" y="630"/>
      <point x="269" y="635"/>
      <point x="285" y="632" type="curve" smooth="yes"/>
      <point x="288" y="632"/>
      <point x="291" y="631"/>
      <point x="294" y="630" type="curve"/>
      <point x="377" y="542" type="line"/>
      <point x="406" y="562" type="line"/>
      <point x="406" y="669" type="line" smooth="yes"/>
      <point x="406" y="681"/>
      <point x="417" y="687"/>
      <point x="439" y="687" type="curve" smooth="yes"/>
      <point x="458" y="687"/>
      <point x="468" y="682"/>
      <point x="468" y="671" type="curve" smooth="yes"/>
      <point x="468" y="362" type="line"/>
      <point x="576" y="240" type="line"/>
    </contour>
    <contour>
      <point x="337" y="87" type="line"/>
      <point x="354.06" y="90.7911"/>
      <point x="366" y="78.0633"/>
      <point x="366" y="63" type="curve" smooth="yes"/>
      <point x="366" y="57"/>
      <point x="364" y="53"/>
      <point x="360" y="49" type="curve"/>
      <point x="263" y="-7" type="line"/>
      <point x="416" y="-132" type="line"/>
      <point x="419" y="-136"/>
      <point x="421" y="-140"/>
      <point x="421" y="-145" type="curve" smooth="yes"/>
      <point x="421" y="-160"/>
      <point x="413" y="-167"/>
      <point x="396" y="-167" type="curve" smooth="yes"/>
      <point x="393" y="-167"/>
      <point x="391" y="-167"/>
      <point x="388" y="-166" type="curve"/>
      <point x="210" y="-24" type="line" smooth="yes"/>
      <point x="205" y="-19"/>
      <point x="202" y="-13"/>
      <point x="202" y="-6" type="curve" smooth="yes"/>
      <point x="202" y="2"/>
      <point x="205" y="9"/>
      <point x="211" y="15" type="curve"/>
    </contour>
  </outline>
</glyph>
<glyph name="u09e7" format="2">
  <advance width="456"/>
  <unicode hex="09E7"/>
  <outline>
    <contour>
      <point x="411" y="244" type="curve" smooth="yes"/>
      <point x="402" y="160"/>
      <point x="378" y="105"/>
      <point x="339" y="78" type="curve" smooth="yes"/>
      <point x="320" y="65"/>
      <point x="301" y="57"/>
      <point x="284" y="54" type="curve" smooth="yes"/>
      <point x="266" y="51"/>
      <point x="231" y="49"/>
      <point x="176" y="49" type="curve" smooth="yes"/>
      <point x="158" y="49"/>
      <point x="128" y="65"/>
      <point x="87" y="98" type="curve"/>
      <point x="85" y="105"/>
      <point x="84" y="110"/>
      <point x="84" y="116" type="curve" smooth="yes"/>
      <point x="84" y="136"/>
      <point x="96" y="145"/>
      <point x="120" y="144" type="curve" smooth="yes"/>
      <point x="121" y="144"/>
      <point x="123" y="143"/>
      <point x="124" y="143" type="curve" smooth="yes"/>
      <point x="149" y="114"/>
      <point x="185" y="99"/>
      <point x="234" y="99" type="curve" smooth="yes"/>
      <point x="259" y="99"/>
      <point x="279" y="104"/>
      <point x="292" y="112" type="curve" smooth="yes"/>
      <point x="336" y="142"/>
      <point x="358" y="204"/>
      <point x="356" y="296" type="curve"/>
      <point x="356" y="302" type="line"/>
      <point x="345" y="366"/>
      <point x="280.391" y="425.889"/>
      <point x="169" y="493" type="curve" smooth="yes"/>
      <point x="119.391" y="522.889"/>
      <point x="91" y="552"/>
      <point x="78" y="568" type="curve" smooth="yes"/>
      <point x="58" y="592"/>
      <point x="49" y="621"/>
      <point x="50" y="655" type="curve"/>
      <point x="50" y="657" type="line"/>
      <point x="52" y="668"/>
      <point x="61" y="674"/>
      <point x="76" y="674" type="curve" smooth="yes"/>
      <point x="93" y="674"/>
      <point x="104.175" y="668.024"/>
      <point x="104" y="657" type="curve" smooth="yes"/>
      <point x="103.453" y="622.584"/>
      <point x="128.839" y="592.571"/>
      <point x="153" y="575" type="curve" smooth="yes"/>
      <point x="260" y="502" type="line"/>
      <point x="362" y="430"/>
      <point x="412" y="352"/>
      <point x="412" y="267" type="curve" smooth="yes"/>
      <point x="412" y="260"/>
      <point x="412" y="252"/>
    </contour>
  </outline>
</glyph>
<glyph name="u09f7" format="2">
  <advance width="351"/>
  <unicode hex="09F7"/>
  <outline>
    <contour>
      <point x="215" y="569" type="line"/>
      <point x="215" y="-39" type="line"/>
      <point x="167" y="17" type="line"/>
      <point x="167" y="624" type="line"/>
    </contour>
  </outline>
</glyph>
<glyph name="uni09FD" format="2">
  <advance width="401"/>
  <unicode hex="09FD"/>
  <outline>
    <contour>
      <point x="255" y="250" type="curve" smooth="yes"/>
      <point x="212.28" y="247.545"/>
      <point x="178.276" y="204.859"/>
      <point x="174" y="162" type="curve" smooth="yes"/>
      <point x="170.181" y="123.726"/>
      <point x="191.399" y="96"/>
      <point x="228" y="96" type="curve" smooth="yes"/>
      <point x="274.29" y="96"/>
      <point x="316" y="146.834"/>
      <point x="316" y="195" type="curve" smooth="yes"/>
      <point x="316" y="231"/>
      <point x="295.814" y="252.345"/>
    </contour>
    <contour>
      <point x="262" y="314" type="curve" smooth="yes"/>
      <point x="332.633" y="314"/>
      <point x="378" y="261.392"/>
      <point x="378" y="190" type="curve" smooth="yes"/>
      <point x="378" y="184"/>
      <point x="378" y="179"/>
      <point x="377" y="173" type="curve" smooth="yes"/>
      <point x="364" y="106"/>
      <point x="324" y="59"/>
      <point x="257" y="35" type="curve" smooth="yes"/>
      <point x="249" y="34"/>
      <point x="240" y="33"/>
      <point x="233" y="33" type="curve" smooth="yes"/>
      <point x="157.666" y="33"/>
      <point x="114.156" y="83.3353"/>
      <point x="113" y="156" type="curve" smooth="yes"/>
      <point x="112.332" y="197.993"/>
      <point x="130" y="235"/>
      <point x="158" y="267" type="curve" smooth="yes"/>
      <point x="186" y="299"/>
      <point x="221" y="314"/>
    </contour>
  </outline>
</glyph>
<glyph name="uni09FE" format="2">
  <advance width="0"/>
  <unicode hex="09FE"/>
  <outline>
    <contour>
      <point x="-168.735" y="741.905" type="curve"/>
      <point x="-192.51" y="763.361"/>
      <point x="-216.588" y="768.736"/>
      <point x="-244.97" y="759.275" type="curve"/>
      <point x="-244.97" y="789.673" type="line"/>
      <point x="-207.076" y="798.284"/>
      <point x="-171.434" y="779.107"/>
      <point x="-148.47" y="759.275" type="curve"/>
      <point x="-137.372" y="750.59" type="line"/>
      <point x="-133.995" y="751.555"/>
      <point x="-130.617" y="751.555"/>
      <point x="-126.758" y="751.555" type="curve" smooth="yes"/>
      <point x="-76.6721" y="751.555"/>
      <point x="-44.25" y="715.448"/>
      <point x="-44.25" y="665.67" type="curve" smooth="yes"/>
      <point x="-44.25" y="660.362"/>
      <point x="-44.7324" y="654.572"/>
      <point x="-45.2148" y="649.265" type="curve" smooth="yes"/>
      <point x="-57.2773" y="602.945"/>
      <point x="-98.7725" y="575.442"/>
      <point x="-169.7" y="566.758" type="curve"/>
      <point x="-0.342773" y="462.055" type="line"/>
      <point x="0.139648" y="460.125"/>
      <point x="0.62207" y="458.195"/>
      <point x="0.62207" y="456.265" type="curve" smooth="yes"/>
      <point x="0.62207" y="447.58"/>
      <point x="-4.20215" y="443.237"/>
      <point x="-13.3701" y="443.72" type="curve" smooth="yes"/>
      <point x="-14.8174" y="443.72" type="line"/>
      <point x="-228.082" y="574.478" type="line"/>
      <point x="-230.978" y="578.338"/>
      <point x="-232.425" y="582.197"/>
      <point x="-232.425" y="586.54" type="curve" smooth="yes"/>
      <point x="-232.425" y="595.707"/>
      <point x="-228.565" y="600.05"/>
      <point x="-220.362" y="600.05" type="curve" smooth="yes"/>
      <point x="-218.915" y="600.05"/>
      <point x="-216.985" y="599.567"/>
      <point x="-215.055" y="599.085" type="curve" smooth="yes"/>
      <point x="-202.027" y="597.155"/>
      <point x="-189.482" y="596.19"/>
      <point x="-177.42" y="596.19" type="curve" smooth="yes"/>
      <point x="-123.862" y="596.19"/>
      <point x="-89.1221" y="614.525"/>
      <point x="-73.2002" y="651.678" type="curve"/>
      <point x="-72.2354" y="656.503"/>
      <point x="-71.7529" y="661.327"/>
      <point x="-71.7529" y="666.635" type="curve" smooth="yes"/>
      <point x="-71.7529" y="700.501"/>
      <point x="-93.9745" y="723.57"/>
      <point x="-128.205" y="723.57" type="curve" smooth="yes"/>
      <point x="-165.357" y="723.57"/>
      <point x="-185.14" y="704.27"/>
      <point x="-187.07" y="665.67" type="curve"/>
      <point x="-189.965" y="661.327"/>
      <point x="-194.308" y="658.915"/>
      <point x="-200.58" y="658.915" type="curve" smooth="yes"/>
      <point x="-207.335" y="658.915"/>
      <point x="-211.678" y="662.293"/>
      <point x="-214.09" y="669.048" type="curve"/>
      <point x="-214.09" y="701.455"/>
      <point x="-193.006" y="732.37"/>
    </contour>
  </outline>
</glyph>
<glyph name="quotedblleft" format="2">
  <advance width="518"/>
  <unicode hex="201C"/>
  <outline>
    <contour>
      <point x="135" y="623" type="line"/>
      <point x="93" y="633"/>
      <point x="72" y="657"/>
      <point x="72" y="695" type="curve" smooth="yes"/>
      <point x="72" y="710"/>
      <point x="76" y="725"/>
      <point x="83" y="743" type="curve" smooth="yes"/>
      <point x="100" y="783"/>
      <point x="129" y="818"/>
      <point x="172" y="848" type="curve"/>
      <point x="192.379" y="849.359"/>
      <point x="205" y="841.938"/>
      <point x="205" y="824" type="curve" smooth="yes"/>
      <point x="205" y="819"/>
      <point x="204" y="815"/>
      <point x="203" y="810" type="curve"/>
      <point x="191" y="804"/>
      <point x="175" y="789"/>
      <point x="155" y="765" type="curve" smooth="yes"/>
      <point x="132" y="737"/>
      <point x="120" y="715"/>
      <point x="120" y="697" type="curve" smooth="yes"/>
      <point x="120" y="684"/>
      <point x="127" y="675"/>
      <point x="142" y="670" type="curve" smooth="yes"/>
      <point x="149" y="669"/>
      <point x="158" y="669"/>
      <point x="170" y="670" type="curve" smooth="yes"/>
      <point x="176" y="670"/>
      <point x="184" y="671"/>
      <point x="191" y="672" type="curve"/>
      <point x="203" y="667"/>
      <point x="209" y="658"/>
      <point x="209" y="646" type="curve" smooth="yes"/>
      <point x="209" y="637"/>
      <point x="205" y="630"/>
      <point x="196" y="625" type="curve"/>
      <point x="176" y="621"/>
      <point x="159" y="621"/>
      <point x="146" y="622" type="curve" smooth="yes"/>
    </contour>
    <contour>
      <point x="344" y="623" type="line"/>
      <point x="302" y="633"/>
      <point x="281" y="657"/>
      <point x="281" y="695" type="curve" smooth="yes"/>
      <point x="281" y="710"/>
      <point x="285" y="725"/>
      <point x="292" y="743" type="curve" smooth="yes"/>
      <point x="309" y="783"/>
      <point x="338" y="818"/>
      <point x="381" y="848" type="curve"/>
      <point x="401.379" y="849.359"/>
      <point x="414" y="841.938"/>
      <point x="414" y="824" type="curve" smooth="yes"/>
      <point x="414" y="819"/>
      <point x="413" y="815"/>
      <point x="412" y="810" type="curve"/>
      <point x="400" y="804"/>
      <point x="384" y="789"/>
      <point x="364" y="765" type="curve" smooth="yes"/>
      <point x="341" y="737"/>
      <point x="329" y="715"/>
      <point x="329" y="697" type="curve" smooth="yes"/>
      <point x="329" y="684"/>
      <point x="336" y="675"/>
      <point x="351" y="670" type="curve" smooth="yes"/>
      <point x="358" y="669"/>
      <point x="367" y="669"/>
      <point x="379" y="670" type="curve" smooth="yes"/>
      <point x="385" y="670"/>
      <point x="393" y="671"/>
      <point x="400" y="672" type="curve"/>
      <point x="412" y="667"/>
      <point x="418" y="658"/>
      <point x="418" y="646" type="curve" smooth="yes"/>
      <point x="418" y="637"/>
      <point x="414" y="630"/>
      <point x="405" y="625" type="curve"/>
      <point x="385" y="621"/>
      <point x="369" y="621"/>
      <point x="356" y="622" type="curve" smooth="yes"/>
    </contour>
  </outline>
</glyph>
<glyph name=".notdef" format="2">
  <advance width="431"/>
  <outline>
    <contour>
      <point x="33" y="0" type="line"/>
      <point x="33" y="666" type="line"/>
      <point x="366" y="666" type="line"/>
      <point x="366" y="0" type="line"/>
    </contour>
    <contour>
      <point x="65" y="33" type="line"/>
      <point x="333" y="33" type="line"/>
      <point x="333" y="633" type="line"/>
      <point x="65" y="633" type="line"/>
    </contour>
  </outline>
</glyph>
<glyph name="glyph478" format="2">
  <advance width="586"/>
  <outline>
    <contour>
      <point x="293" y="355" type="line"/>
      <point x="293" y="524" type="line"/>
      <point x="107" y="452" type="line"/>
    </contour>
    <contour>
      <point x="355" y="610" type="line"/>
      <point x="355" y="594" type="line"/>
      <point x="421.319" y="597.49"/>
      <point x="472.433" y="565.398"/>
      <point x="495" y="522" type="curve" smooth="yes"/>
      <point x="505" y="507"/>
      <point x="510" y="486"/>
      <point x="510" y="460" type="curve" smooth="yes"/>
      <point x="510" y="401.987"/>
      <point x="480.926" y="337.031"/>
      <point x="430" y="337" type="curve" smooth="yes"/>
      <point x="414.907" y="336.991"/>
      <point x="407" y="348"/>
      <point x="407" y="363" type="curve" smooth="yes"/>
      <point x="407" y="372"/>
      <point x="411" y="380"/>
      <point x="418" y="387" type="curve"/>
      <point x="442.323" y="391.422"/>
      <point x="459" y="424.635"/>
      <point x="459" y="455" type="curve" smooth="yes"/>
      <point x="459" y="469"/>
      <point x="457.713" y="483.003"/>
      <point x="450" y="495" type="curve" smooth="yes"/>
      <point x="430.713" y="525.003"/>
      <point x="402" y="538"/>
      <point x="370" y="538" type="curve" smooth="yes"/>
      <point x="365" y="538"/>
      <point x="360" y="538"/>
      <point x="355" y="537" type="curve"/>
      <point x="355" y="317" type="line" smooth="yes"/>
      <point x="355" y="297"/>
      <point x="342" y="287"/>
      <point x="315" y="287" type="curve" smooth="yes"/>
      <point x="306" y="287"/>
      <point x="299" y="289"/>
      <point x="293" y="292" type="curve" smooth="yes"/>
      <point x="41" y="429" type="line" smooth="yes"/>
      <point x="27" y="436"/>
      <point x="20" y="449"/>
      <point x="20" y="469" type="curve" smooth="yes"/>
      <point x="20" y="476"/>
      <point x="22" y="481"/>
      <point x="25" y="486" type="curve"/>
      <point x="293" y="585" type="line"/>
      <point x="293" y="610" type="line"/>
      <point x="-6" y="610" type="line"/>
      <point x="-6" y="673" type="line"/>
      <point x="586" y="673" type="line"/>
      <point x="586" y="610" type="line"/>
    </contour>
  </outline>
</glyph>
<glyph name="glyph486" format="2">
  <advance width="440"/>
  <outline>
    <contour>
      <point x="379" y="453" type="curve" smooth="yes"/>
      <point x="379" y="323" type="line" smooth="yes"/>
      <point x="379" y="312"/>
      <point x="368" y="306"/>
      <point x="346" y="306" type="curve" smooth="yes"/>
      <point x="326" y="306"/>
      <point x="317" y="311"/>
      <point x="317" y="321" type="curve" smooth="yes"/>
      <point x="317" y="437" type="line" smooth="yes"/>
      <point x="317" y="484"/>
      <point x="304" y="507"/>
      <point x="277" y="507" type="curve" smooth="yes"/>
      <point x="250" y="507"/>
      <point x="212" y="485"/>
      <point x="165" y="442" type="curve" smooth="yes"/>
      <point x="126" y="406"/>
      <point x="100" y="377"/>
      <point x="87" y="355" type="curve"/>
      <point x="82" y="354"/>
      <point x="78" y="353"/>
      <point x="72" y="353" type="curve" smooth="yes"/>
      <point x="55" y="353"/>
      <point x="45" y="360"/>
      <point x="40" y="373" type="curve"/>
      <point x="40" y="610" type="line"/>
      <point x="-6" y="610" type="line"/>
      <point x="-6" y="673" type="line"/>
      <point x="455" y="673" type="line"/>
      <point x="455" y="610" type="line"/>
      <point x="102" y="610" type="line"/>
      <point x="102" y="446" type="line"/>
      <point x="139" y="482"/>
      <point x="167" y="507"/>
      <point x="186" y="520" type="curve" smooth="yes"/>
      <point x="225" y="548"/>
      <point x="260" y="561"/>
      <point x="292" y="559" type="curve" smooth="yes"/>
      <point x="294" y="559"/>
      <point x="295" y="558"/>
      <point x="297" y="558" type="curve" smooth="yes"/>
      <point x="320" y="558"/>
      <point x="337.303" y="545.774"/>
      <point x="353" y="524" type="curve" smooth="yes"/>
      <point x="368.303" y="502.774"/>
      <point x="379" y="480"/>
    </contour>
  </outline>
</glyph>
<glyph name="glyph516" format="2">
  <advance width="15"/>
  <outline>
    <contour>
      <point x="-250" y="256" type="curve"/>
      <point x="-250" y="172.198"/>
      <point x="-206.575" y="104"/>
      <point x="-130" y="104" type="curve" smooth="yes"/>
      <point x="-95" y="104"/>
      <point x="-61" y="119"/>
      <point x="-29" y="150" type="curve" smooth="yes"/>
      <point x="20" y="197"/>
      <point x="43" y="250"/>
      <point x="43" y="311" type="curve" smooth="yes"/>
      <point x="43" y="384"/>
      <point x="9" y="464"/>
      <point x="-60" y="551" type="curve"/>
      <point x="-59" y="539"/>
      <point x="-58" y="527"/>
      <point x="-58" y="515" type="curve" smooth="yes"/>
      <point x="-58" y="452"/>
      <point x="-74" y="400"/>
      <point x="-107" y="358" type="curve" smooth="yes"/>
      <point x="-137" y="319"/>
      <point x="-185" y="285"/>
    </contour>
    <contour>
      <point x="-165" y="1052" type="curve"/>
      <point x="-147" y="1047"/>
      <point x="-138" y="1035"/>
      <point x="-138" y="1016" type="curve" smooth="yes"/>
      <point x="-138" y="1006"/>
      <point x="-141" y="999"/>
      <point x="-148" y="996" type="curve"/>
      <point x="-191" y="996"/>
      <point x="-213" y="980"/>
      <point x="-213" y="948" type="curve" smooth="yes"/>
      <point x="-213" y="926"/>
      <point x="-204.256" y="889.834"/>
      <point x="-179" y="842" type="curve" smooth="yes"/>
      <point x="-138.256" y="764.834"/>
      <point x="-104" y="709"/>
      <point x="-81" y="673" type="curve"/>
      <point x="172" y="673" type="line"/>
      <point x="172" y="610" type="line"/>
      <point x="-30" y="610" type="line"/>
      <point x="56" y="506"/>
      <point x="99" y="405"/>
      <point x="99" y="306" type="curve" smooth="yes"/>
      <point x="99" y="241"/>
      <point x="78" y="182"/>
      <point x="37" y="131" type="curve" smooth="yes"/>
      <point x="-8" y="76"/>
      <point x="-62" y="49"/>
      <point x="-125" y="49" type="curve" smooth="yes"/>
      <point x="-149" y="49"/>
      <point x="-174" y="53"/>
      <point x="-199" y="62" type="curve" smooth="yes"/>
      <point x="-225" y="71"/>
      <point x="-250" y="96"/>
      <point x="-274" y="135" type="curve" smooth="yes"/>
      <point x="-298" y="174"/>
      <point x="-311" y="211"/>
      <point x="-311" y="246" type="curve" smooth="yes"/>
      <point x="-311" y="271"/>
      <point x="-304" y="290"/>
      <point x="-289" y="302" type="curve"/>
      <point x="-226" y="328"/>
      <point x="-180" y="358"/>
      <point x="-152" y="392" type="curve" smooth="yes"/>
      <point x="-124" y="426"/>
      <point x="-109" y="470"/>
      <point x="-109" y="525" type="curve" smooth="yes"/>
      <point x="-109" y="550"/>
      <point x="-113" y="579"/>
      <point x="-119" y="610" type="curve"/>
      <point x="-373" y="610" type="line"/>
      <point x="-373" y="673" type="line"/>
      <point x="-148" y="673" type="line"/>
      <point x="-155" y="688"/>
      <point x="-175" y="721"/>
      <point x="-206" y="774" type="curve" smooth="yes"/>
      <point x="-249" y="848"/>
      <point x="-271" y="906"/>
      <point x="-271" y="950" type="curve" smooth="yes"/>
      <point x="-271" y="1005"/>
      <point x="-236" y="1040"/>
    </contour>
  </outline>
</glyph>
<glyph name="glyph538" format="2">
  <advance width="240"/>
  <outline>
    <contour>
      <point x="54" y="440" type="curve" smooth="yes"/>
      <point x="1.78" y="440"/>
      <point x="-59.7413" y="374.814"/>
      <point x="-84" y="336" type="curve"/>
      <point x="-99" y="407" type="line"/>
      <point x="-39" y="470" type="line"/>
      <point x="-4.20707" y="501.479"/>
      <point x="57.0901" y="510.689"/>
      <point x="104" y="486" type="curve" smooth="yes"/>
      <point x="139.492" y="464.705"/>
      <point x="170" y="426.512"/>
      <point x="170" y="382" type="curve" smooth="yes"/>
      <point x="170" y="374"/>
      <point x="169" y="365"/>
      <point x="167" y="357" type="curve" smooth="yes"/>
      <point x="151" y="297"/>
      <point x="107" y="268"/>
      <point x="34" y="270" type="curve"/>
      <point x="30" y="270" type="line"/>
      <point x="20" y="275"/>
      <point x="16" y="283"/>
      <point x="16" y="293" type="curve" smooth="yes"/>
      <point x="16" y="306"/>
      <point x="22" y="315"/>
      <point x="35" y="320" type="curve"/>
      <point x="82.1148" y="314.457"/>
      <point x="117" y="338.795"/>
      <point x="117" y="382" type="curve" smooth="yes"/>
      <point x="117" y="389"/>
      <point x="116" y="395"/>
      <point x="114" y="401" type="curve" smooth="yes"/>
      <point x="98" y="427"/>
      <point x="78" y="440"/>
    </contour>
    <contour>
      <point x="248" y="673" type="line"/>
      <point x="248" y="610" type="line"/>
      <point x="-5" y="610" type="line"/>
      <point x="-5" y="673" type="line"/>
    </contour>
  </outline>
</glyph>
<glyph name="kassa_u09cd.half" format="2">
  <advance width="833"/>
  <outline>
    <contour>
      <point x="540" y="0" type="line"/>
      <point x="705" y="-121" type="line"/>
      <point x="673" y="-164" type="line"/>
      <point x="505" y="-38" type="line"/>
    </contour>
    <contour>
      <point x="411" y="610" type="line"/>
      <point x="402" y="600"/>
      <point x="397" y="590"/>
      <point x="397" y="580" type="curve" smooth="yes"/>
      <point x="397" y="553"/>
      <point x="430" y="524"/>
      <point x="494" y="494" type="curve"/>
      <point x="494" y="610" type="line"/>
    </contour>
    <contour>
      <point x="189" y="514" type="curve"/>
      <point x="274.436" y="502.609"/>
      <point x="359" y="434.551"/>
      <point x="359" y="343" type="curve" smooth="yes"/>
      <point x="359" y="319"/>
      <point x="353" y="294"/>
      <point x="341" y="269" type="curve"/>
      <point x="494" y="133" type="line"/>
      <point x="494" y="430" type="line"/>
      <point x="390" y="477"/>
      <point x="337" y="526"/>
      <point x="337" y="578" type="curve" smooth="yes"/>
      <point x="337" y="588"/>
      <point x="339" y="599"/>
      <point x="343" y="610" type="curve"/>
      <point x="175" y="610" type="line"/>
      <point x="187" y="591"/>
      <point x="193" y="570"/>
      <point x="193" y="548" type="curve" smooth="yes"/>
      <point x="193" y="538"/>
      <point x="192" y="527"/>
    </contour>
    <contour>
      <point x="206" y="155" type="curve"/>
      <point x="189.476" y="157.542"/>
      <point x="172" y="170.393"/>
      <point x="172" y="191" type="curve" smooth="yes"/>
      <point x="172" y="197"/>
      <point x="174" y="202"/>
      <point x="178" y="206" type="curve" smooth="yes"/>
      <point x="254" y="249"/>
      <point x="293" y="294"/>
      <point x="293" y="342" type="curve" smooth="yes"/>
      <point x="293" y="400.153"/>
      <point x="240.109" y="456"/>
      <point x="181" y="456" type="curve" smooth="yes"/>
      <point x="174" y="456"/>
      <point x="167" y="455"/>
      <point x="160" y="453" type="curve"/>
      <point x="139" y="420"/>
      <point x="109" y="392"/>
      <point x="68" y="368" type="curve"/>
      <point x="44.0747" y="366.593"/>
      <point x="30" y="374.422"/>
      <point x="30" y="397" type="curve" smooth="yes"/>
      <point x="30" y="402"/>
      <point x="31" y="406"/>
      <point x="34" y="410" type="curve"/>
      <point x="73.4378" y="429.719"/>
      <point x="134" y="490.028"/>
      <point x="134" y="545" type="curve" smooth="yes"/>
      <point x="134" y="578"/>
      <point x="113" y="600"/>
      <point x="73" y="610" type="curve"/>
      <point x="-6" y="610" type="line"/>
      <point x="-6" y="673" type="line"/>
      <point x="837" y="673" type="line"/>
      <point x="837" y="610" type="line"/>
      <point x="551" y="610" type="line"/>
      <point x="551" y="471" type="line"/>
      <point x="609" y="451"/>
      <point x="657" y="427"/>
      <point x="695" y="396" type="curve" smooth="yes"/>
      <point x="736" y="363"/>
      <point x="757" y="330"/>
      <point x="757" y="297" type="curve" smooth="yes"/>
      <point x="757" y="254"/>
      <point x="721" y="216"/>
      <point x="649" y="185" type="curve" smooth="yes"/>
      <point x="634.067" y="180.52"/>
      <point x="618" y="199.058"/>
      <point x="618" y="217" type="curve" smooth="yes"/>
      <point x="618" y="222"/>
      <point x="619" y="226"/>
      <point x="620" y="230" type="curve"/>
      <point x="669" y="251"/>
      <point x="693" y="275"/>
      <point x="693" y="300" type="curve" smooth="yes"/>
      <point x="693" y="339"/>
      <point x="646" y="375"/>
      <point x="551" y="408" type="curve"/>
      <point x="551" y="68" type="line" smooth="yes"/>
      <point x="551" y="54.0184"/>
      <point x="527.973" y="41"/>
      <point x="508" y="41" type="curve" smooth="yes"/>
      <point x="500" y="41"/>
      <point x="493" y="43"/>
      <point x="489" y="47" type="curve" smooth="yes"/>
      <point x="300" y="221" type="line"/>
      <point x="275" y="197"/>
      <point x="243" y="175"/>
    </contour>
  </outline>
</glyph>
